<?xml version="1.0" encoding="utf-8"?>
<!-- Generator: Adobe Illustrator 23.0.1, SVG Export Plug-In . SVG Version: 6.00 Build 0)  -->
<svg version="1.1" id="Слой_1" xmlns="http://www.w3.org/2000/svg" xmlns:xlink="http://www.w3.org/1999/xlink" x="0px" y="0px"
	 viewBox="0 0 215.5 221.2" style="enable-background:new 0 0 215.5 221.2;" xml:space="preserve">
<style type="text/css">
	.st0{fill:url(#SVGID_1_);}
</style>
<linearGradient id="SVGID_1_" gradientUnits="userSpaceOnUse" x1="1570.7715" y1="2836.5059" x2="1672.192" y2="3012.1765" gradientTransform="matrix(1 0 0 1 -1511.26 -2813.1953)">
	<stop  offset="5.000000e-02" style="stop-color:#5F31F7"/>
	<stop  offset="0.47" style="stop-color:#F62496"/>
	<stop  offset="0.95" style="stop-color:#EF24F6"/>
</linearGradient>
<path class="st0" d="M66.3,108.2c-1.1-1.3-3.1-1.5-4.4-0.4l-51.5,42.7c0.8,2,1.7,4,2.6,6l52.9-43.9
	C67.2,111.5,67.4,109.5,66.3,108.2z M183.8,33l-164,135.9c1.1,1.8,2.3,3.5,3.6,5.2L188.2,37.4C186.8,35.9,185.3,34.4,183.8,33z
	 M168.2,155c-1.1-1.3-3.1-1.5-4.4-0.4l-74.5,61.7c2.7,0.5,5.5,1,8.3,1.3l70.2-58.2c1.3-1,1.6-2.9,0.6-4.2
	C168.3,155.1,168.3,155.1,168.2,155L168.2,155z M79.7,97.1c1.1,1.3,3.1,1.5,4.4,0.4l88.7-73.6c-1.8-1.3-3.6-2.5-5.4-3.7L80.1,92.6
	C78.8,93.8,78.6,95.7,79.7,97.1z M139.2,201.2l-20.1,16.7c4-0.3,7.9-0.9,11.8-1.6l12.3-10.2c1.3-1.1,1.5-3.1,0.4-4.4
	C142.6,200.4,140.7,200.1,139.2,201.2C139.3,201.2,139.3,201.2,139.2,201.2L139.2,201.2z M104.9,154.9c-1.1-1.3-3.1-1.5-4.4-0.4
	l-52.8,43.8c1.8,1.3,3.6,2.5,5.4,3.6l51.3-42.6c1.3-1,1.6-2.8,0.7-4.2C105,155,105,155,104.9,154.9z M129.6,108.2
	c-1.1-1.3-3.1-1.5-4.4-0.4l-92.9,77c1.4,1.5,2.9,3,4.5,4.5l92.4-76.6C130.5,111.5,130.7,109.6,129.6,108.2z M27.7,61.5
	c-1.2-1.3-3.1-1.5-4.5-0.4l-13,10.8c-1.4,3.7-2.7,7.4-3.7,11.2l20.7-17.2C28.6,64.9,28.8,62.9,27.7,61.5
	C27.8,61.6,27.7,61.5,27.7,61.5z"/>
	<path class="st1" d="M91,61.5c-1.1-1.3-3.1-1.5-4.4-0.4L4.4,129.2c0.4,2.4,0.9,4.7,1.4,7L90.5,66
	C91.9,64.9,92.1,62.9,91,61.5C91,61.5,91,61.5,91,61.5z M45.5,50.8l56.6-46.9c-3.9,0.3-7.8,0.8-11.6,1.5L41.5,46
	c-1.3,1.1-1.5,3.1-0.4,4.4C42.2,51.7,44.2,51.9,45.5,50.8z M180,66.4c1.1,1.3,3.1,1.5,4.4,0.4l16.2-13.4c-1.1-1.8-2.3-3.5-3.5-5.2
	L180.5,62C179.2,63,178.9,65,180,66.4C180,66.4,180,66.4,180,66.4z M118.3,143.8c1.1,1.3,3.1,1.5,4.4,0.4l87.2-72.3
	c-0.8-2-1.6-4-2.6-6l-88.7,73.5C117.4,140.6,117.3,142.5,118.3,143.8z M204,121.2l-23.6,19.6c-1.3,1.1-1.5,3.1-0.4,4.4
	c1.1,1.3,3.1,1.5,4.4,0.4L208,126c1.3-1.1,1.5-3.1,0.4-4.4C207.3,120.3,205.4,120.1,204,121.2z M214.4,86.3L66.4,209
	c2.1,1,4.4,1.9,6.6,2.7L215.8,93.3C215.5,90.9,215,88.6,214.4,86.3z M157,190.5c1.1,1.3,3.1,1.5,4.4,0.4l48.2-39.9
	c1.5-3.7,2.7-7.5,3.8-11.3l-56,46.4C156.1,187.2,155.9,189.2,157,190.5z M145.8,98.9l23.6-19.6c1.3-1.1,1.5-3.1,0.4-4.4
	c-1.1-1.3-3.1-1.5-4.4-0.4l0,0l-23.6,19.6c-1.3,1.1-1.5,3.1-0.4,4.4C142.5,99.8,144.5,100,145.8,98.9z M123.3,4.4L3.1,104.1
	c-0.1,2.3-0.2,4.6-0.2,6.9v1.4L131.5,5.7C128.8,5.2,126,4.8,123.3,4.4z M126.8,27.8l-23.6,19.6c-1.3,1.1-1.5,3.1-0.4,4.4
	c1.1,1.3,3.1,1.5,4.4,0.4l23.6-19.6c1.3-1.1,1.5-3.1,0.4-4.4C130.2,26.9,128.2,26.7,126.8,27.8C126.9,27.7,126.9,27.8,126.8,27.8z
	 M145.8,20.1l8.5-7c-2.1-1-4.3-1.9-6.5-2.7l-5.9,4.9c-1.3,1.1-1.5,3.1-0.4,4.4c1,1.3,2.8,1.5,4.1,0.6
	C145.7,20.2,145.8,20.2,145.8,20.1z"/>
</svg>
