<svg xmlns="http://www.w3.org/2000/svg" width="244" height="236" viewBox="0 0 244 236"><g><g><path fill="#e7e7e7" d="M15.296 50.266l67.738-1.092c6.034 0 10.925 4.892 10.925 10.925v100.516c0 6.033 16.96 10.925 10.926 10.925l-89.59 1.092c-6.033 0-10.925-4.892-10.925-10.925V61.192c0-6.034 4.892-10.926 10.926-10.926z"/></g><g><path fill="#e7e7e7" d="M105.978 91.783h104.884v13.111l-3.277 5.463s-9.369 3.573-9.833 3.277c-.464-.295-17.481-1.092-17.481-1.092l-22.944 1.092-20.758-1.092h-16.388l-8.74-1.093h-4.371z"/></g><g><path fill="#f03382" d="M195.906 79.313c9.2 0 16.657 7.45 16.657 16.64 0 9.19-7.458 16.64-16.657 16.64s-16.656-7.45-16.656-16.64c0-9.19 7.457-16.64 16.656-16.64z"/></g><g><path fill="#a2acbb" d="M111.569 125.215a2.71 2.71 0 0 1 0-5.42l10.709.002v-5.292l-10.712-.002a2.706 2.706 0 0 1-2.702-2.71 2.706 2.706 0 0 1 2.703-2.708l89.168.015c4.272 0 7.747-3.484 7.747-7.764v-6.491l-96.916-.013a2.706 2.706 0 0 1-2.702-2.709c0-1.497 1.21-2.71 2.703-2.71l96.915.014V13.189c0-4.29-3.469-7.768-7.747-7.768H73.722c-4.276 0-7.743 3.476-7.743 7.764v21.081c0 1.497-1.21 2.71-2.703 2.71a2.707 2.707 0 0 1-2.703-2.71V13.19c0-7.283 5.889-13.188 13.153-13.188H200.74c7.261 0 13.148 5.902 13.148 13.183v88.15c0 7.27-5.9 13.182-13.153 13.182l-48.552-.008v5.29l88.753.01a2.71 2.71 0 0 1 0 5.42h-10.242v101.983c0 4.653-3.762 8.425-8.403 8.425-4.64 0-8.403-3.772-8.403-8.425V125.226l-61.705-.006v.01h-29.905v-.014zm35.208-10.646h-19.093v5.228l19.093.002zM95.795 23.207c-.722 0-1.4-.282-1.91-.792a2.695 2.695 0 0 1-.792-1.917c0-.725.28-1.404.79-1.916l3.106-3.119a2.68 2.68 0 0 1 1.911-.794c.723 0 1.4.283 1.911.794.511.512.792 1.192.792 1.917 0 .723-.281 1.404-.792 1.915l-3.104 3.118a2.685 2.685 0 0 1-1.912.794zm-23.239-.462a2.68 2.68 0 0 1-1.911-.793 2.693 2.693 0 0 1-.792-1.917c0-.723.281-1.404.792-1.915l8.205-8.223a2.684 2.684 0 0 1 1.912-.794c.722 0 1.4.282 1.91.792a2.717 2.717 0 0 1 .002 3.833l-8.207 8.224a2.68 2.68 0 0 1-1.91.793zm2.004 9.318c-.723 0-1.4-.283-1.911-.794a2.717 2.717 0 0 1-.001-3.832l15.5-15.533a2.683 2.683 0 0 1 1.911-.793c.722 0 1.4.281 1.91.792a2.717 2.717 0 0 1 .002 3.832l-15.5 15.533a2.683 2.683 0 0 1-1.911.795zm2.459 9.954c-.723 0-1.4-.281-1.911-.792a2.696 2.696 0 0 1-.793-1.916c0-.725.281-1.405.792-1.917L86.048 26.43a2.68 2.68 0 0 1 1.911-.795 2.68 2.68 0 0 1 1.913.796c.51.51.79 1.19.79 1.913 0 .725-.28 1.406-.792 1.918L78.93 41.224a2.683 2.683 0 0 1-1.911.793zm123.503 63.585a3.816 3.816 0 0 1 0-7.631 3.816 3.816 0 0 1 0 7.631zM80.524 47.92c9.764 0 17.709 7.965 17.709 17.756v91.435c0 3.693 1.098 6.312 6.89 9.562 1.562.686 32.995 1.675 37.108 2.095 1.43.149 2.663.275 3.537.376 1.358.156 3.886.449 3.79 3.04-.01.265-.18 2.598-3.035 2.675-.167.005-36.709.007-55.341.008.153.39.238.815.238 1.26a3.43 3.43 0 0 1-3.426 3.434h-4.305v8.288a4.14 4.14 0 0 1-4.136 4.146h-2.278v37.124h22.726a3.43 3.43 0 0 1 3.426 3.436 3.43 3.43 0 0 1-3.426 3.435H38.836a3.43 3.43 0 0 1-3.426-3.435 3.43 3.43 0 0 1 3.426-3.436H60.47v-37.124h-2.278a4.14 4.14 0 0 1-4.136-4.146v-8.288h-4.305a3.43 3.43 0 0 1-3.426-3.435c0-.444.084-.87.238-1.26H17.707c-9.765 0-17.71-7.964-17.71-17.755V65.676c0-9.79 7.945-17.756 17.71-17.756zm12.251 17.756c0-6.774-5.496-12.284-12.251-12.284H17.707c-6.756 0-12.252 5.51-12.252 12.284v91.435c0 6.774 5.496 12.284 12.252 12.284h62.817l18.703-.002c-4.538-3.317-6.452-7.06-6.452-12.282zM78.231 180.353H59.514v6.17h18.717zm-6.413 11.642h-5.891v37.124h5.89zm153.418-66.714h-5.89v101.93a2.953 2.953 0 0 0 2.945 2.954 2.953 2.953 0 0 0 2.945-2.953z"/></g></g></svg>