<svg xmlns="http://www.w3.org/2000/svg" width="399" height="298" viewBox="0 0 399 298"><g><g><path fill="#cfd6e0" d="M157 0c77.872 0 141 63.128 141 141s-63.128 141-141 141S16 218.872 16 141 79.128 0 157 0z"/></g><g><path fill="#cfd6e0" d="M16 0c8.837 0 16 7.163 16 16 0 8.836-7.163 16-16 16S0 24.836 0 16C0 7.163 7.163 0 16 0z"/></g><g><path fill="#f03382" d="M112 282a8 8 0 1 1 0 16 8 8 0 0 1 0-16z"/></g><g><path fill="#f03382" d="M333.5 131c36.175 0 65.5 29.325 65.5 65.5S369.675 262 333.5 262 268 232.675 268 196.5s29.325-65.5 65.5-65.5z"/></g><g><path fill="#f03382" d="M100 166c15.668 0 28.468-12.471 28.998-28H71c.53 15.529 13.33 28 29 28z"/></g><g><path fill="#f03382" d="M233 131c15.668 0 28.468-12.472 28.998-28H204c.53 15.528 13.33 28 29 28z"/></g><g><path fill="#1f242d" d="M168.998 187h14.222a2.774 2.774 0 0 1 2.774 2.775V200h11.223a2.774 2.774 0 0 1 2.773 2.774V224h-76.98v-21.226a2.774 2.774 0 0 1 2.773-2.774h11.223v-10.225A2.774 2.774 0 0 1 139.78 187h14.222V79.12a14.088 14.088 0 0 1-5.505-5.854l-40.485 8.725.001.009c0 4.911-3.219 9.072-7.661 10.485L124.892 135h.834a4.28 4.28 0 0 1 4.28 4.325c-.003.222-.007.444-.015.666a.095.095 0 0 1-.009.009c-.53 17.761-15.08 32-32.966 32-17.886 0-32.437-14.239-32.967-32l-.009-.009a28.903 28.903 0 0 1-.014-.666 4.28 4.28 0 0 1 4.28-4.325h.38l24.615-42.643C89.055 90.833 86.018 86.77 86.018 82c0-6.075 4.924-11 10.998-11 4.32 0 8.049 2.499 9.847 6.125l40.216-8.669c-.049-.478-.076-.964-.076-1.456 0-7.732 6.267-14 13.997-14 6.19 0 11.431 4.023 13.278 9.594l19.01-4.097a2.498 2.498 0 1 1 1.052 4.887l-19.372 4.176a13.997 13.997 0 0 1-5.97 10.925zm-71.982-19c15.651 0 28.437-12.471 28.967-28H68.048c-.011-.333-.025-.664-.025-1 0 .336.014.667.025 1 .53 15.529 13.316 28 28.968 28zm-.227-71.687L74.46 135h44.66zM161 57c-5.512 0-9.997 4.486-9.997 10 0 .204.019.403.031.605a9.926 9.926 0 0 0 1.556 4.779c1.779 2.772 4.88 4.616 8.41 4.616 5.023 0 9.18-3.727 9.883-8.559a10 10 0 0 0 .115-1.44c0-1.255-.241-2.45-.664-3.556C168.895 59.683 165.26 57 161 57zM159 187h5V80.677a14.024 14.024 0 0 1-5 .18zm35.992 32v-14h-66.984v14zm-13.997-19v-8h-38.99v8zM97.015 75c-3.858 0-6.998 3.14-6.998 7s3.14 7 6.999 7c3.565 0 6.51-2.681 6.939-6.133a7.02 7.02 0 0 0 .059-.867 6.956 6.956 0 0 0-1.256-3.99A6.99 6.99 0 0 0 97.016 75zM220.27 64.357c-4.246-1.524-7.283-5.586-7.283-10.357 0-6.075 4.924-11 10.997-11 6.074 0 10.998 4.925 10.998 11 0 4.912-3.219 9.072-7.662 10.485L252.438 108h.257a4.28 4.28 0 0 1 4.28 4.325 28.82 28.82 0 0 1-.015.666l-.009.01c-.53 17.76-15.08 31.999-32.967 31.999-17.885 0-32.436-14.238-32.966-32l-.009-.009a28.818 28.818 0 0 1-.015-.666 4.28 4.28 0 0 1 4.082-4.32zM223.984 141c15.652 0 28.438-12.472 28.968-28h-57.935c.53 15.528 13.316 28 28.967 28zm-.226-72.687L200.851 108h45.815zM223.984 47c-3.858 0-6.998 3.14-6.998 7s3.14 7 6.998 7c3.86 0 6.999-3.14 6.999-7s-3.14-7-6.999-7c0 0 3.86 0 0 0zM68.023 139zm.177-3.157z"/></g></g></svg>