<?xml version="1.0" encoding="utf-8"?>
<!-- Generator: Adobe Illustrator 23.0.1, SVG Export Plug-In . SVG Version: 6.00 Build 0)  -->
<svg version="1.1" id="flat" xmlns="http://www.w3.org/2000/svg" xmlns:xlink="http://www.w3.org/1999/xlink" x="0px" y="0px"
	 viewBox="0 0 512 512" style="enable-background:new 0 0 512 512;" xml:space="preserve">
<style type="text/css">
	.st0{fill:#FE418E;}
	.st1{fill:#D82174;}
	.st2{fill:#FF6EB0;}
</style>
<path class="st0" d="M440,157.2V456c0,17.7-14.3,32-32,32H104c-17.7,0-32-14.3-32-32V56c0-17.7,14.3-32,32-32h202.8
	c8.5,0,16.6,3.4,22.6,9.4l101.3,101.3C436.6,140.6,440,148.8,440,157.2z"/>
<g>
	<path class="st1" d="M200,80h80v16h-80V80z"/>
	<path class="st1" d="M160,80h16v16h-16V80z"/>
	<path class="st1" d="M216,136h64v16h-64V136z"/>
	<path class="st1" d="M120,136h72v16h-72V136z"/>
	<path class="st1" d="M256,192h136v16H256V192z"/>
	<path class="st1" d="M168,192h64v16h-64V192z"/>
	<path class="st1" d="M120,192h32v16h-32V192z"/>
	<path class="st1" d="M352,248h40v16h-40V248z"/>
	<path class="st1" d="M232,248h96v16h-96V248z"/>
	<path class="st1" d="M120,248h88v16h-88V248z"/>
	<path class="st1" d="M296,304h96v16h-96V304z"/>
	<path class="st1" d="M176,304h96v16h-96V304z"/>
	<path class="st1" d="M120,304h32v16h-32V304z"/>
	<path class="st1" d="M360,360h32v16h-32V360z"/>
	<path class="st1" d="M216,360h120v16H216V360z"/>
	<path class="st1" d="M120,360h72v16h-72V360z"/>
	<path class="st1" d="M368,416h24v16h-24V416z"/>
	<path class="st1" d="M264,416h80v16h-80V416z"/>
	<path class="st1" d="M120,416h120v16H120V416z"/>
</g>
<path class="st2" d="M437.1,144H352c-17.7,0-32-14.3-32-32V26.9c3.5,1.6,6.7,3.8,9.4,6.5l101.3,101.3
	C433.3,137.3,435.5,140.5,437.1,144z"/>
</svg>
