<?xml version="1.0" encoding="utf-8"?>
<!-- Generator: Adobe Illustrator 23.0.1, SVG Export Plug-In . SVG Version: 6.00 Build 0)  -->
<svg version="1.1" id="Слой_1" xmlns="http://www.w3.org/2000/svg" xmlns:xlink="http://www.w3.org/1999/xlink" x="0px" y="0px"
	 viewBox="0 0 244.6 248.2" style="enable-background:new 0 0 244.6 248.2;" xml:space="preserve">
<style type="text/css">
	.st0{fill:url(#SVGID_1_);}
</style>
<g>
	<g>
		
			<linearGradient id="SVGID_1_" gradientUnits="userSpaceOnUse" x1="1580.1287" y1="691.8644" x2="1681.5479" y2="867.5276" gradientTransform="matrix(1 0 0 1 -1511.2552 -657.7909)">
			<stop  offset="5.000000e-02" style="stop-color:#5F31F7"/>
			<stop  offset="0.47" style="stop-color:#F62496"/>
			<stop  offset="0.95" style="stop-color:#EF24F6"/>
		</linearGradient>
		<path class="st0" d="M75.7,119c-1.1-1.3-3.1-1.5-4.4-0.4l-51.5,42.7c0.8,2,1.7,4,2.6,6l52.9-43.9C76.6,122.3,76.8,120.4,75.7,119z
			 M193.2,43.8L29.2,179.7c1.1,1.8,2.3,3.5,3.6,5.2L197.6,48.2C196.2,46.7,194.7,45.2,193.2,43.8z M177.6,165.8
			c-1.1-1.3-3.1-1.5-4.4-0.4l-74.5,61.7c2.7,0.5,5.5,1,8.3,1.3l70.2-58.2C178.6,169.1,178.8,167.1,177.6,165.8z M89.1,107.9
			c1.1,1.3,3.1,1.5,4.4,0.4l88.7-73.6c-1.8-1.3-3.6-2.5-5.4-3.7l-87.3,72.4C88.2,104.6,88,106.6,89.1,107.9z M148.6,212l-20.1,16.7
			c4-0.3,7.9-0.9,11.8-1.6l12.3-10.2c1.3-1.1,1.5-3.1,0.4-4.4C151.9,211.1,149.9,210.9,148.6,212z M114.3,165.7
			c-1.1-1.3-3.1-1.5-4.4-0.4l-52.8,43.8c1.8,1.3,3.6,2.5,5.4,3.6l51.3-42.6C115.3,169.1,115.4,167.1,114.3,165.7z M139,119
			c-1.1-1.3-3.1-1.5-4.4-0.4l-92.9,77c1.4,1.5,2.9,3,4.5,4.5l92.4-76.6C139.9,122.3,140.1,120.4,139,119z M37.1,72.3
			C36,71,34,70.8,32.6,71.9L19.6,82.7c-1.4,3.6-2.7,7.4-3.7,11.2l20.7-17.2C38,75.6,38.2,73.6,37.1,72.3z M100.4,72.3
			c-1.1-1.3-3.1-1.5-4.4-0.4L13.8,140c0.4,2.4,0.9,4.7,1.4,7l84.7-70.2C101.3,75.6,101.5,73.7,100.4,72.3z M54.9,61.6l56.6-46.9
			c-4,0.3-7.8,0.8-11.6,1.5L50.9,56.8c-1.3,1.1-1.5,3.1-0.4,4.4C51.6,62.5,53.5,62.7,54.9,61.6z M189.4,77.2
			c1.1,1.3,3.1,1.5,4.4,0.4L210,64.2c-1.1-1.8-2.3-3.5-3.5-5.2l-16.6,13.8C188.5,73.9,188.3,75.9,189.4,77.2z M127.7,154.6
			c1.1,1.3,3.1,1.5,4.4,0.4l87.2-72.3c-0.8-2-1.6-4-2.6-6l-88.7,73.5C126.8,151.3,126.6,153.3,127.7,154.6z M213.4,132l-23.6,19.6
			c-1.3,1.1-1.5,3.1-0.4,4.4c1.1,1.3,3.1,1.5,4.4,0.4l23.6-19.6c1.3-1.1,1.5-3.1,0.4-4.4C216.8,131.1,214.8,130.9,213.4,132z
			 M223.8,97.1l-148,122.7c2.1,1,4.3,1.9,6.6,2.7l142.8-118.4C224.9,101.7,224.4,99.4,223.8,97.1z M166.4,201.3
			c1.1,1.3,3.1,1.5,4.4,0.4l48.2-39.9c1.5-3.7,2.7-7.5,3.8-11.3l-56,46.4C165.5,198,165.3,200,166.4,201.3z M155.2,109.7l23.6-19.6
			c1.3-1.1,1.5-3.1,0.4-4.4c-1.1-1.3-3.1-1.5-4.4-0.4l-23.6,19.6c-1.3,1.1-1.5,3.1-0.4,4.4C151.9,110.6,153.9,110.8,155.2,109.7z
			 M132.7,15.2L12.5,114.9c-0.1,2.3-0.2,4.6-0.2,6.9c0,0.5,0,1,0,1.4L140.9,16.5C138.2,16,135.4,15.6,132.7,15.2z M136.2,38.6
			l-23.6,19.6c-1.3,1.1-1.5,3.1-0.4,4.4c1.1,1.3,3.1,1.5,4.4,0.4l23.6-19.6c1.3-1.1,1.5-3.1,0.4-4.4
			C139.5,37.6,137.5,37.5,136.2,38.6z M155.2,30.9l8.5-7c-2.1-1-4.3-1.9-6.5-2.7l-5.9,4.9c-1.3,1.1-1.5,3.1-0.4,4.4
			C151.9,31.9,153.8,32,155.2,30.9z"/>
	</g>
</g>
</svg>
