<svg xmlns="http://www.w3.org/2000/svg" width="22" height="13" viewBox="0 0 22 13"><g><g><path fill="#667384" d="M21.885 11.657a1.44 1.44 0 0 0-.074-.142c-.38-.687-1.105-1.529-2.175-2.527l-.022-.023-.012-.01-.011-.012h-.011c-.486-.465-.794-.778-.922-.937-.236-.305-.289-.613-.16-.927.09-.235.433-.734 1.024-1.496.312-.404.558-.728.74-.971 1.313-1.753 1.882-2.872 1.708-3.36l-.068-.115c-.045-.068-.163-.13-.353-.188-.19-.056-.432-.067-.728-.027l-3.279.022a.422.422 0 0 0-.228.005l-.147.035-.058.028-.045.035a.486.486 0 0 0-.125.12.788.788 0 0 0-.114.2 18.685 18.685 0 0 1-1.218 2.57c-.28.473-.539.883-.774 1.23a5.942 5.942 0 0 1-.592.766c-.16.162-.303.294-.433.394-.129.098-.227.14-.295.125a5.136 5.136 0 0 1-.194-.046.751.751 0 0 1-.256-.28 1.258 1.258 0 0 1-.131-.446 4.962 4.962 0 0 1-.04-.462 9.745 9.745 0 0 1 .006-.549c.008-.237.011-.396.011-.48 0-.29.006-.604.017-.943l.029-.806c.008-.197.011-.406.011-.628 0-.221-.013-.394-.04-.52a1.784 1.784 0 0 0-.119-.366.616.616 0 0 0-.233-.274 1.288 1.288 0 0 0-.382-.154c-.402-.092-.914-.14-1.537-.149-1.411-.015-2.318.077-2.72.274-.16.084-.304.198-.433.343-.136.169-.155.26-.057.275.456.068.778.232.968.49l.068.138c.053.099.106.275.16.526.053.251.087.53.102.833a8.939 8.939 0 0 1 0 1.43c-.038.395-.074.705-.108.925a1.865 1.865 0 0 1-.29.788.19.19 0 0 1-.057.058.858.858 0 0 1-.308.056c-.106 0-.235-.053-.387-.159a2.759 2.759 0 0 1-.472-.44 5.894 5.894 0 0 1-.552-.783c-.205-.336-.418-.731-.638-1.189l-.182-.33c-.114-.214-.27-.524-.467-.932A18.092 18.092 0 0 1 4.76 1.47a.752.752 0 0 0-.273-.366l-.057-.034a.774.774 0 0 0-.182-.097 1.259 1.259 0 0 0-.262-.075L.865.92c-.318 0-.534.073-.648.217l-.046.07a.371.371 0 0 0-.034.182c0 .084.023.187.068.308.456 1.075.95 2.111 1.486 3.109.535.997 1 1.802 1.394 2.41.395.61.797 1.186 1.207 1.726.41.541.68.888.814 1.04a7.3 7.3 0 0 0 .313.344l.285.273c.182.183.449.402.802.658.353.255.744.506 1.173.754.428.248.927.449 1.497.606a5.15 5.15 0 0 0 1.661.188h1.31c.265-.023.466-.106.603-.251l.045-.058a.754.754 0 0 0 .086-.21c.026-.096.04-.2.04-.314a3.776 3.776 0 0 1 .073-.886 2.31 2.31 0 0 1 .194-.594 1.445 1.445 0 0 1 .438-.503.747.747 0 0 1 .091-.04c.182-.062.397-.002.644.177.246.18.478.4.694.663.216.262.476.558.78.885.303.328.569.572.797.731l.227.138c.152.091.35.175.592.251.243.076.455.096.638.058l2.914-.047c.288 0 .512-.048.671-.142.16-.096.254-.2.285-.314a.889.889 0 0 0 .006-.389 1.443 1.443 0 0 0-.08-.303z"/></g></g></svg>