<svg xmlns="http://www.w3.org/2000/svg" width="18" height="18" viewBox="0 0 18 18"><g><g><path fill="#667384" d="M12.347 18H5.612C2.513 18 0 15.481 0 12.375v-6.75C0 2.519 2.513 0 5.612 0h6.735c3.099 0 5.612 2.519 5.612 5.625v6.75c0 3.106-2.513 5.625-5.612 5.625zm3.928-12.375a3.937 3.937 0 0 0-3.928-3.938H5.612a3.937 3.937 0 0 0-3.928 3.938v6.75a3.938 3.938 0 0 0 3.928 3.938h6.735a3.938 3.938 0 0 0 3.928-3.938zm-2.47-.863a.598.598 0 1 1 .001-1.197.598.598 0 0 1 0 1.197zM8.98 13.499A4.495 4.495 0 0 1 4.49 9c0-2.486 2.011-4.5 4.49-4.5 2.48 0 4.49 2.014 4.49 4.5 0 2.485-2.01 4.5-4.49 4.5zm0-7.312a2.813 2.813 0 0 0 0 5.626 2.813 2.813 0 0 0 0-5.626z"/></g></g></svg>