<svg xmlns="http://www.w3.org/2000/svg" width="170" height="15" viewBox="0 0 170 15"><g><g><path fill="#fff" d="M16.196.008L9.782 15.004h-3.39L.003.008h3.705l4.508 10.711L12.785.008zm21.251 14.996l-2.858-4.178h-3.153v4.178h-3.43V.008h6.414c1.312 0 2.452.221 3.42.663.965.443 1.71 1.072 2.232 1.886.521.813.783 1.777.783 2.892 0 1.113-.265 2.074-.794 2.881-.529.807-1.281 1.424-2.255 1.853l3.325 4.82zM36.58 3.509c-.537-.45-1.32-.674-2.349-.674h-2.794v5.228h2.794c1.03 0 1.812-.23 2.35-.686.535-.458.804-1.1.804-1.928 0-.843-.27-1.489-.805-1.94zm31.052 11.495l-.02-8.998-4.36 7.412h-1.547L57.365 6.2v8.805h-3.217V.008h2.836l5.547 9.319 5.46-9.32h2.816l.041 14.997zm28.787-2.786v2.786H84.946V.008h11.198v2.784h-7.79v3.256h6.879v2.7h-6.88v3.47zM109.734.008h6.731c1.609 0 3.03.31 4.265.93 1.235.623 2.195 1.497 2.88 2.625.683 1.128 1.026 2.443 1.026 3.942 0 1.5-.343 2.814-1.027 3.942-.684 1.129-1.644 2.003-2.879 2.624-1.234.622-2.656.933-4.265.933h-6.73zm6.562 12.146c1.481 0 2.664-.417 3.545-1.254.882-.835 1.324-1.966 1.324-3.395 0-1.427-.442-2.56-1.324-3.395-.881-.835-2.064-1.254-3.545-1.254h-3.133v9.298zM137.802.008h3.43v14.996h-3.43zm27.285 11.781h-6.88l-1.313 3.215h-3.512L159.985.008h3.387l6.626 14.996h-3.599zm-1.08-2.634l-2.35-5.741-2.348 5.741z"/></g></g></svg>