<svg xmlns="http://www.w3.org/2000/svg" width="247" height="247" viewBox="0 0 247 247"><defs><linearGradient id="cg6pa" x1="101.85" x2="101.38" y1="433.81" y2="-241.81" gradientUnits="userSpaceOnUse"><stop offset="0" stop-color="#5f31f7"/><stop offset=".03" stop-color="#5f31f7"/><stop offset=".23" stop-color="#f62496"/><stop offset=".47" stop-color="#ef24f6"/><stop offset=".5" stop-color="#ef24f6"/><stop offset=".53" stop-color="#ef24f6"/><stop offset=".77" stop-color="#f62496"/><stop offset=".97" stop-color="#5f31f7"/><stop offset="1" stop-color="#5f31f7"/></linearGradient></defs><g><g clip-path="url(#clip-112)"><path fill="#e9eff7" d="M-246.322 123.781l440.39-364.76a3.6 3.6 0 0 1 4.592 5.544l-440.39 364.76a3.6 3.6 0 0 1-4.592-5.544zm29.59 35.724L-47.969 19.723a3.599 3.599 0 1 1 4.591 5.544L-212.14 165.049a3.599 3.599 0 1 1-4.592-5.544zM-27.027 2.378l168.764-139.782a3.599 3.599 0 1 1 4.592 5.544L-22.435 7.922a3.6 3.6 0 0 1-4.591-5.544zM159.6-152.198l63.441-52.546a3.599 3.599 0 0 1 4.592 5.543l-63.441 52.546a3.599 3.599 0 1 1-4.592-5.543zm-391.127 293.841l75.143-62.238a3.599 3.599 0 1 1 4.592 5.543l-75.144 62.239a3.599 3.599 0 1 1-4.591-5.544zM43.793-86.395l75.144-62.239a3.599 3.599 0 0 1 4.591 5.544L48.385-80.852a3.599 3.599 0 0 1-4.592-5.543zm91.774-76.013l72.68-60.198a3.599 3.599 0 0 1 4.591 5.543l-72.68 60.198a3.599 3.599 0 1 1-4.591-5.543zM-138.522 64.61l118.875-98.46a3.599 3.599 0 0 1 4.591 5.544l-118.874 98.46a3.599 3.599 0 0 1-4.592-5.544zM-.553-49.664l27.1-22.447a3.599 3.599 0 0 1 4.592 5.544L4.038-44.121a3.599 3.599 0 0 1-4.591-5.543zm-201.385 227.031l440.39-364.76a3.599 3.599 0 0 1 4.59 5.544l-440.389 364.76a3.599 3.599 0 1 1-4.591-5.544zm29.589 35.724L-3.585 73.31a3.599 3.599 0 1 1 4.592 5.544l-168.765 139.782a3.6 3.6 0 0 1-4.591-5.544zM17.357 55.964L186.122-83.818a3.599 3.599 0 0 1 4.591 5.543L21.948 61.507a3.599 3.599 0 1 1-4.591-5.543zM203.984-98.612l63.44-52.546a3.6 3.6 0 0 1 4.592 5.543l-63.44 52.546a3.599 3.599 0 1 1-4.592-5.543zm-391.128 293.841L-112 132.991a3.599 3.599 0 1 1 4.591 5.543l-75.143 62.239a3.6 3.6 0 0 1-4.592-5.544zM88.176-32.809l75.144-62.239a3.6 3.6 0 0 1 4.592 5.543l-75.144 62.24a3.599 3.599 0 1 1-4.591-5.544zm91.774-76.013l72.68-60.198a3.6 3.6 0 0 1 4.591 5.543l-72.68 60.198a3.599 3.599 0 1 1-4.59-5.543zM-94.138 118.196l118.874-98.46a3.599 3.599 0 0 1 4.591 5.544l-118.874 98.46a3.599 3.599 0 0 1-4.591-5.544zM43.83 3.922l27.1-22.447a3.599 3.599 0 1 1 4.592 5.543l-27.1 22.447a3.6 3.6 0 0 1-4.592-5.543zm-201.385 227.031l440.39-364.76a3.6 3.6 0 0 1 4.591 5.544l-440.39 364.76a3.599 3.599 0 0 1-4.591-5.544zm29.589 35.724L40.799 126.895a3.599 3.599 0 1 1 4.591 5.543L-123.375 272.22a3.599 3.599 0 0 1-4.591-5.543zM61.74 109.55L230.505-30.232a3.599 3.599 0 1 1 4.592 5.543L66.332 115.093a3.6 3.6 0 0 1-4.592-5.543zM248.367-45.027l63.44-52.545a3.599 3.599 0 0 1 4.592 5.543l-63.44 52.546a3.599 3.599 0 1 1-4.592-5.544zM-142.76 248.815l75.143-62.239a3.599 3.599 0 1 1 4.591 5.544l-75.143 62.239a3.599 3.599 0 0 1-4.591-5.544zM132.56 20.777l75.144-62.239a3.599 3.599 0 0 1 4.591 5.543l-75.143 62.24a3.6 3.6 0 0 1-4.592-5.544zm91.774-76.013l72.68-60.198a3.599 3.599 0 0 1 4.59 5.543l-72.679 60.198a3.599 3.599 0 1 1-4.591-5.543zm-274.09 227.018L69.12 73.322a3.599 3.599 0 1 1 4.592 5.544l-118.875 98.46a3.599 3.599 0 1 1-4.591-5.544zM88.215 57.508l27.1-22.447a3.599 3.599 0 0 1 4.591 5.543l-27.1 22.447a3.599 3.599 0 0 1-4.592-5.543zm-201.386 227.031l440.39-364.76a3.599 3.599 0 1 1 4.592 5.544l-440.39 364.76a3.599 3.599 0 0 1-4.592-5.544zm29.59 35.724L85.181 180.481a3.599 3.599 0 0 1 4.591 5.543L-78.99 325.806a3.6 3.6 0 0 1-4.592-5.543zm189.706-157.127L274.888 23.354a3.599 3.599 0 0 1 4.592 5.543L110.715 168.68a3.599 3.599 0 0 1-4.591-5.543zM292.75 8.559l63.441-52.545a3.6 3.6 0 0 1 4.592 5.543l-63.441 52.546a3.599 3.599 0 1 1-4.592-5.544zM-98.377 302.401l75.143-62.239a3.599 3.599 0 1 1 4.592 5.544l-75.144 62.238a3.6 3.6 0 0 1-4.591-5.543zm275.32-228.038l75.144-62.24a3.6 3.6 0 0 1 4.591 5.544l-75.143 62.239a3.599 3.599 0 1 1-4.592-5.543zM268.717-1.65l72.68-60.198a3.6 3.6 0 0 1 4.591 5.543l-72.68 60.198a3.599 3.599 0 0 1-4.591-5.543zM-5.372 225.368l118.875-98.46a3.599 3.599 0 1 1 4.591 5.544L-.78 230.912a3.599 3.599 0 1 1-4.592-5.544zm137.968-114.274l27.101-22.447a3.599 3.599 0 0 1 4.592 5.543l-27.101 22.447a3.6 3.6 0 0 1-4.592-5.543zM-68.788 338.125l440.39-364.76a3.6 3.6 0 0 1 4.59 5.544l-440.389 364.76a3.599 3.599 0 0 1-4.591-5.544zm29.589 35.724l168.764-139.782a3.599 3.599 0 0 1 4.592 5.543L-34.608 379.392a3.599 3.599 0 0 1-4.591-5.543zm189.706-157.127L319.272 76.94a3.599 3.599 0 0 1 4.591 5.543L155.098 222.265a3.6 3.6 0 0 1-4.59-5.543zM337.134 62.145L400.574 9.6a3.599 3.599 0 1 1 4.592 5.544l-63.44 52.546a3.599 3.599 0 1 1-4.592-5.544zM-53.994 355.987l75.144-62.239a3.599 3.599 0 1 1 4.591 5.544l-75.143 62.238a3.599 3.599 0 0 1-4.592-5.543zm275.32-228.039L296.47 65.71a3.599 3.599 0 1 1 4.592 5.543l-75.144 62.239a3.6 3.6 0 0 1-4.591-5.544zM313.1 51.936l72.68-60.199a3.599 3.599 0 1 1 4.591 5.544l-72.68 60.198a3.599 3.599 0 0 1-4.59-5.543zM39.012 278.954l118.874-98.46a3.599 3.599 0 1 1 4.591 5.544l-118.874 98.46a3.599 3.599 0 0 1-4.591-5.544zM176.98 164.679l27.1-22.446a3.6 3.6 0 0 1 4.592 5.543l-27.1 22.447a3.599 3.599 0 1 1-4.592-5.544zM-24.405 391.711l440.39-364.76a3.599 3.599 0 1 1 4.591 5.544l-440.39 364.76a3.599 3.599 0 0 1-4.59-5.544zm29.589 35.724l168.765-139.782a3.599 3.599 0 0 1 4.591 5.543L9.775 432.978a3.6 3.6 0 0 1-4.591-5.543zM194.89 270.308l168.765-139.782a3.599 3.599 0 0 1 4.591 5.543L199.482 275.85a3.599 3.599 0 0 1-4.592-5.543zM381.517 115.73l63.44-52.546a3.6 3.6 0 0 1 4.592 5.544l-63.44 52.546a3.599 3.599 0 1 1-4.592-5.544zM-9.61 409.573l75.143-62.239a3.599 3.599 0 1 1 4.591 5.544l-75.143 62.238a3.6 3.6 0 0 1-4.591-5.543zm275.32-228.039l75.144-62.238a3.6 3.6 0 0 1 4.59 5.543l-75.142 62.239a3.599 3.599 0 1 1-4.592-5.544zm91.774-76.012l72.68-60.199a3.6 3.6 0 0 1 4.59 5.544l-72.679 60.198a3.599 3.599 0 0 1-4.591-5.543zM83.394 332.54l118.875-98.46a3.599 3.599 0 1 1 4.592 5.543l-118.875 98.46a3.599 3.599 0 1 1-4.591-5.543zm137.97-114.275l27.1-22.446a3.599 3.599 0 0 1 4.591 5.543l-27.1 22.447a3.599 3.599 0 0 1-4.592-5.544z"/><path fill="url(#cg6pa)" d="M-246.322 123.781l440.39-364.76a3.6 3.6 0 0 1 4.592 5.544l-440.39 364.76a3.6 3.6 0 0 1-4.592-5.544zm29.59 35.724L-47.969 19.723a3.599 3.599 0 1 1 4.591 5.544L-212.14 165.049a3.599 3.599 0 1 1-4.592-5.544zM-27.027 2.378l168.764-139.782a3.599 3.599 0 1 1 4.592 5.544L-22.435 7.922a3.6 3.6 0 0 1-4.591-5.544zM159.6-152.198l63.441-52.546a3.599 3.599 0 0 1 4.592 5.543l-63.441 52.546a3.599 3.599 0 1 1-4.592-5.543zm-391.127 293.841l75.143-62.238a3.599 3.599 0 1 1 4.592 5.543l-75.144 62.239a3.599 3.599 0 1 1-4.591-5.544zM43.793-86.395l75.144-62.239a3.599 3.599 0 0 1 4.591 5.544L48.385-80.852a3.599 3.599 0 0 1-4.592-5.543zm91.774-76.013l72.68-60.198a3.599 3.599 0 0 1 4.591 5.543l-72.68 60.198a3.599 3.599 0 1 1-4.591-5.543zM-138.522 64.61l118.875-98.46a3.599 3.599 0 0 1 4.591 5.544l-118.874 98.46a3.599 3.599 0 0 1-4.592-5.544zM-.553-49.664l27.1-22.447a3.599 3.599 0 0 1 4.592 5.544L4.038-44.121a3.599 3.599 0 0 1-4.591-5.543zm-201.385 227.031l440.39-364.76a3.599 3.599 0 0 1 4.59 5.544l-440.389 364.76a3.599 3.599 0 1 1-4.591-5.544zm29.589 35.724L-3.585 73.31a3.599 3.599 0 1 1 4.592 5.544l-168.765 139.782a3.6 3.6 0 0 1-4.591-5.544zM17.357 55.964L186.122-83.818a3.599 3.599 0 0 1 4.591 5.543L21.948 61.507a3.599 3.599 0 1 1-4.591-5.543zM203.984-98.612l63.44-52.546a3.6 3.6 0 0 1 4.592 5.543l-63.44 52.546a3.599 3.599 0 1 1-4.592-5.543zm-391.128 293.841L-112 132.991a3.599 3.599 0 1 1 4.591 5.543l-75.143 62.239a3.6 3.6 0 0 1-4.592-5.544zM88.176-32.809l75.144-62.239a3.6 3.6 0 0 1 4.592 5.543l-75.144 62.24a3.599 3.599 0 1 1-4.591-5.544zm91.774-76.013l72.68-60.198a3.6 3.6 0 0 1 4.591 5.543l-72.68 60.198a3.599 3.599 0 1 1-4.59-5.543zM-94.138 118.196l118.874-98.46a3.599 3.599 0 0 1 4.591 5.544l-118.874 98.46a3.599 3.599 0 0 1-4.591-5.544zM43.83 3.922l27.1-22.447a3.599 3.599 0 1 1 4.592 5.543l-27.1 22.447a3.6 3.6 0 0 1-4.592-5.543zm-201.385 227.031l440.39-364.76a3.6 3.6 0 0 1 4.591 5.544l-440.39 364.76a3.599 3.599 0 0 1-4.591-5.544zm29.589 35.724L40.799 126.895a3.599 3.599 0 1 1 4.591 5.543L-123.375 272.22a3.599 3.599 0 0 1-4.591-5.543zM61.74 109.55L230.505-30.232a3.599 3.599 0 1 1 4.592 5.543L66.332 115.093a3.6 3.6 0 0 1-4.592-5.543zM248.367-45.027l63.44-52.545a3.599 3.599 0 0 1 4.592 5.543l-63.44 52.546a3.599 3.599 0 1 1-4.592-5.544zM-142.76 248.815l75.143-62.239a3.599 3.599 0 1 1 4.591 5.544l-75.143 62.239a3.599 3.599 0 0 1-4.591-5.544zM132.56 20.777l75.144-62.239a3.599 3.599 0 0 1 4.591 5.543l-75.143 62.24a3.6 3.6 0 0 1-4.592-5.544zm91.774-76.013l72.68-60.198a3.599 3.599 0 0 1 4.59 5.543l-72.679 60.198a3.599 3.599 0 1 1-4.591-5.543zm-274.09 227.018L69.12 73.322a3.599 3.599 0 1 1 4.592 5.544l-118.875 98.46a3.599 3.599 0 1 1-4.591-5.544zM88.215 57.508l27.1-22.447a3.599 3.599 0 0 1 4.591 5.543l-27.1 22.447a3.599 3.599 0 0 1-4.592-5.543zm-201.386 227.031l440.39-364.76a3.599 3.599 0 1 1 4.592 5.544l-440.39 364.76a3.599 3.599 0 0 1-4.592-5.544zm29.59 35.724L85.181 180.481a3.599 3.599 0 0 1 4.591 5.543L-78.99 325.806a3.6 3.6 0 0 1-4.592-5.543zm189.706-157.127L274.888 23.354a3.599 3.599 0 0 1 4.592 5.543L110.715 168.68a3.599 3.599 0 0 1-4.591-5.543zM292.75 8.559l63.441-52.545a3.6 3.6 0 0 1 4.592 5.543l-63.441 52.546a3.599 3.599 0 1 1-4.592-5.544zM-98.377 302.401l75.143-62.239a3.599 3.599 0 1 1 4.592 5.544l-75.144 62.238a3.6 3.6 0 0 1-4.591-5.543zm275.32-228.038l75.144-62.24a3.6 3.6 0 0 1 4.591 5.544l-75.143 62.239a3.599 3.599 0 1 1-4.592-5.543zM268.717-1.65l72.68-60.198a3.6 3.6 0 0 1 4.591 5.543l-72.68 60.198a3.599 3.599 0 0 1-4.591-5.543zM-5.372 225.368l118.875-98.46a3.599 3.599 0 1 1 4.591 5.544L-.78 230.912a3.599 3.599 0 1 1-4.592-5.544zm137.968-114.274l27.101-22.447a3.599 3.599 0 0 1 4.592 5.543l-27.101 22.447a3.6 3.6 0 0 1-4.592-5.543zM-68.788 338.125l440.39-364.76a3.6 3.6 0 0 1 4.59 5.544l-440.389 364.76a3.599 3.599 0 0 1-4.591-5.544zm29.589 35.724l168.764-139.782a3.599 3.599 0 0 1 4.592 5.543L-34.608 379.392a3.599 3.599 0 0 1-4.591-5.543zm189.706-157.127L319.272 76.94a3.599 3.599 0 0 1 4.591 5.543L155.098 222.265a3.6 3.6 0 0 1-4.59-5.543zM337.134 62.145L400.574 9.6a3.599 3.599 0 1 1 4.592 5.544l-63.44 52.546a3.599 3.599 0 1 1-4.592-5.544zM-53.994 355.987l75.144-62.239a3.599 3.599 0 1 1 4.591 5.544l-75.143 62.238a3.599 3.599 0 0 1-4.592-5.543zm275.32-228.039L296.47 65.71a3.599 3.599 0 1 1 4.592 5.543l-75.144 62.239a3.6 3.6 0 0 1-4.591-5.544zM313.1 51.936l72.68-60.199a3.599 3.599 0 1 1 4.591 5.544l-72.68 60.198a3.599 3.599 0 0 1-4.59-5.543zM39.012 278.954l118.874-98.46a3.599 3.599 0 1 1 4.591 5.544l-118.874 98.46a3.599 3.599 0 0 1-4.591-5.544zM176.98 164.679l27.1-22.446a3.6 3.6 0 0 1 4.592 5.543l-27.1 22.447a3.599 3.599 0 1 1-4.592-5.544zM-24.405 391.711l440.39-364.76a3.599 3.599 0 1 1 4.591 5.544l-440.39 364.76a3.599 3.599 0 0 1-4.59-5.544zm29.589 35.724l168.765-139.782a3.599 3.599 0 0 1 4.591 5.543L9.775 432.978a3.6 3.6 0 0 1-4.591-5.543zM194.89 270.308l168.765-139.782a3.599 3.599 0 0 1 4.591 5.543L199.482 275.85a3.599 3.599 0 0 1-4.592-5.543zM381.517 115.73l63.44-52.546a3.6 3.6 0 0 1 4.592 5.544l-63.44 52.546a3.599 3.599 0 1 1-4.592-5.544zM-9.61 409.573l75.143-62.239a3.599 3.599 0 1 1 4.591 5.544l-75.143 62.238a3.6 3.6 0 0 1-4.591-5.543zm275.32-228.039l75.144-62.238a3.6 3.6 0 0 1 4.59 5.543l-75.142 62.239a3.599 3.599 0 1 1-4.592-5.544zm91.774-76.012l72.68-60.199a3.6 3.6 0 0 1 4.59 5.544l-72.679 60.198a3.599 3.599 0 0 1-4.591-5.543zM83.394 332.54l118.875-98.46a3.599 3.599 0 1 1 4.592 5.543l-118.875 98.46a3.599 3.599 0 1 1-4.591-5.543zm137.97-114.275l27.1-22.446a3.599 3.599 0 0 1 4.591 5.543l-27.1 22.447a3.599 3.599 0 0 1-4.592-5.544z"/></g></g></svg>