<svg xmlns="http://www.w3.org/2000/svg" width="251" height="338" viewBox="0 0 251 338"><g><g clip-path="url(#clip-266)"><path fill="#131923" d="M463.99 160.01v32.979a23.142 23.142 0 0 1-19.349 22.874l-26.32 4.387c-2.664 8.774-6.267 17.313-10.575 25.538l15.51 21.778c6.58 9.243 5.483 21.856-2.507 29.846l-23.344 23.344c-4.386 4.387-10.183 6.816-16.372 6.816-4.856 0-9.557-1.489-13.473-4.309l-21.7-15.51a148.617 148.617 0 0 1-25.536 10.575l-4.466 26.321A23.141 23.141 0 0 1 292.985 364h-33.058a23.141 23.141 0 0 1-22.874-19.35l-4.386-26.32c-8.539-2.665-16.842-6.033-24.754-10.185L185.9 323.812c-3.917 2.82-8.539 4.308-13.396 4.308-6.188 0-11.985-2.428-16.372-6.815L132.79 297.96c-8.069-7.99-9.087-20.602-2.507-29.846l15.432-21.464a144.957 144.957 0 0 1-10.732-25.46l-26.634-4.543A23.141 23.141 0 0 1 89 193.772v-32.98a23.141 23.141 0 0 1 19.349-22.874l26.007-4.387c2.664-8.852 6.11-17.39 10.419-25.616l-15.667-22.013c-6.58-9.243-5.484-21.856 2.506-29.846l23.423-23.344c4.308-4.387 10.183-6.816 16.372-6.816 4.856 0 9.557 1.489 13.473 4.309l21.542 15.51a144.97 144.97 0 0 1 25.46-10.732l4.543-26.634a23.141 23.141 0 0 1 22.874-19.35h32.979a23.141 23.141 0 0 1 22.874 19.35l4.386 26.008c9.165 2.741 18.017 6.423 26.477 10.888l21.778-15.51c3.916-2.82 8.538-4.309 13.395-4.309 6.188 0 11.985 2.429 16.372 6.816l23.344 23.344c8.068 7.99 9.087 20.603 2.506 29.846l-15.51 21.7a148.62 148.62 0 0 1 10.575 25.537l26.32 4.466c11.203 1.88 19.35 11.515 19.193 22.874zm-20.915 32.979v-32.98c0-1.018-.706-1.88-1.724-2.037l-32.9-5.562c-4.074-.627-7.442-3.681-8.46-7.755-2.977-11.516-7.52-22.561-13.631-32.823-2.115-3.604-1.958-8.147.47-11.516l19.349-27.183c.548-.861.47-1.958-.235-2.663L382.6 47.126a2.1 2.1 0 0 0-1.488-.627c-.392 0-.784.157-1.175.391L352.91 66.318c-3.447 2.429-7.912 2.585-11.515.47a127.142 127.142 0 0 0-33.606-13.787c-4.073-1.019-7.128-4.387-7.834-8.539l-5.483-32.667c-.157-1.018-1.018-1.723-2.037-1.723h-32.979c-1.018 0-1.88.705-2.036 1.723l-5.64 33.137c-.706 4.074-3.76 7.364-7.756 8.46-11.515 2.977-22.56 7.677-32.744 13.788a10.724 10.724 0 0 1-11.593-.47l-27.026-19.271a1.923 1.923 0 0 0-1.175-.392c-.392 0-.94.079-1.488.627l-23.344 23.344c-.705.705-.784 1.88-.235 2.664l19.505 27.418a10.46 10.46 0 0 1 .549 11.437c-6.032 10.262-10.497 21.386-13.396 32.901-1.018 4.074-4.386 7.129-8.538 7.834l-32.666 5.484c-1.018.156-1.723 1.018-1.723 2.036v32.98c0 1.019.705 1.88 1.723 2.037l33.136 5.64c4.073.705 7.363 3.76 8.46 7.756 2.977 11.515 7.677 22.56 13.787 32.745a10.725 10.725 0 0 1-.47 11.593l-19.27 27.026c-.549.862-.47 1.959.235 2.664l23.343 23.345a2.099 2.099 0 0 0 1.489.626c.391 0 .783-.156 1.175-.392l27.417-19.505c1.802-1.332 3.995-1.959 6.11-1.959 1.802 0 3.682.47 5.327 1.41 10.105 5.797 20.915 10.262 32.117 13.16 3.995 1.02 7.05 4.31 7.755 8.461l5.484 32.902c.157 1.018 1.018 1.723 2.037 1.723h32.979c1.018 0 1.88-.705 2.036-1.723l5.562-32.902c.627-4.073 3.682-7.442 7.755-8.46 11.516-2.977 22.56-7.52 32.823-13.63 3.603-2.116 8.146-1.96 11.515.47l27.182 19.349c.314.234.705.391 1.175.391.392 0 .94-.078 1.489-.627l23.343-23.344c.705-.705.784-1.88.235-2.663l-19.348-27.262c-2.429-3.447-2.585-7.912-.47-11.515 6.11-10.262 10.653-21.308 13.63-32.823 1.018-3.996 4.308-7.05 8.46-7.756l32.9-5.483c1.02-.157 1.724-1.019 1.724-2.037zm-85.62-16.53c0 44.653-36.27 80.923-80.92 80.923-44.652 0-80.92-36.27-80.92-80.922 0-44.652 36.268-80.922 80.92-80.922 44.65 0 80.92 36.27 80.92 80.922zm-21.151 0c0-32.98-26.79-59.77-59.77-59.77-32.979 0-59.77 26.79-59.77 59.77 0 32.98 26.791 59.772 59.77 59.772 32.98 0 59.77-26.791 59.77-59.771z"/></g><g clip-path="url(#clip-266)"><path fill="#131923" d="M125.997 32.46v11.08a7.776 7.776 0 0 1-6.502 7.686l-8.843 1.474c-.895 2.948-2.106 5.817-3.553 8.58l5.211 7.318a7.792 7.792 0 0 1-.842 10.028l-7.844 7.844a7.726 7.726 0 0 1-5.5 2.29c-1.633 0-3.212-.5-4.528-1.447l-7.29-5.212a49.945 49.945 0 0 1-8.581 3.553l-1.5 8.844A7.775 7.775 0 0 1 68.538 101H57.432a7.775 7.775 0 0 1-7.686-6.5l-1.474-8.845a49.788 49.788 0 0 1-8.317-3.422l-7.396 5.265a7.646 7.646 0 0 1-4.501 1.447 7.725 7.725 0 0 1-5.501-2.29l-7.844-7.843c-2.71-2.685-3.053-6.923-.842-10.029l5.185-7.212a48.71 48.71 0 0 1-3.606-8.554l-8.949-1.527A7.775 7.775 0 0 1 0 43.803v-11.08a7.776 7.776 0 0 1 6.501-7.687l8.739-1.473a48.773 48.773 0 0 1 3.5-8.608L13.476 7.56a7.792 7.792 0 0 1 .842-10.028l7.87-7.844a7.682 7.682 0 0 1 5.501-2.29c1.632 0 3.211.5 4.527 1.448l7.239 5.211a48.73 48.73 0 0 1 8.554-3.606l1.526-8.949A7.775 7.775 0 0 1 57.221-25h11.08a7.775 7.775 0 0 1 7.687 6.501l1.474 8.739a49.411 49.411 0 0 1 8.896 3.658l7.317-5.211a7.646 7.646 0 0 1 4.5-1.448c2.08 0 4.028.816 5.502 2.29l7.843 7.844c2.711 2.685 3.053 6.922.843 10.028l-5.212 7.291a49.929 49.929 0 0 1 3.553 8.58l8.844 1.501c3.764.632 6.501 3.87 6.449 7.686zm-7.028 11.08V32.46a.682.682 0 0 0-.579-.685l-11.055-1.87a3.493 3.493 0 0 1-2.842-2.605c-1-3.87-2.527-7.58-4.58-11.028-.71-1.211-.658-2.738.158-3.87l6.501-9.133a.714.714 0 0 0-.079-.895L98.65-5.47a.705.705 0 0 0-.5-.21.783.783 0 0 0-.395.131L88.674.979a3.559 3.559 0 0 1-3.869.158 42.728 42.728 0 0 0-11.292-4.633 3.559 3.559 0 0 1-2.632-2.869L69.04-17.34a.682.682 0 0 0-.684-.579H57.274a.682.682 0 0 0-.685.58L54.694-6.208a3.604 3.604 0 0 1-2.605 2.843c-3.87 1-7.58 2.58-11.002 4.632a3.603 3.603 0 0 1-3.896-.158l-9.08-6.475a.646.646 0 0 0-.395-.131.669.669 0 0 0-.5.21l-7.844 7.844a.717.717 0 0 0-.079.895l6.554 9.212a3.514 3.514 0 0 1 .184 3.843c-2.027 3.448-3.527 7.186-4.5 11.055a3.559 3.559 0 0 1-2.87 2.632L7.686 32.038a.682.682 0 0 0-.58.684v11.081c0 .343.237.632.58.685l11.133 1.895a3.604 3.604 0 0 1 2.843 2.606c1 3.87 2.58 7.58 4.632 11.002a3.603 3.603 0 0 1-.158 3.895l-6.474 9.081a.714.714 0 0 0 .079.895l7.843 7.844c.184.184.395.21.5.21a.783.783 0 0 0 .395-.131l9.212-6.554a3.465 3.465 0 0 1 2.053-.658c.606 0 1.237.158 1.79.474a43.75 43.75 0 0 0 10.791 4.422 3.533 3.533 0 0 1 2.606 2.842l1.843 11.055c.052.343.342.58.684.58h11.08a.682.682 0 0 0 .685-.58l1.869-11.055a3.493 3.493 0 0 1 2.606-2.842c3.869-1 7.58-2.527 11.028-4.58 1.21-.71 2.737-.658 3.87.158l9.132 6.501a.646.646 0 0 0 .395.132.668.668 0 0 0 .5-.21l7.844-7.845a.717.717 0 0 0 .079-.894l-6.501-9.16a3.56 3.56 0 0 1-.158-3.87 42.135 42.135 0 0 0 4.58-11.028 3.534 3.534 0 0 1 2.842-2.606l11.055-1.842a.682.682 0 0 0 .579-.685zm-28.768-5.554c0 15.004-12.187 27.19-27.19 27.19-15.002 0-27.189-12.186-27.189-27.19 0-15.003 12.187-27.19 27.19-27.19 15.002 0 27.189 12.187 27.189 27.19zm-7.107 0c0-11.08-9.001-20.082-20.082-20.082-11.081 0-20.083 9.001-20.083 20.082 0 11.082 9.002 20.084 20.083 20.084 11.08 0 20.082-9.002 20.082-20.084z"/></g></g></svg>