<svg xmlns="http://www.w3.org/2000/svg" width="289" height="225" viewBox="0 0 289 225"><g><g><path fill="#dbe1e9" d="M176.5 0C238.632 0 289 50.368 289 112.5S238.632 225 176.5 225 64 174.632 64 112.5 114.368 0 176.5 0z"/></g><g><path fill="#f03382" d="M217.769 170l-9.36-15.448a3.953 3.953 0 0 0-5.485-1.312 4.07 4.07 0 0 0-1.327 5.55l13.46 22.216 38.99-23.514a4.07 4.07 0 0 0 1.404-5.53 3.955 3.955 0 0 0-5.466-1.39z"/></g><g><path fill="#a2acbb" d="M44.091 91.477v11.985c0 1.039-.845 1.88-1.888 1.88H30.164a1.885 1.885 0 0 1-1.888-1.88V91.477c0-1.038.845-1.88 1.888-1.88h12.039c1.043 0 1.888.842 1.888 1.88zm-4.313 2.414h-7.189v7.158h7.189zm26.838-2.414v11.985c0 1.039-.845 1.88-1.888 1.88H52.689a1.885 1.885 0 0 1-1.888-1.88V91.477c0-1.038.845-1.88 1.888-1.88h12.039c1.043 0 1.888.842 1.888 1.88zm-4.313 2.414h-7.189v7.158h7.189zm26.838-2.414v11.985c0 1.039-.845 1.88-1.888 1.88H75.214a1.885 1.885 0 0 1-1.888-1.88V91.477c0-1.038.845-1.88 1.888-1.88h12.039c1.043 0 1.888.842 1.888 1.88zm-4.313 2.414h-7.189v7.158h7.189zm26.838-2.414v11.985c0 1.039-.846 1.88-1.888 1.88H97.739a1.885 1.885 0 0 1-1.888-1.88V91.477c0-1.038.845-1.88 1.888-1.88h12.039c1.042 0 1.888.842 1.888 1.88zm-4.313 2.414h-7.19v7.158h7.19zm26.838-2.414v11.985c0 1.039-.846 1.88-1.889 1.88h-12.038a1.885 1.885 0 0 1-1.889-1.88V91.477c0-1.038.846-1.88 1.889-1.88h12.038c1.043 0 1.889.842 1.889 1.88zm-4.313 2.414h-7.19v7.158h7.19zm26.838-2.414v11.985c0 1.039-.846 1.88-1.889 1.88H142.79a1.885 1.885 0 0 1-1.889-1.88V91.477c0-1.038.846-1.88 1.889-1.88h12.038c1.043 0 1.889.842 1.889 1.88zm-4.313 2.414h-7.19v7.158h7.19zM44.09 113.426v11.985c0 1.04-.845 1.88-1.888 1.88H30.164a1.884 1.884 0 0 1-1.888-1.88v-11.985c0-1.04.845-1.88 1.888-1.88h12.039c1.043 0 1.888.84 1.888 1.88zm-4.313 2.414h-7.189v7.157h7.189zm26.838-2.414v11.985c0 1.04-.845 1.88-1.888 1.88H52.689a1.884 1.884 0 0 1-1.888-1.88v-11.985c0-1.04.845-1.88 1.888-1.88h12.039c1.043 0 1.888.84 1.888 1.88zm-4.313 2.414h-7.189v7.157h7.189zm26.838-2.414v11.985c0 1.04-.845 1.88-1.888 1.88H75.214a1.884 1.884 0 0 1-1.888-1.88v-11.985c0-1.04.845-1.88 1.888-1.88h12.039c1.043 0 1.888.84 1.888 1.88zm-4.313 2.414h-7.189v7.157h7.189zm26.838-2.414v11.985c0 1.04-.846 1.88-1.888 1.88H97.739a1.884 1.884 0 0 1-1.888-1.88v-11.985c0-1.04.845-1.88 1.888-1.88h12.039c1.042 0 1.888.84 1.888 1.88zm-4.313 2.414h-7.19v7.157h7.19zm26.838-2.414v11.985c0 1.04-.846 1.88-1.889 1.88h-12.038a1.884 1.884 0 0 1-1.889-1.88v-11.985c0-1.04.846-1.88 1.889-1.88h12.038c1.043 0 1.889.84 1.889 1.88zm-4.313 2.414h-7.19v7.157h7.19zm26.838-2.414v11.985c0 1.04-.846 1.88-1.889 1.88H142.79a1.884 1.884 0 0 1-1.889-1.88v-11.985c0-1.04.846-1.88 1.889-1.88h12.038c1.043 0 1.889.84 1.889 1.88zm-4.313 2.414h-7.19v7.157h7.19zM44.09 134.897v11.985c0 1.04-.845 1.88-1.888 1.88H30.164a1.884 1.884 0 0 1-1.888-1.88v-11.985c0-1.038.845-1.88 1.888-1.88h12.039c1.043 0 1.888.842 1.888 1.88zm-4.313 2.414h-7.189v7.158h7.189zm26.838-2.414v11.985c0 1.04-.845 1.88-1.888 1.88H52.689a1.884 1.884 0 0 1-1.888-1.88v-11.985c0-1.038.845-1.88 1.888-1.88h12.039c1.043 0 1.888.842 1.888 1.88zm-4.313 2.414h-7.189v7.158h7.189zm26.838-2.414v11.985c0 1.04-.845 1.88-1.888 1.88H75.214a1.884 1.884 0 0 1-1.888-1.88v-11.985c0-1.038.845-1.88 1.888-1.88h12.039c1.043 0 1.888.842 1.888 1.88zm-4.313 2.414h-7.189v7.158h7.189zm26.838-2.414v11.985c0 1.04-.846 1.88-1.888 1.88H97.739a1.884 1.884 0 0 1-1.888-1.88v-11.985c0-1.038.845-1.88 1.888-1.88h12.039c1.042 0 1.888.842 1.888 1.88zm-4.313 2.414h-7.19v7.158h7.19zm26.838-2.414v11.985c0 1.04-.846 1.88-1.889 1.88h-12.038a1.884 1.884 0 0 1-1.889-1.88v-11.985c0-1.038.846-1.88 1.889-1.88h12.038c1.043 0 1.889.842 1.889 1.88zm-4.313 2.414h-7.19v7.158h7.19zm26.838-2.414v11.985c0 1.04-.846 1.88-1.889 1.88H142.79a1.884 1.884 0 0 1-1.889-1.88v-11.985c0-1.038.846-1.88 1.889-1.88h12.038c1.043 0 1.889.842 1.889 1.88zm-4.313 2.414h-7.19v7.158h7.19zM44.09 156.846v11.985c0 1.04-.845 1.88-1.888 1.88H30.164a1.884 1.884 0 0 1-1.888-1.88v-11.985c0-1.04.845-1.88 1.888-1.88h12.039c1.043 0 1.888.84 1.888 1.88zm-4.313 2.414h-7.189v7.157h7.189zm26.838-2.414v11.985c0 1.04-.845 1.88-1.888 1.88H52.689a1.884 1.884 0 0 1-1.888-1.88v-11.985c0-1.04.845-1.88 1.888-1.88h12.039c1.043 0 1.888.84 1.888 1.88zm-4.313 2.414h-7.189v7.157h7.189zm26.838-2.414v11.985c0 1.04-.845 1.88-1.888 1.88H75.214a1.884 1.884 0 0 1-1.888-1.88v-11.985c0-1.04.845-1.88 1.888-1.88h12.039c1.043 0 1.888.84 1.888 1.88zm-4.313 2.414h-7.189v7.157h7.189zm26.838-2.414v11.985c0 1.04-.846 1.88-1.888 1.88H97.739a1.884 1.884 0 0 1-1.888-1.88v-11.985c0-1.04.845-1.88 1.888-1.88h12.039c1.042 0 1.888.84 1.888 1.88zm-4.313 2.414h-7.19v7.157h7.19zm26.838-2.414v11.985c0 1.04-.846 1.88-1.889 1.88h-12.038a1.884 1.884 0 0 1-1.889-1.88v-11.985c0-1.04.846-1.88 1.889-1.88h12.038c1.043 0 1.889.84 1.889 1.88zm-4.313 2.414h-7.19v7.157h7.19zm26.838-2.414v11.985c0 1.04-.846 1.88-1.889 1.88H142.79a1.884 1.884 0 0 1-1.889-1.88v-11.985c0-1.04.846-1.88 1.889-1.88h12.038c1.043 0 1.889.84 1.889 1.88zm-4.313 2.414h-7.19v7.157h7.19zm51.847-36.912a2.162 2.162 0 0 1 2.96.737 2.142 2.142 0 0 1-.74 2.946l-20.994 12.541-7.35-11.82a2.141 2.141 0 0 1 .698-2.956 2.161 2.161 0 0 1 2.97.695l5.11 8.22zm10.695 7.09c0 12.913-10.514 23.38-23.483 23.38-12.97 0-23.484-10.467-23.484-23.38 0-12.912 10.514-23.38 23.484-23.38 12.97 0 23.483 10.468 23.483 23.38zm-4.313 0c0-10.523-8.6-19.085-19.17-19.085-10.57 0-19.17 8.562-19.17 19.085 0 10.525 8.6 19.086 19.17 19.086 10.57 0 19.17-8.561 19.17-19.086zM231 61.86v116.55c0 9.715-7.91 17.591-17.669 17.591H17.668C7.91 196 0 188.124 0 178.41V61.858c0-9.715 7.91-17.59 17.668-17.59h20.193v-13.39c0-1.037.846-1.878 1.888-1.878h15.873c1.043 0 1.888.841 1.888 1.879v13.388h115.98V30.88c0-1.038.845-1.88 1.888-1.88h15.873c1.043 0 1.888.842 1.888 1.88v13.388h20.192c9.758 0 17.669 7.876 17.669 17.591zm-53.197-6.616h11.023V33.294h-11.023zm-135.629 0h11.023V33.294H42.174zM226.687 178.41V70.99H18.45a2.151 2.151 0 0 1-2.156-2.148c0-1.186.965-2.146 2.156-2.146h208.236v-4.836c0-7.331-5.991-13.297-13.356-13.297H193.14v9.095c0 1.038-.845 1.88-1.888 1.88h-15.873a1.884 1.884 0 0 1-1.888-1.88v-9.095H57.51v9.095c0 1.038-.845 1.88-1.888 1.88H39.749a1.884 1.884 0 0 1-1.888-1.88v-9.095H17.669c-7.365 0-13.356 5.966-13.356 13.297v116.55c0 7.332 5.991 13.297 13.356 13.297H213.33c7.365 0 13.356-5.965 13.356-13.297z"/></g></g></svg>