<?xml version="1.0" encoding="utf-8"?>
<!-- Generator: Adobe Illustrator 23.0.1, SVG Export Plug-In . SVG Version: 6.00 Build 0)  -->
<svg version="1.1" id="Слой_1" xmlns="http://www.w3.org/2000/svg" xmlns:xlink="http://www.w3.org/1999/xlink" x="0px" y="0px"
	 viewBox="0 0 584 403" style="enable-background:new 0 0 584 403;" xml:space="preserve">
<style type="text/css">
	.st0{fill-rule:evenodd;clip-rule:evenodd;fill:#CFD6E0;}
	.st1{fill-rule:evenodd;clip-rule:evenodd;fill:#F03382;}
	.st2{fill:#A2ACBB;}
</style>
<g>
	<g>
		<path class="st0" d="M555.6,83.4c-15.7,0-28.5,12.8-28.5,28.5c0,15.7,12.8,28.5,28.5,28.5c15.7,0,28.5-12.8,28.5-28.5
			C584.1,96.2,571.3,83.4,555.6,83.4z M217.5,0.5C106.2,0.5,16,90.7,16,202c0,111.3,90.2,201.5,201.5,201.5
			C328.8,403.5,419,313.3,419,202C419,90.7,328.8,0.5,217.5,0.5z"/>
	</g>
</g>
<g>
	<g>
		<path class="st1" d="M20.5,329.4c-10.9,0-19.7,8.8-19.7,19.7c0,10.9,8.8,19.7,19.7,19.7c10.9,0,19.7-8.8,19.7-19.7
			C40.2,338.2,31.4,329.4,20.5,329.4z M443.8,287.8c-30.3,0-54.8,24.5-54.8,54.8s24.5,54.8,54.8,54.8c30.3,0,54.8-24.5,54.8-54.8
			S474,287.8,443.8,287.8z"/>
	</g>
</g>
<g>
	<g>
		<path class="st2" d="M282.3,82H268v-5.4c0-9.5-7.7-17.2-17.2-17.2H84.2c-9.5,0-17.2,7.7-17.2,17.2V82H7.6c-2,0-3.7,1.6-3.7,3.7
			v203c0,0.1,0,0.1,0,0.2c0,0.2,0,0.3,0.1,0.5c0,0.1,0.1,0.2,0.1,0.3c0,0.1,0.1,0.2,0.1,0.3c0,0.1,0.1,0.2,0.2,0.3
			c0.1,0.1,0.1,0.2,0.2,0.3c0.1,0.1,0.2,0.2,0.3,0.4c0.1,0.1,0.1,0.1,0.2,0.2l22.5,22.6c0.1,0.1,0.2,0.2,0.3,0.3
			c0.1,0.1,0.1,0.1,0.2,0.2c0.1,0.1,0.3,0.2,0.5,0.3c0.1,0,0.1,0.1,0.2,0.1c0.2,0.1,0.3,0.1,0.5,0.2c0.1,0,0.1,0,0.2,0
			c0.2,0,0.5,0.1,0.7,0.1H67v14.4c0,9.5,7.7,17.2,17.2,17.2h166.6c9.5,0,17.2-7.7,17.2-17.2V163.9l16.9-17c0.7-0.7,1.1-1.6,1.1-2.6
			V85.7C286,83.7,284.4,82,282.3,82z M26.5,302.4l-10-10.1h10V302.4z M67,145.2H39.2c-2,0-3.7,1.6-3.7,3.7c0,2,1.6,3.7,3.7,3.7H67
			v19.7H39.2c-2,0-3.7,1.6-3.7,3.7c0,2,1.6,3.7,3.7,3.7H67v19.7H39.2c-2,0-3.7,1.6-3.7,3.7c0,2,1.6,3.7,3.7,3.7H67v19.7H39.2
			c-2,0-3.7,1.6-3.7,3.7c0,2,1.6,3.7,3.7,3.7H67v73.9H33.8v-18.9c0-2-1.6-3.7-3.7-3.7H11.3V89.4H67V145.2z M260.7,329.3
			c0,5.4-4.4,9.9-9.9,9.9H84.2c-5.4,0-9.9-4.4-9.9-9.9c0-5.4,4.4-9.9,9.9-9.9h0.8v9.9c0,2,1.6,3.7,3.7,3.7h157.6
			c2,0,3.7-1.6,3.7-3.7v-9.9h0.8c3.7,0,7.1-1.2,9.9-3.1V329.3z M92.4,325.6v-6.2h150.3v6.2H92.4z M260.7,302.2
			c0,5.4-4.4,9.9-9.9,9.9H84.2c-3.7,0-7.1,1.2-9.9,3.1V76.7c0-5.4,4.4-9.9,9.9-9.9h166.6c5.4,0,9.9,4.4,9.9,9.9V302.2z M278.7,142.8
			L268,153.6V89.4h10.7V142.8z M223.8,249H115.7c-2,0-3.7,1.6-3.7,3.7c0,2,1.6,3.7,3.7,3.7h108.1c2,0,3.7-1.6,3.7-3.7
			C227.5,250.7,225.8,249,223.8,249z M196.8,262.6h-54.1c-2,0-3.7,1.6-3.7,3.7c0,2,1.6,3.7,3.7,3.7h54.1c2,0,3.7-1.6,3.7-3.7
			C200.4,264.2,198.8,262.6,196.8,262.6z M129.2,188.7c9.4,0,17-7.5,17.1-16.9c0,0,0-0.1,0-0.1c0-0.1,0-0.1,0-0.2c0-0.1,0-0.1,0-0.2
			c0-0.1,0-0.3,0-0.4c0-0.1,0-0.2-0.1-0.3c0-0.1,0-0.2-0.1-0.2l-11.9-35.8h31.8v82.9h-32.4c-2,0-3.7,1.6-3.7,3.7
			c0,2,1.6,3.7,3.7,3.7h72.1c2,0,3.7-1.6,3.7-3.7c0-2-1.6-3.7-3.7-3.7h-32.4v-82.9h31.8l-11.9,35.8c0,0.1,0,0.1,0,0.2
			c0,0.1-0.1,0.3-0.1,0.4c0,0.1,0,0.2,0,0.3c0,0.1,0,0.2,0,0.3c0,0.1,0,0.2,0,0.3c0,0,0,0,0,0c0.2,9.4,7.8,16.9,17.1,16.9
			c9.4,0,17-7.5,17.1-16.9c0,0,0-0.1,0-0.1c0-0.1,0-0.1,0-0.2c0-0.1,0-0.1,0-0.2c0-0.1,0-0.3,0-0.4c0-0.1,0-0.2-0.1-0.3
			c0-0.1,0-0.2-0.1-0.2l-13.5-40.6c0-0.1-0.1-0.1-0.1-0.2c0-0.1,0-0.1-0.1-0.2c0,0,0,0,0-0.1c0,0,0,0,0-0.1
			c-0.1-0.1-0.1-0.2-0.2-0.3c0,0,0-0.1-0.1-0.1c0,0-0.1-0.1-0.1-0.1c0,0,0,0,0,0c-0.1-0.2-0.3-0.3-0.4-0.4c0,0-0.1-0.1-0.1-0.1
			c-0.1-0.1-0.2-0.2-0.3-0.2c0,0,0,0,0,0c0,0-0.1,0-0.1-0.1c0,0-0.1-0.1-0.1-0.1c-0.1-0.1-0.2-0.1-0.3-0.2c0,0-0.1,0-0.1,0
			c-0.2-0.1-0.4-0.1-0.6-0.2c0,0,0,0-0.1,0c-0.2,0-0.4-0.1-0.6-0.1c0,0-0.1,0-0.1,0c0,0-0.1,0-0.1,0h-36.8v-9.9c0-2-1.6-3.7-3.7-3.7
			c-2,0-3.7,1.6-3.7,3.7v9.9h-36.8c0,0-0.1,0-0.1,0c-0.2,0-0.5,0-0.7,0.1c0,0,0,0,0,0c-0.2,0-0.4,0.1-0.6,0.2c0,0-0.1,0-0.1,0
			c-0.1,0-0.2,0.1-0.3,0.2c0,0-0.1,0-0.1,0.1c0,0-0.1,0-0.1,0.1c0,0,0,0,0,0c-0.1,0.1-0.2,0.1-0.3,0.2c0,0-0.1,0.1-0.1,0.1
			c-0.1,0.1-0.3,0.3-0.4,0.4c0,0,0,0-0.1,0.1c0,0-0.1,0.1-0.1,0.1c0,0.1-0.1,0.1-0.1,0.2c0,0.1-0.1,0.2-0.1,0.2c0,0,0,0.1,0,0.1
			c0,0.1-0.1,0.2-0.1,0.3c0,0,0,0.1-0.1,0.1l-13.5,40.6c0,0.1,0,0.1,0,0.2c0,0.1-0.1,0.3-0.1,0.4c0,0.1,0,0.2,0,0.3
			c0,0.1,0,0.2,0,0.3C112,181,119.7,188.7,129.2,188.7z M210.3,181.4c-4.1,0-7.7-2.6-9.1-6.2h18.3
			C217.9,178.8,214.4,181.4,210.3,181.4z M210.3,142.5l8.4,25.4h-16.9L210.3,142.5z M129.2,142.5l8.4,25.4h-16.9L129.2,142.5z
			 M138.4,175.2c-1.5,3.6-5,6.2-9.1,6.2s-7.7-2.6-9.1-6.2H138.4z"/>
	</g>
</g>
</svg>
