<svg xmlns="http://www.w3.org/2000/svg" width="102" height="9" viewBox="0 0 102 9"><g><g><path fill="#fff" d="M9.717.005L5.87 9.002H3.836L0 .005h2.223l2.705 6.427L7.671.005zm12.751 8.997l-1.714-2.507H18.86v2.507h-2.057V.005h3.848c.787 0 1.471.132 2.051.398.58.265 1.027.643 1.34 1.132.313.487.47 1.066.47 1.734 0 .668-.159 1.245-.477 1.729-.317.484-.768.855-1.352 1.112l1.994 2.892zm-.52-6.896c-.323-.27-.792-.405-1.41-.405h-1.677v3.137h1.677c.618 0 1.087-.138 1.41-.412.321-.275.482-.66.482-1.157 0-.505-.161-.893-.482-1.163zm18.63 6.896l-.012-5.399-2.616 4.448h-.927l-2.604-4.332v5.283h-1.93V.005h1.701l3.328 5.59 3.277-5.59h1.69l.024 8.997zm17.273-1.67v1.67h-6.883V.005h6.718v1.67h-4.674v1.954h4.128v1.62h-4.128V7.33zm7.99-7.327h4.038c.965 0 1.818.185 2.56.558.74.374 1.316.898 1.726 1.575.41.677.617 1.465.617 2.365 0 .9-.206 1.688-.617 2.366a4.159 4.159 0 0 1-1.727 1.574c-.74.373-1.594.56-2.559.56H65.84zm3.937 7.288c.888 0 1.598-.25 2.127-.753.529-.5.794-1.18.794-2.037 0-.856-.265-1.536-.794-2.037-.53-.501-1.239-.752-2.127-.752h-1.88v5.579zM82.68.005h2.058v8.997H82.68zm16.371 7.069h-4.127l-.788 1.928h-2.108L95.991.005h2.032l3.976 8.997h-2.16zm-.648-1.581l-1.41-3.445-1.409 3.445z"/></g></g></svg>