<svg xmlns="http://www.w3.org/2000/svg" width="84" height="84" viewBox="0 0 84 84"><defs><linearGradient id="ex10a" x1="35" x2="35" y1="147" y2="-82" gradientUnits="userSpaceOnUse"><stop offset="0" stop-color="#5f31f7"/><stop offset=".03" stop-color="#5f31f7"/><stop offset=".23" stop-color="#f62496"/><stop offset=".47" stop-color="#ef24f6"/><stop offset=".5" stop-color="#ef24f6"/><stop offset=".53" stop-color="#ef24f6"/><stop offset=".77" stop-color="#f62496"/><stop offset=".97" stop-color="#5f31f7"/><stop offset="1" stop-color="#5f31f7"/></linearGradient></defs><g><g clip-path="url(#clip-60)"><path fill="#e9eff7" d="M-82.56 41.916L66.24-81.717a1.214 1.214 0 0 1 1.712.161 1.223 1.223 0 0 1-.16 1.718l-148.8 123.633a1.214 1.214 0 0 1-1.712-.161 1.222 1.222 0 0 1 .16-1.718zm9.998 12.109L-15.54 6.647a1.213 1.213 0 0 1 1.712.16 1.223 1.223 0 0 1-.161 1.718l-57.023 47.379a1.214 1.214 0 0 1-1.712-.162 1.223 1.223 0 0 1 .16-1.717zM-8.464.767L48.56-46.61a1.213 1.213 0 0 1 1.712.161 1.223 1.223 0 0 1-.16 1.718L-6.913 2.646a1.214 1.214 0 0 1-1.713-.161A1.223 1.223 0 0 1-8.464.767zm63.058-52.393l21.436-17.81a1.214 1.214 0 0 1 1.712.161 1.223 1.223 0 0 1-.161 1.718l-21.436 17.81a1.214 1.214 0 0 1-1.712-.161 1.222 1.222 0 0 1 .161-1.718zM-77.56 47.971l25.39-21.096a1.214 1.214 0 0 1 1.712.161 1.223 1.223 0 0 1-.16 1.718L-76.01 49.85a1.214 1.214 0 0 1-1.713-.162 1.222 1.222 0 0 1 .161-1.717zm93.026-77.293l25.39-21.095a1.213 1.213 0 0 1 1.712.161 1.223 1.223 0 0 1-.161 1.718l-25.39 21.095a1.213 1.213 0 0 1-1.712-.162 1.223 1.223 0 0 1 .161-1.717zm31.009-25.764L71.03-75.49a1.214 1.214 0 0 1 1.712.161 1.223 1.223 0 0 1-.16 1.718L48.024-53.207a1.214 1.214 0 0 1-1.712-.161 1.223 1.223 0 0 1 .16-1.718zm-92.61 76.946L-5.97-11.512a1.214 1.214 0 0 1 1.712.162 1.223 1.223 0 0 1-.161 1.717L-44.585 23.74a1.213 1.213 0 0 1-1.712-.161 1.223 1.223 0 0 1 .161-1.718zM.481-16.872l9.157-7.609a1.214 1.214 0 0 1 1.712.162 1.222 1.222 0 0 1-.16 1.717l-9.158 7.609a1.214 1.214 0 0 1-1.712-.162 1.223 1.223 0 0 1 .161-1.717zm-68.044 76.951l148.8-123.634a1.214 1.214 0 0 1 1.712.162 1.223 1.223 0 0 1-.161 1.717l-148.8 123.634a1.214 1.214 0 0 1-1.712-.161 1.223 1.223 0 0 1 .16-1.718zm9.997 12.109L-.543 24.809a1.213 1.213 0 0 1 1.712.162 1.223 1.223 0 0 1-.16 1.717l-57.023 47.379a1.214 1.214 0 0 1-1.713-.162 1.223 1.223 0 0 1 .161-1.717zM6.533 18.93l57.022-47.378a1.213 1.213 0 0 1 1.712.161 1.222 1.222 0 0 1-.16 1.717L8.084 20.81a1.214 1.214 0 0 1-1.712-.162 1.222 1.222 0 0 1 .16-1.718zM69.59-33.463l21.436-17.81a1.214 1.214 0 0 1 1.712.161 1.223 1.223 0 0 1-.16 1.718l-21.436 17.81a1.214 1.214 0 0 1-1.712-.161 1.222 1.222 0 0 1 .16-1.718zM-62.564 66.133l25.39-21.095a1.214 1.214 0 0 1 1.711.161 1.222 1.222 0 0 1-.16 1.718l-25.39 21.095a1.214 1.214 0 0 1-1.712-.161 1.223 1.223 0 0 1 .16-1.718zM30.46-11.159l25.39-21.096a1.213 1.213 0 0 1 1.712.162 1.222 1.222 0 0 1-.16 1.717L32.012-9.28a1.214 1.214 0 0 1-1.712-.162 1.223 1.223 0 0 1 .16-1.717zM61.47-36.923l24.557-20.404a1.214 1.214 0 0 1 1.712.161 1.223 1.223 0 0 1-.16 1.718L63.02-35.044a1.214 1.214 0 0 1-1.712-.162 1.222 1.222 0 0 1 .161-1.717zm-92.61 76.946L9.026 6.651a1.214 1.214 0 0 1 1.712.161 1.223 1.223 0 0 1-.16 1.718l-40.166 33.372a1.213 1.213 0 0 1-1.712-.161 1.223 1.223 0 0 1 .16-1.718zM15.477 1.291l9.157-7.609a1.214 1.214 0 0 1 1.712.162 1.223 1.223 0 0 1-.16 1.717L17.029 3.17a1.214 1.214 0 0 1-1.712-.16 1.222 1.222 0 0 1 .16-1.718zm-68.044 76.95l148.8-123.633a1.214 1.214 0 0 1 1.712.162 1.223 1.223 0 0 1-.16 1.717l-148.8 123.634a1.214 1.214 0 0 1-1.713-.161 1.222 1.222 0 0 1 .161-1.718zm9.998 12.11l57.022-47.38a1.214 1.214 0 0 1 1.712.162c.429.52.357 1.288-.16 1.717l-57.023 47.38a1.214 1.214 0 0 1-1.712-.162 1.222 1.222 0 0 1 .16-1.718zm64.098-53.258l57.023-47.379a1.214 1.214 0 0 1 1.712.161c.428.52.356 1.288-.161 1.718L23.08 38.97a1.213 1.213 0 0 1-1.712-.16 1.222 1.222 0 0 1 .161-1.718zM84.587-15.3l21.435-17.81a1.213 1.213 0 0 1 1.712.161 1.223 1.223 0 0 1-.16 1.718l-21.436 17.81a1.213 1.213 0 0 1-1.712-.162 1.222 1.222 0 0 1 .16-1.717zM-47.568 84.296l25.39-21.096a1.214 1.214 0 0 1 1.712.162 1.223 1.223 0 0 1-.161 1.717l-25.39 21.096a1.214 1.214 0 0 1-1.712-.161 1.222 1.222 0 0 1 .16-1.718zM45.458 7.003l25.39-21.095a1.214 1.214 0 0 1 1.711.161c.429.52.357 1.288-.16 1.718L47.009 8.882a1.214 1.214 0 0 1-1.712-.161 1.223 1.223 0 0 1 .16-1.718zM76.466-18.76l24.557-20.404a1.214 1.214 0 0 1 1.713.162 1.223 1.223 0 0 1-.161 1.717L78.018-16.882a1.213 1.213 0 0 1-1.712-.161 1.223 1.223 0 0 1 .16-1.718zm-92.61 76.947l40.166-33.372a1.213 1.213 0 0 1 1.712.161 1.223 1.223 0 0 1-.16 1.718l-40.166 33.372a1.214 1.214 0 0 1-1.712-.162 1.222 1.222 0 0 1 .16-1.717zm46.618-38.733l9.157-7.608a1.214 1.214 0 0 1 1.712.161 1.222 1.222 0 0 1-.161 1.718l-9.157 7.608a1.214 1.214 0 0 1-1.712-.161 1.223 1.223 0 0 1 .16-1.718zm-68.045 76.952L111.23-27.23a1.213 1.213 0 0 1 1.712.161 1.223 1.223 0 0 1-.16 1.718L-36.02 98.283a1.213 1.213 0 0 1-1.712-.16 1.222 1.222 0 0 1 .16-1.718zm9.998 12.108L29.45 61.134a1.214 1.214 0 0 1 1.712.162A1.222 1.222 0 0 1 31 63.013l-57.023 47.379a1.213 1.213 0 0 1-1.712-.162 1.223 1.223 0 0 1 .161-1.717zm64.098-53.258L93.548 7.877a1.214 1.214 0 0 1 1.712.161 1.223 1.223 0 0 1-.16 1.718L38.076 57.134a1.213 1.213 0 0 1-1.713-.161 1.223 1.223 0 0 1 .161-1.718zM99.583 2.862l21.436-17.81a1.213 1.213 0 0 1 1.712.162 1.223 1.223 0 0 1-.161 1.717l-21.436 17.81a1.213 1.213 0 0 1-1.712-.161 1.223 1.223 0 0 1 .161-1.718zM-32.572 102.46l25.39-21.096a1.214 1.214 0 0 1 1.712.162 1.223 1.223 0 0 1-.16 1.717l-25.39 21.095a1.213 1.213 0 0 1-1.713-.161 1.222 1.222 0 0 1 .161-1.717zm93.026-77.293L85.844 4.07a1.214 1.214 0 0 1 1.712.162 1.223 1.223 0 0 1-.161 1.717l-25.39 21.096a1.214 1.214 0 0 1-1.712-.161 1.222 1.222 0 0 1 .161-1.718zM91.463-.598l24.557-20.404a1.213 1.213 0 0 1 1.712.162 1.223 1.223 0 0 1-.16 1.717L93.013 1.281a1.213 1.213 0 0 1-1.712-.162 1.223 1.223 0 0 1 .16-1.717zm-92.61 76.947l40.166-33.373a1.213 1.213 0 0 1 1.712.162 1.223 1.223 0 0 1-.161 1.717L.404 78.228a1.214 1.214 0 0 1-1.712-.162 1.223 1.223 0 0 1 .161-1.717zM45.47 37.616l9.157-7.608a1.213 1.213 0 0 1 1.712.161 1.223 1.223 0 0 1-.16 1.718l-9.158 7.608a1.214 1.214 0 0 1-1.712-.161 1.222 1.222 0 0 1 .161-1.718zm-68.044 76.95l148.8-123.632a1.213 1.213 0 0 1 1.712.161 1.223 1.223 0 0 1-.161 1.718l-148.8 123.633a1.213 1.213 0 0 1-1.712-.161 1.223 1.223 0 0 1 .16-1.718zm9.997 12.11l57.023-47.379a1.214 1.214 0 0 1 1.712.161 1.223 1.223 0 0 1-.16 1.718l-57.023 47.378a1.213 1.213 0 0 1-1.713-.161 1.223 1.223 0 0 1 .161-1.718zm64.099-53.258l57.022-47.378a1.214 1.214 0 0 1 1.712.16 1.223 1.223 0 0 1-.16 1.718L53.073 75.297a1.213 1.213 0 0 1-1.712-.161 1.223 1.223 0 0 1 .16-1.718zm63.057-52.393l21.436-17.81a1.213 1.213 0 0 1 1.712.162 1.222 1.222 0 0 1-.16 1.717l-21.436 17.81a1.213 1.213 0 0 1-1.712-.161 1.223 1.223 0 0 1 .16-1.718zm-132.155 99.596l25.39-21.095a1.213 1.213 0 0 1 1.712.161 1.223 1.223 0 0 1-.16 1.718l-25.39 21.095a1.213 1.213 0 0 1-1.712-.161 1.223 1.223 0 0 1 .16-1.718zM75.45 43.33l25.39-21.096a1.214 1.214 0 0 1 1.712.162 1.222 1.222 0 0 1-.16 1.717l-25.39 21.096a1.214 1.214 0 0 1-1.712-.162 1.223 1.223 0 0 1 .16-1.717zm31.009-25.765l24.557-20.403a1.213 1.213 0 0 1 1.712.161 1.223 1.223 0 0 1-.16 1.718L108.01 19.443a1.213 1.213 0 0 1-1.712-.161 1.223 1.223 0 0 1 .161-1.718zm-92.61 76.947L54.015 61.14a1.214 1.214 0 0 1 1.712.161c.428.52.356 1.288-.16 1.718L15.4 96.39a1.214 1.214 0 0 1-1.713-.161 1.223 1.223 0 0 1 .161-1.718zM60.466 55.78l9.157-7.608a1.213 1.213 0 0 1 1.712.16 1.223 1.223 0 0 1-.16 1.718l-9.157 7.608a1.213 1.213 0 0 1-1.712-.161 1.222 1.222 0 0 1 .16-1.717zm-68.044 76.95l148.8-123.633a1.214 1.214 0 0 1 1.712.161c.428.52.356 1.288-.16 1.718l-148.8 123.634a1.213 1.213 0 0 1-1.713-.162 1.223 1.223 0 0 1 .161-1.717zm9.998 12.11l57.022-47.38a1.214 1.214 0 0 1 1.712.162 1.222 1.222 0 0 1-.16 1.718L3.97 146.717a1.214 1.214 0 0 1-1.712-.161 1.223 1.223 0 0 1 .16-1.718zM66.518 91.58l57.023-47.379a1.214 1.214 0 0 1 1.712.162 1.223 1.223 0 0 1-.161 1.717L68.069 93.46a1.214 1.214 0 0 1-1.712-.162 1.223 1.223 0 0 1 .161-1.717zm63.058-52.393l21.435-17.81a1.214 1.214 0 0 1 1.712.16c.429.52.357 1.289-.16 1.718l-21.436 17.81a1.214 1.214 0 0 1-1.712-.16 1.223 1.223 0 0 1 .16-1.718zM-2.58 138.784l25.39-21.095a1.213 1.213 0 0 1 1.712.161 1.223 1.223 0 0 1-.161 1.718l-25.39 21.095a1.213 1.213 0 0 1-1.712-.161 1.223 1.223 0 0 1 .16-1.718zm93.026-77.292l25.39-21.096a1.214 1.214 0 0 1 1.712.161 1.223 1.223 0 0 1-.161 1.718L91.998 63.37a1.214 1.214 0 0 1-1.712-.162 1.222 1.222 0 0 1 .16-1.717zm31.008-25.765l24.557-20.404a1.214 1.214 0 0 1 1.713.161c.428.52.356 1.289-.161 1.718l-24.557 20.404a1.214 1.214 0 0 1-1.713-.161 1.222 1.222 0 0 1 .161-1.718zm-92.61 76.947l40.166-33.373a1.214 1.214 0 0 1 1.712.162 1.222 1.222 0 0 1-.16 1.717l-40.166 33.373a1.214 1.214 0 0 1-1.712-.161 1.222 1.222 0 0 1 .16-1.718zm46.618-38.733l9.157-7.608a1.213 1.213 0 0 1 1.712.162 1.222 1.222 0 0 1-.161 1.717l-9.157 7.608a1.213 1.213 0 0 1-1.712-.161 1.223 1.223 0 0 1 .16-1.718z"/><path fill="url(#ex10a)" d="M-82.56 41.916L66.24-81.717a1.214 1.214 0 0 1 1.712.161 1.223 1.223 0 0 1-.16 1.718l-148.8 123.633a1.214 1.214 0 0 1-1.712-.161 1.222 1.222 0 0 1 .16-1.718zm9.998 12.109L-15.54 6.647a1.213 1.213 0 0 1 1.712.16 1.223 1.223 0 0 1-.161 1.718l-57.023 47.379a1.214 1.214 0 0 1-1.712-.162 1.223 1.223 0 0 1 .16-1.717zM-8.464.767L48.56-46.61a1.213 1.213 0 0 1 1.712.161 1.223 1.223 0 0 1-.16 1.718L-6.913 2.646a1.214 1.214 0 0 1-1.713-.161A1.223 1.223 0 0 1-8.464.767zm63.058-52.393l21.436-17.81a1.214 1.214 0 0 1 1.712.161 1.223 1.223 0 0 1-.161 1.718l-21.436 17.81a1.214 1.214 0 0 1-1.712-.161 1.222 1.222 0 0 1 .161-1.718zM-77.56 47.971l25.39-21.096a1.214 1.214 0 0 1 1.712.161 1.223 1.223 0 0 1-.16 1.718L-76.01 49.85a1.214 1.214 0 0 1-1.713-.162 1.222 1.222 0 0 1 .161-1.717zm93.026-77.293l25.39-21.095a1.213 1.213 0 0 1 1.712.161 1.223 1.223 0 0 1-.161 1.718l-25.39 21.095a1.213 1.213 0 0 1-1.712-.162 1.223 1.223 0 0 1 .161-1.717zm31.009-25.764L71.03-75.49a1.214 1.214 0 0 1 1.712.161 1.223 1.223 0 0 1-.16 1.718L48.024-53.207a1.214 1.214 0 0 1-1.712-.161 1.223 1.223 0 0 1 .16-1.718zm-92.61 76.946L-5.97-11.512a1.214 1.214 0 0 1 1.712.162 1.223 1.223 0 0 1-.161 1.717L-44.585 23.74a1.213 1.213 0 0 1-1.712-.161 1.223 1.223 0 0 1 .161-1.718zM.481-16.872l9.157-7.609a1.214 1.214 0 0 1 1.712.162 1.222 1.222 0 0 1-.16 1.717l-9.158 7.609a1.214 1.214 0 0 1-1.712-.162 1.223 1.223 0 0 1 .161-1.717zm-68.044 76.951l148.8-123.634a1.214 1.214 0 0 1 1.712.162 1.223 1.223 0 0 1-.161 1.717l-148.8 123.634a1.214 1.214 0 0 1-1.712-.161 1.223 1.223 0 0 1 .16-1.718zm9.997 12.109L-.543 24.809a1.213 1.213 0 0 1 1.712.162 1.223 1.223 0 0 1-.16 1.717l-57.023 47.379a1.214 1.214 0 0 1-1.713-.162 1.223 1.223 0 0 1 .161-1.717zM6.533 18.93l57.022-47.378a1.213 1.213 0 0 1 1.712.161 1.222 1.222 0 0 1-.16 1.717L8.084 20.81a1.214 1.214 0 0 1-1.712-.162 1.222 1.222 0 0 1 .16-1.718zM69.59-33.463l21.436-17.81a1.214 1.214 0 0 1 1.712.161 1.223 1.223 0 0 1-.16 1.718l-21.436 17.81a1.214 1.214 0 0 1-1.712-.161 1.222 1.222 0 0 1 .16-1.718zM-62.564 66.133l25.39-21.095a1.214 1.214 0 0 1 1.711.161 1.222 1.222 0 0 1-.16 1.718l-25.39 21.095a1.214 1.214 0 0 1-1.712-.161 1.223 1.223 0 0 1 .16-1.718zM30.46-11.159l25.39-21.096a1.213 1.213 0 0 1 1.712.162 1.222 1.222 0 0 1-.16 1.717L32.012-9.28a1.214 1.214 0 0 1-1.712-.162 1.223 1.223 0 0 1 .16-1.717zM61.47-36.923l24.557-20.404a1.214 1.214 0 0 1 1.712.161 1.223 1.223 0 0 1-.16 1.718L63.02-35.044a1.214 1.214 0 0 1-1.712-.162 1.222 1.222 0 0 1 .161-1.717zm-92.61 76.946L9.026 6.651a1.214 1.214 0 0 1 1.712.161 1.223 1.223 0 0 1-.16 1.718l-40.166 33.372a1.213 1.213 0 0 1-1.712-.161 1.223 1.223 0 0 1 .16-1.718zM15.477 1.291l9.157-7.609a1.214 1.214 0 0 1 1.712.162 1.223 1.223 0 0 1-.16 1.717L17.029 3.17a1.214 1.214 0 0 1-1.712-.16 1.222 1.222 0 0 1 .16-1.718zm-68.044 76.95l148.8-123.633a1.214 1.214 0 0 1 1.712.162 1.223 1.223 0 0 1-.16 1.717l-148.8 123.634a1.214 1.214 0 0 1-1.713-.161 1.222 1.222 0 0 1 .161-1.718zm9.998 12.11l57.022-47.38a1.214 1.214 0 0 1 1.712.162c.429.52.357 1.288-.16 1.717l-57.023 47.38a1.214 1.214 0 0 1-1.712-.162 1.222 1.222 0 0 1 .16-1.718zm64.098-53.258l57.023-47.379a1.214 1.214 0 0 1 1.712.161c.428.52.356 1.288-.161 1.718L23.08 38.97a1.213 1.213 0 0 1-1.712-.16 1.222 1.222 0 0 1 .161-1.718zM84.587-15.3l21.435-17.81a1.213 1.213 0 0 1 1.712.161 1.223 1.223 0 0 1-.16 1.718l-21.436 17.81a1.213 1.213 0 0 1-1.712-.162 1.222 1.222 0 0 1 .16-1.717zM-47.568 84.296l25.39-21.096a1.214 1.214 0 0 1 1.712.162 1.223 1.223 0 0 1-.161 1.717l-25.39 21.096a1.214 1.214 0 0 1-1.712-.161 1.222 1.222 0 0 1 .16-1.718zM45.458 7.003l25.39-21.095a1.214 1.214 0 0 1 1.711.161c.429.52.357 1.288-.16 1.718L47.009 8.882a1.214 1.214 0 0 1-1.712-.161 1.223 1.223 0 0 1 .16-1.718zM76.466-18.76l24.557-20.404a1.214 1.214 0 0 1 1.713.162 1.223 1.223 0 0 1-.161 1.717L78.018-16.882a1.213 1.213 0 0 1-1.712-.161 1.223 1.223 0 0 1 .16-1.718zm-92.61 76.947l40.166-33.372a1.213 1.213 0 0 1 1.712.161 1.223 1.223 0 0 1-.16 1.718l-40.166 33.372a1.214 1.214 0 0 1-1.712-.162 1.222 1.222 0 0 1 .16-1.717zm46.618-38.733l9.157-7.608a1.214 1.214 0 0 1 1.712.161 1.222 1.222 0 0 1-.161 1.718l-9.157 7.608a1.214 1.214 0 0 1-1.712-.161 1.223 1.223 0 0 1 .16-1.718zm-68.045 76.952L111.23-27.23a1.213 1.213 0 0 1 1.712.161 1.223 1.223 0 0 1-.16 1.718L-36.02 98.283a1.213 1.213 0 0 1-1.712-.16 1.222 1.222 0 0 1 .16-1.718zm9.998 12.108L29.45 61.134a1.214 1.214 0 0 1 1.712.162A1.222 1.222 0 0 1 31 63.013l-57.023 47.379a1.213 1.213 0 0 1-1.712-.162 1.223 1.223 0 0 1 .161-1.717zm64.098-53.258L93.548 7.877a1.214 1.214 0 0 1 1.712.161 1.223 1.223 0 0 1-.16 1.718L38.076 57.134a1.213 1.213 0 0 1-1.713-.161 1.223 1.223 0 0 1 .161-1.718zM99.583 2.862l21.436-17.81a1.213 1.213 0 0 1 1.712.162 1.223 1.223 0 0 1-.161 1.717l-21.436 17.81a1.213 1.213 0 0 1-1.712-.161 1.223 1.223 0 0 1 .161-1.718zM-32.572 102.46l25.39-21.096a1.214 1.214 0 0 1 1.712.162 1.223 1.223 0 0 1-.16 1.717l-25.39 21.095a1.213 1.213 0 0 1-1.713-.161 1.222 1.222 0 0 1 .161-1.717zm93.026-77.293L85.844 4.07a1.214 1.214 0 0 1 1.712.162 1.223 1.223 0 0 1-.161 1.717l-25.39 21.096a1.214 1.214 0 0 1-1.712-.161 1.222 1.222 0 0 1 .161-1.718zM91.463-.598l24.557-20.404a1.213 1.213 0 0 1 1.712.162 1.223 1.223 0 0 1-.16 1.717L93.013 1.281a1.213 1.213 0 0 1-1.712-.162 1.223 1.223 0 0 1 .16-1.717zm-92.61 76.947l40.166-33.373a1.213 1.213 0 0 1 1.712.162 1.223 1.223 0 0 1-.161 1.717L.404 78.228a1.214 1.214 0 0 1-1.712-.162 1.223 1.223 0 0 1 .161-1.717zM45.47 37.616l9.157-7.608a1.213 1.213 0 0 1 1.712.161 1.223 1.223 0 0 1-.16 1.718l-9.158 7.608a1.214 1.214 0 0 1-1.712-.161 1.222 1.222 0 0 1 .161-1.718zm-68.044 76.95l148.8-123.632a1.213 1.213 0 0 1 1.712.161 1.223 1.223 0 0 1-.161 1.718l-148.8 123.633a1.213 1.213 0 0 1-1.712-.161 1.223 1.223 0 0 1 .16-1.718zm9.997 12.11l57.023-47.379a1.214 1.214 0 0 1 1.712.161 1.223 1.223 0 0 1-.16 1.718l-57.023 47.378a1.213 1.213 0 0 1-1.713-.161 1.223 1.223 0 0 1 .161-1.718zm64.099-53.258l57.022-47.378a1.214 1.214 0 0 1 1.712.16 1.223 1.223 0 0 1-.16 1.718L53.073 75.297a1.213 1.213 0 0 1-1.712-.161 1.223 1.223 0 0 1 .16-1.718zm63.057-52.393l21.436-17.81a1.213 1.213 0 0 1 1.712.162 1.222 1.222 0 0 1-.16 1.717l-21.436 17.81a1.213 1.213 0 0 1-1.712-.161 1.223 1.223 0 0 1 .16-1.718zm-132.155 99.596l25.39-21.095a1.213 1.213 0 0 1 1.712.161 1.223 1.223 0 0 1-.16 1.718l-25.39 21.095a1.213 1.213 0 0 1-1.712-.161 1.223 1.223 0 0 1 .16-1.718zM75.45 43.33l25.39-21.096a1.214 1.214 0 0 1 1.712.162 1.222 1.222 0 0 1-.16 1.717l-25.39 21.096a1.214 1.214 0 0 1-1.712-.162 1.223 1.223 0 0 1 .16-1.717zm31.009-25.765l24.557-20.403a1.213 1.213 0 0 1 1.712.161 1.223 1.223 0 0 1-.16 1.718L108.01 19.443a1.213 1.213 0 0 1-1.712-.161 1.223 1.223 0 0 1 .161-1.718zm-92.61 76.947L54.015 61.14a1.214 1.214 0 0 1 1.712.161c.428.52.356 1.288-.16 1.718L15.4 96.39a1.214 1.214 0 0 1-1.713-.161 1.223 1.223 0 0 1 .161-1.718zM60.466 55.78l9.157-7.608a1.213 1.213 0 0 1 1.712.16 1.223 1.223 0 0 1-.16 1.718l-9.157 7.608a1.213 1.213 0 0 1-1.712-.161 1.222 1.222 0 0 1 .16-1.717zm-68.044 76.95l148.8-123.633a1.214 1.214 0 0 1 1.712.161c.428.52.356 1.288-.16 1.718l-148.8 123.634a1.213 1.213 0 0 1-1.713-.162 1.223 1.223 0 0 1 .161-1.717zm9.998 12.11l57.022-47.38a1.214 1.214 0 0 1 1.712.162 1.222 1.222 0 0 1-.16 1.718L3.97 146.717a1.214 1.214 0 0 1-1.712-.161 1.223 1.223 0 0 1 .16-1.718zM66.518 91.58l57.023-47.379a1.214 1.214 0 0 1 1.712.162 1.223 1.223 0 0 1-.161 1.717L68.069 93.46a1.214 1.214 0 0 1-1.712-.162 1.223 1.223 0 0 1 .161-1.717zm63.058-52.393l21.435-17.81a1.214 1.214 0 0 1 1.712.16c.429.52.357 1.289-.16 1.718l-21.436 17.81a1.214 1.214 0 0 1-1.712-.16 1.223 1.223 0 0 1 .16-1.718zM-2.58 138.784l25.39-21.095a1.213 1.213 0 0 1 1.712.161 1.223 1.223 0 0 1-.161 1.718l-25.39 21.095a1.213 1.213 0 0 1-1.712-.161 1.223 1.223 0 0 1 .16-1.718zm93.026-77.292l25.39-21.096a1.214 1.214 0 0 1 1.712.161 1.223 1.223 0 0 1-.161 1.718L91.998 63.37a1.214 1.214 0 0 1-1.712-.162 1.222 1.222 0 0 1 .16-1.717zm31.008-25.765l24.557-20.404a1.214 1.214 0 0 1 1.713.161c.428.52.356 1.289-.161 1.718l-24.557 20.404a1.214 1.214 0 0 1-1.713-.161 1.222 1.222 0 0 1 .161-1.718zm-92.61 76.947l40.166-33.373a1.214 1.214 0 0 1 1.712.162 1.222 1.222 0 0 1-.16 1.717l-40.166 33.373a1.214 1.214 0 0 1-1.712-.161 1.222 1.222 0 0 1 .16-1.718zm46.618-38.733l9.157-7.608a1.213 1.213 0 0 1 1.712.162 1.222 1.222 0 0 1-.161 1.717l-9.157 7.608a1.213 1.213 0 0 1-1.712-.161 1.223 1.223 0 0 1 .16-1.718z"/></g></g></svg>