<svg xmlns="http://www.w3.org/2000/svg" width="192" height="198" viewBox="0 0 192 198"><g><g><path fill="#1a2a42" d="M47 18l5 4 8 2 13-1h6l19 1h8l9 3 6 5 7 3 5 4 2 2-4 7v7l-2 3-5 2-4 3-5 6-4 6-4 7-4 3-5-6-9-1-5 4 1 5 2 6 6 4 7 5 6 2 7-4 8-1 19 1 4 4 9 14 5 3 5 1v6l-3 5-5 4-5 2-1 6-3 8-8 9-10 11-9 10-1 4 12-3 10-5 10-6 9-8 8-8 7-10 8-15 7-22V89l-4-19-2-7-9-1-12-3-8-6-1-8-1-13-1-8-3-6-11-6-12-5-15-3-18-1-25 3-18 10z"/></g><g><path fill="#f03382" d="M26.5 106.5c6.627 0 12 5.373 12 12s-5.373 12-12 12-12-5.373-12-12 5.373-12 12-12z"/></g><g><path fill="#f03382" d="M53.5 145c14.636 0 26.5 11.865 26.5 26.5S68.136 198 53.5 198 27 186.135 27 171.5 38.864 145 53.5 145z"/></g><g><path fill="#f03382" d="M183.5 159.937a7.562 7.562 0 1 1 0 15.125 7.562 7.562 0 0 1 0-15.125z"/></g><g><path fill="#a2acbb" d="M96 4.983c-16.288 0-32.096 4.297-46.013 12.47l6.806 3.981 23.097-.865a2.495 2.495 0 1 1 .187 4.987l-24.55.92-10.302-6.026A91.704 91.704 0 0 0 31.92 31.347l1.198 1.27c.365.389.697.807.99 1.25l3.142 4.739c.458.692.702 1.504.702 2.333v4.89c0 1.322-.249 2.633-.734 3.863l-1.493 3.786c-.139.352-.18.734-.12 1.108l.24 1.51a13.438 13.438 0 0 0 1.01 3.38l2.577 5.748a22.81 22.81 0 0 0 3.765 5.822l.564.635c.487.548 1.181.865 1.914.875l11.365.157a2.943 2.943 0 0 1 2.713 1.904l1.07 2.834a26.813 26.813 0 0 1 1.327 4.855l1.684 9.644.12.543a9.869 9.869 0 0 0 6.604 7.252l13.923 4.492a7.232 7.232 0 0 1 1.975.992l9.484 6.75a4.753 4.753 0 0 1 1.997 3.874v8.958c0 .63.038 1.26.115 1.887l.813 6.613a6.55 6.55 0 0 0 2.087 4.042l2.312 2.107a9.528 9.528 0 0 0 3.233 1.94l5.694 2.024a4.063 4.063 0 0 1 2.504 2.575l.746 2.3c1.005 3.1 1.229 6.4.651 9.606l-.879 4.883a5.816 5.816 0 0 1-.608 1.736l-4.236 7.839a3.612 3.612 0 0 0-.435 1.718v9.493l6.33-2.161a7.76 7.76 0 0 0 3.295-2.192l25.37-28.566a3.985 3.985 0 0 0 .962-2.057l1.212-8.084a5.304 5.304 0 0 1 3.356-4.168l2.381-.908 6.938-3.721 1.877-5.343-1.058-2.54-6.427-1.315a4.384 4.384 0 0 1-2.834-1.963l-9.938-15.822a6.039 6.039 0 0 0-2.735-2.338l-.035-.015a6.152 6.152 0 0 0-2.384-.501c-4.623-.036-20.662-.17-20.662-.17l-6.765 4.832a4.395 4.395 0 0 1-3.571.699l-1.94-.462a10.771 10.771 0 0 1-3.136-1.296l-14.325-8.791a5.803 5.803 0 0 1-2.768-4.946v-10.86a5.832 5.832 0 0 1 6.08-5.828l8.17.348a3.723 3.723 0 0 1 2.697 1.327l4.303 5.13 13.364-22.452a4.74 4.74 0 0 1 3.529-2.283l6.814-.787.307-10.448a3.355 3.355 0 0 1 2.047-2.992l2.84-1.2-20.632-12.379a27.074 27.074 0 0 0-13.927-3.858h-2.086a2.496 2.496 0 0 1 0-4.99h3.468c4.907 0 9.72 1.333 13.928 3.857l22.04 13.224a4.859 4.859 0 0 1-.606 8.64l-2.113.895-.285 9.679a4.666 4.666 0 0 1-4.129 4.498l-6.97.805L108.387 84.8a4.674 4.674 0 0 1-7.595.614l-4.234-5.044-7.71-.329-.779.146V90.24c0 1.218.632 2.349 1.67 2.985l13.828 8.485 2.57.614 6.61-4.722a4.736 4.736 0 0 1 2.795-.883l20.768.175a11.107 11.107 0 0 1 9.302 5.19c3.287 5.222 9.812 15.598 9.812 15.598l6.723 1.375a3.934 3.934 0 0 1 2.843 2.341l1.304 3.13c.454 1.091.489 2.311.097 3.427l-1.814 5.164a5.67 5.67 0 0 1-2.677 3.12l-7.007 3.74c-.084.046-.171.085-.26.119l-1.33.507a2.265 2.265 0 0 0-1.432 1.78l-1.121 7.473a7.21 7.21 0 0 1-1.74 3.719l-26.07 29.357c37.072-11.511 64.07-46.132 64.07-86.94a90.616 90.616 0 0 0-5.118-30.107l-.81-.014a8.863 8.863 0 0 1-1.558-.164l-7.423-1.455c-.569-.112-1.135-.24-1.697-.387l-6.826-1.77a18.791 18.791 0 0 1-5.933-2.706l-3.782-2.601a2.668 2.668 0 0 1-.97-1.218l-2.699-6.831a4.175 4.175 0 0 1-.204-2.385l.813-3.907V41.5c0-2.045-.294-4.079-.871-6.04l-2.61-8.87a6.445 6.445 0 0 1-.109-3.221l.497-2.232C133.015 10.954 115.192 4.982 96 4.982c0 0 17.903 0 0 0zM4.988 95.993c0 50.182 40.827 91.01 91.01 91.01 3.017 0 6-.148 8.943-.437v-13.408c0-.823.205-1.634.597-2.358l4.098-7.581a8.42 8.42 0 0 0 .879-2.511l.528-2.932c.521-2.893.32-5.87-.588-8.667l-.368-1.134-6.18-2.198a9.713 9.713 0 0 1-3.29-1.974l-4.329-3.948a6.772 6.772 0 0 1-2.16-4.188l-.963-7.933a30.405 30.405 0 0 1-.22-3.659v-6.086a3.908 3.908 0 0 0-1.642-3.183l-7.114-5.063a7.218 7.218 0 0 0-1.975-.992l-13.927-4.495a9.854 9.854 0 0 1-2.705-1.36l-2.186-1.562a9.868 9.868 0 0 1-3.9-5.893l-.57-2.577-1.8-10.31a17.074 17.074 0 0 0-.885-3.195l-.644-1.674-11.651-.16a3.838 3.838 0 0 1-2.815-1.288l-2.278-2.563a21.809 21.809 0 0 1-3.6-5.566l-3.225-7.194a13.456 13.456 0 0 1-1.007-3.374l-.476-2.971a4.116 4.116 0 0 1 .235-2.161l1.446-3.665c.485-1.23.734-2.54.734-3.863v-2.438c0-.829-.245-1.64-.703-2.332l-2.172-3.277a9.396 9.396 0 0 0-1.03-1.291l-.573-.6C13.509 51.479 4.989 73.108 4.989 95.992zM95.999-.01c53.02 0 96.002 42.981 96.002 96.001s-42.981 96.002-96.002 96.002c-53.02 0-96.001-42.981-96.001-96.002 0-33.493 17.152-62.98 43.152-80.158C58.308 5.821 76.472-.009 96-.009zm56.006 24.823l2.92 9.94c.577 1.959.869 3.99.869 6.032v2.177l-.869 4.17 1.905 4.82c.29.733.792 1.363 1.442 1.81a28.986 28.986 0 0 0 9.145 4.172l4.162 1.08c.565.146 1.134.275 1.707.387l6.6 1.291c-6.06-14.345-15.696-26.825-27.784-36.315z"/></g></g></svg>