<?xml version="1.0" encoding="utf-8"?>
<!-- Generator: Adobe Illustrator 23.0.1, SVG Export Plug-In . SVG Version: 6.00 Build 0)  -->
<svg version="1.1" xmlns="http://www.w3.org/2000/svg" xmlns:xlink="http://www.w3.org/1999/xlink" x="0px" y="0px"
	 viewBox="0 0 347 267" style="enable-background:new 0 0 347 267;" xml:space="preserve">
<style type="text/css">
	.st0{fill-rule:evenodd;clip-rule:evenodd;fill:#CFD6E0;}
	.st1{fill-rule:evenodd;clip-rule:evenodd;fill:#F03382;}
	.st2{fill:#DBE1E9;}
	.st3{fill:#A2ACBB;}
</style>
<g id="Слой_6">
	<g>
		<g>
			<path class="st0" d="M336.5,30.5c-5.8,0-10.5,4.7-10.5,10.5s4.7,10.5,10.5,10.5S347,46.8,347,41S342.3,30.5,336.5,30.5z
				 M26,104.5c-14.4,0-26,11.6-26,26c0,14.4,11.6,26,26,26s26-11.6,26-26C52,116.1,40.4,104.5,26,104.5z M199.5,62.5
				c-53.3,0-96.5,43.2-96.5,96.5c0,53.3,43.2,96.5,96.5,96.5c53.3,0,96.5-43.2,96.5-96.5C296,105.7,252.8,62.5,199.5,62.5z"/>
		</g>
	</g>
	<g>
		<g>
			<path class="st1" d="M51,169.5c-3.3,0-6,2.7-6,6c0,3.3,2.7,6,6,6s6-2.7,6-6C57,172.2,54.3,169.5,51,169.5z M216,1.5
				c-7.2,0-13,5.8-13,13s5.8,13,13,13s13-5.8,13-13S223.2,1.5,216,1.5z"/>
		</g>
	</g>
</g>
<g id="Слой_3">
	<polyline class="st2" points="62,266 65,39 117,39 122,39 122,21 133,21 150,5 188,5 205,21 216,21 272,21 272,83 303,83 303,108 
		270,108 270,141 177,141 177,237 117,237 117,256 	"/>
	<polyline class="st2" points="117,256 95,267 65,267 65,242 63,65 	"/>
</g>
<g id="Слой_2">
	<g>
		<rect x="60" y="34" class="st3" width="5" height="233"/>
		<rect x="77.5" y="224.5" transform="matrix(-1.836970e-16 1 -1 -1.836970e-16 319.5 159.5)" class="st3" width="5" height="30"/>
		<rect x="70" y="29" transform="matrix(-1.836970e-16 1 -1 -1.836970e-16 109 -36)" class="st3" width="5" height="15"/>
		<rect x="107" y="29" transform="matrix(-1.836970e-16 1 -1 -1.836970e-16 146 -73)" class="st3" width="5" height="15"/>
		<rect x="224" y="13" transform="matrix(-1.836970e-16 1 -1 -1.836970e-16 245 -208)" class="st3" width="5" height="11"/>
		<rect x="263" y="7" transform="matrix(-1.836970e-16 1 -1 -1.836970e-16 284 -247)" class="st3" width="5" height="23"/>
		<rect x="252.5" y="77.5" transform="matrix(-1.836970e-16 1 -1 -1.836970e-16 349.5 -160.5)" class="st3" width="5" height="34"/>
		<rect x="290" y="65" transform="matrix(-1.836970e-16 1 -1 -1.836970e-16 373 -212)" class="st3" width="5" height="31"/>
		<rect x="303" y="83" transform="matrix(-1 -1.224647e-16 1.224647e-16 -1 611 191)" class="st3" width="5" height="25"/>
		<rect x="270" y="128" transform="matrix(-1 -1.224647e-16 1.224647e-16 -1 545 274)" class="st3" width="5" height="18"/>
		<rect x="177" y="146" transform="matrix(-1 -1.224647e-16 1.224647e-16 -1 359 388)" class="st3" width="5" height="96"/>
		<rect x="117" y="141" transform="matrix(-1 -1.224647e-16 1.224647e-16 -1 239 397)" class="st3" width="5" height="115"/>
		<rect x="205.5" y="81.5" transform="matrix(6.123234e-17 -1 1 6.123234e-17 64.5 351.5)" class="st3" width="5" height="124"/>
		<rect x="286.5" y="91.5" transform="matrix(-1.836970e-16 1 -1 -1.836970e-16 399.5 -178.5)" class="st3" width="5" height="38"/>
		<rect x="165" y="230" transform="matrix(-1.836970e-16 1 -1 -1.836970e-16 407 72)" class="st3" width="5" height="19"/>
		<rect x="126.5" y="232.5" transform="matrix(-1.836970e-16 1 -1 -1.836970e-16 368.5 110.5)" class="st3" width="5" height="14"/>
		<rect x="123.5" y="139.5" transform="matrix(-1.836970e-16 1 -1 -1.836970e-16 269.5 17.5)" class="st3" width="5" height="8"/>
		<rect x="83" y="123" transform="matrix(-1.836970e-16 1 -1 -1.836970e-16 229 58)" class="st3" width="5" height="41"/>
		<rect x="83" y="74" transform="matrix(-1.836970e-16 1 -1 -1.836970e-16 180 9)" class="st3" width="5" height="41"/>
		<rect x="101" y="97" transform="matrix(-1 -1.224647e-16 1.224647e-16 -1 207 223)" class="st3" width="5" height="29"/>
		<rect x="101" y="136" transform="matrix(-1 -1.224647e-16 1.224647e-16 -1 207 277)" class="st3" width="5" height="5"/>
		<rect x="220.5" y="92.5" transform="matrix(-1.836970e-16 1 -1 -1.836970e-16 317.5 -128.5)" class="st3" width="5" height="4"/>
		<rect x="204.5" y="85.5" transform="matrix(-1.836970e-16 1 -1 -1.836970e-16 301.5 -112.5)" class="st3" width="5" height="18"/>
		<rect x="151" y="63" transform="matrix(-1.836970e-16 1 -1 -1.836970e-16 248 -59)" class="st3" width="5" height="63"/>
		<rect x="125" y="13" transform="matrix(-1.836970e-16 1 -1 -1.836970e-16 146 -109)" class="st3" width="5" height="11"/>
		<polygon class="st3" points="133,21 129.7,17.2 148,0 151.3,3.8 		"/>
		<rect x="208" y="13" transform="matrix(-4.474750e-11 1 -1 -4.474750e-11 229 -192)" class="st3" width="5" height="11"/>
		<rect x="148" y="0" class="st3" width="11" height="5"/>
		<rect x="179" y="0" class="st3" width="11" height="5"/>
		<polygon class="st3" points="205,21 208.3,17.2 190,0 186.7,3.8 		"/>
		<rect x="117" y="16" class="st3" width="5" height="81"/>
		<rect x="216" y="16" class="st3" width="5" height="81"/>
		<rect x="272" y="21" class="st3" width="5" height="76"/>
	</g>
</g>
<g id="Слой_5">
	<g>
		<path class="st3" d="M177.1,59.4v3.4h-13.5v-2.7l6.9-6.5c0.7-0.7,1.2-1.3,1.5-1.8c0.3-0.5,0.4-1,0.4-1.5c0-0.7-0.2-1.3-0.7-1.6
			c-0.5-0.4-1.2-0.6-2.1-0.6c-0.8,0-1.5,0.1-2.1,0.4c-0.6,0.3-1.2,0.7-1.6,1.3l-3-1.9c0.7-1,1.7-1.9,2.9-2.4
			c1.2-0.6,2.6-0.9,4.2-0.9c1.3,0,2.5,0.2,3.5,0.7c1,0.4,1.8,1,2.3,1.8c0.6,0.8,0.8,1.7,0.8,2.8c0,1-0.2,1.9-0.6,2.7
			c-0.4,0.9-1.2,1.8-2.4,2.9l-4.1,3.9H177.1z"/>
	</g>
	<g>
		<path class="st3" d="M92.7,194.9c0.8,0.9,1.3,2,1.3,3.4c0,1-0.3,2-0.8,2.9c-0.5,0.9-1.4,1.6-2.5,2.1c-1.1,0.5-2.5,0.8-4.1,0.8
			c-1.3,0-2.5-0.2-3.7-0.5c-1.2-0.3-2.3-0.8-3.1-1.4l1.6-3.2c0.7,0.5,1.5,0.9,2.4,1.2s1.8,0.4,2.7,0.4c1,0,1.9-0.2,2.5-0.6
			c0.6-0.4,0.9-1,0.9-1.7c0-1.5-1.1-2.2-3.4-2.2h-1.9v-2.7l3.7-4.2h-7.6v-3.3h12.5v2.7l-4,4.6C90.6,193.4,91.8,194,92.7,194.9z"/>
	</g>
	<g>
		<path class="st3" d="M160.1,201h-2.9v3.8h-4V201h-9.6v-2.8l8.4-11.4h4.3l-7.8,10.8h4.8v-3.3h3.9v3.3h2.9V201z"/>
	</g>
	<g>
		<path class="st3" d="M250.4,56.1c1.2,1,1.8,2.4,1.8,4c0,1.1-0.3,2.1-0.8,3c-0.5,0.9-1.4,1.6-2.5,2.1s-2.5,0.8-4.1,0.8
			c-1.3,0-2.5-0.2-3.7-0.5c-1.2-0.3-2.3-0.8-3.1-1.4l1.6-3.2c0.7,0.5,1.5,0.9,2.4,1.2c0.9,0.3,1.8,0.4,2.7,0.4c1,0,1.9-0.2,2.5-0.6
			c0.6-0.4,0.9-1,0.9-1.7c0-0.8-0.3-1.3-0.9-1.7c-0.6-0.4-1.7-0.6-3.2-0.6h-4.6l0.9-10.1h10.9v3.3h-7.5l-0.3,3.4h1.5
			C247.4,54.6,249.2,55.1,250.4,56.1z"/>
	</g>
	<g>
		<path class="st3" d="M94.6,56.8v17.9h-4.1V60.2h-3.6v-3.3H94.6z"/>
	</g>
	<rect x="228" y="95" transform="matrix(0.7071 -0.7071 0.7071 0.7071 -4.1381 191.0097)" class="st3" width="1" height="11"/>
	<rect x="188" y="95" transform="matrix(0.7071 -0.7071 0.7071 0.7071 -15.8539 162.7254)" class="st3" width="1" height="11"/>
	<rect x="109" y="95" transform="matrix(0.7071 -0.7071 0.7071 0.7071 -38.9924 106.864)" class="st3" width="1" height="11"/>
	<rect x="101" y="127" transform="matrix(0.7071 -0.7071 0.7071 0.7071 -63.963 110.5797)" class="st3" width="1" height="11"/>
	<rect x="109" y="140" transform="matrix(-0.7071 0.7071 -0.7071 -0.7071 289.8122 170.9558)" class="st3" width="1" height="11"/>
	<rect x="132" y="140" transform="matrix(-0.7071 0.7071 -0.7071 -0.7071 329.0757 154.6924)" class="st3" width="1" height="11"/>
</g>
<g id="Слой_4">
</g>
</svg>
