<svg xmlns="http://www.w3.org/2000/svg" width="362" height="257" viewBox="0 0 362 257"><g><g><path fill="#f03382" d="M191.125 4.187c21.16 0 38.312 17.168 38.312 38.344 0 21.177-17.153 38.344-38.312 38.344-21.16 0-38.312-17.167-38.312-38.344 0-21.176 17.153-38.344 38.312-38.344z"/></g><g><path fill="#f03382" d="M91 92c3.386 0 6.092-1.708 6.092 1.68a6.133 6.133 0 0 1-6.131 6.134 6.133 6.133 0 0 1-6.131-6.134c0-3.388 2.784-1.68 6.17-1.68z"/></g><g><path fill="#fff" d="M231 17V2h-84v78h15V18l8-1h19l37-1z"/></g><g><path fill="#a2acbb" d="M149.865 165.985c-3.233 0-5.865-2.624-5.865-5.85V5.832c0-3.225 2.632-5.85 5.865-5.85h206.267c3.234 0 5.865 2.625 5.866 5.85v154.303c0 3.226-2.631 5.85-5.865 5.85zm-1.501-4.353h102.453V4.335H148.364zm209.27 0V4.335H255.181v157.297zM164.598 151.29c-3.234 0-5.866-2.625-5.866-5.85V20.528c0-3.227 2.632-5.851 5.866-5.851h69.983c3.234 0 5.866 2.624 5.866 5.85v124.911c0 3.226-2.632 5.85-5.866 5.85zm-1.502-4.353h72.986V19.03h-72.986zm108.319 4.353c-3.234 0-5.865-2.625-5.865-5.85V79.251 31.55a2.014 2.014 0 0 1 0-.111v-10.91c0-3.227 2.631-5.851 5.865-5.851h69.983c1.567 0 3.04.608 4.147 1.713a5.8 5.8 0 0 1 1.718 4.137v124.911c0 3.226-2.632 5.85-5.865 5.85zm-1.502-4.353H342.9V19.03h-72.986V78.22l13.86 10.37a2.176 2.176 0 0 1 .438 3.047c-.41.545-1.063.87-1.746.87-.47 0-.935-.154-1.308-.434l-11.244-8.412zM175.65 33.727c-1.2-.011-2.17-.991-2.164-2.189a2.16 2.16 0 0 1 .164-.814c.116-.297.27-.539.47-.749a2.156 2.156 0 0 1 1.53-.623 2.17 2.17 0 0 1 1.536.632c.195.201.348.443.452.71a2.173 2.173 0 0 1-1.177 2.868 2.19 2.19 0 0 1-.811.164zm14.733-.002a2.181 2.181 0 0 1-2.182-2.176c0-1.2.978-2.176 2.182-2.176h22.1c1.203 0 2.182.976 2.182 2.176 0 1.2-.979 2.176-2.182 2.176z"/></g><g><path fill="#dbe1e9" d="M139 104h56l5 3 7 7v8l1 13-1 16v9l-1 3-6 6-1 7v6l-1 5-10-8-13 1-21-1h-21l-5 3-5 5-2-6-1-13-6-5-1-5v-37l1-8 6-6 13-4z"/></g><g><path fill="#a2acbb" d="M2.45 257A2.453 2.453 0 0 1 0 254.55a18.267 18.267 0 0 1 10.951-16.7l.9-.393v-6.605a2.453 2.453 0 0 1 2.448-2.45c1.352 0 2.451 1.099 2.451 2.45v5.449h10.9V52.948c0-15.643 12.223-28.763 27.827-29.871a30.054 30.054 0 0 1 2.15-.077c14.792 0 27.527 11.054 29.62 25.714l.307 2.147.926.273c3.752 1.102 6.605 4.302 7.267 8.155l1.167 6.908 16.348 14.014a6.418 6.418 0 0 1 2.001 6.567 6.43 6.43 0 0 1-5.1 4.6l-37.896 6.404a6.485 6.485 0 0 1-1.099.093 6.418 6.418 0 0 1-5.524-3.225 6.428 6.428 0 0 1 .026-6.4l10.834-18.606-1.168-6.912a10.222 10.222 0 0 1 6.217-11.246l1.08-.446-.236-1.635C80.64 37.151 69.989 27.91 57.618 27.91c-.593 0-1.192.02-1.794.063-13.046.925-23.269 11.897-23.274 24.976V236.3h9.4c8.623.012 16.144 6.153 17.882 14.601l.247 1.198h39.273l6.503-22.756-1.862-.116c-9.557-.592-17.064-8.557-17.092-18.13v-39.494c.006-5.7 4.649-10.344 10.35-10.35H110.6v-40.998c.011-10.05 8.2-18.239 18.253-18.25h63.197c10.05.011 18.238 8.2 18.25 18.252v40.996h13.352c5.7.006 10.342 4.65 10.348 10.352v39.496c-.028 9.57-7.536 17.534-17.092 18.126l-1.863.116 6.503 22.756h10.003c1.35 0 2.449 1.1 2.449 2.45a2.452 2.452 0 0 1-2.45 2.45zm206.82-4.9h7.182l-6.5-22.748h-13.681zm-91.998 0h86.359l-13.002-22.748H130.27zm-12.824 0h7.182l13-22.748h-13.682zm-86.2-10.9A13.396 13.396 0 0 0 5.665 250.1l-.71 2.001h50.293l-.71-2.001a13.398 13.398 0 0 0-12.585-8.899zm189.599-75.047a5.465 5.465 0 0 0-5.447 5.45v52.848h13.35c7.355-.009 13.342-5.996 13.35-13.347v-39.5c-.005-3.002-2.448-5.446-5.445-5.451zm-84.448 58.298H197.5v-18.8h-74.1zm-26.153-58.298a5.465 5.465 0 0 0-5.446 5.45v39.499c.008 7.353 5.997 13.34 13.35 13.349h13.35v-52.847a5.465 5.465 0 0 0-5.446-5.451zm39.503 15.8c-7.352.008-13.34 5.997-13.35 13.348v5.451H197.5v-5.449c-.007-7.353-5.995-13.342-13.348-13.35zm47.4-4.9a18.152 18.152 0 0 1 10.937 3.74l2.414 1.856v-11.045a10.343 10.343 0 0 1 6.898-9.706l1.002-.353v-41.29c-.007-7.354-5.995-13.342-13.348-13.35H128.85c-7.354.008-13.343 5.996-13.352 13.349v41.291l1.003.353a10.345 10.345 0 0 1 6.897 9.71v11.04l2.415-1.854a18.16 18.16 0 0 1 10.942-3.741zM80.61 72.338l-12.317 21.15 41.106-6.95 2.908-.7-2.206-1.916-16.176-13.834zm4.936-16.78c-.3 0-.606.025-.906.075-2.964.506-4.966 3.323-4.472 6.28l.911 5.376 10.747-1.815-.905-5.374a5.453 5.453 0 0 0-5.372-4.542z"/></g></g></svg>