<svg xmlns="http://www.w3.org/2000/svg" width="223" height="216" viewBox="0 0 223 216"><g><g><path fill="#1a2a42" d="M14 46l62-1c5.523 0 10 4.477 10 10v92c0 5.523 15.523 10 10 10l-82 1c-5.523 0-10-4.477-10-10V56c0-5.523 4.477-10 10-10z"/></g><g><path fill="#1a2a42" d="M97 84h96v12l-3 5s-8.575 3.27-9 3c-.425-.27-16-1-16-1l-21 1-19-1h-15l-8-1h-4z"/></g><g><path fill="#f03382" d="M179.312 72.594c8.423 0 15.25 6.82 15.25 15.234s-6.827 15.235-15.25 15.235c-8.422 0-15.25-6.821-15.25-15.235s6.828-15.234 15.25-15.234z"/></g><g><path fill="#a2acbb" d="M102.118 114.6a2.48 2.48 0 0 1 0-4.96h9.802v-4.843l-9.805-.002a2.477 2.477 0 0 1-2.473-2.48c0-1.37 1.108-2.48 2.474-2.48l81.614.014c3.91 0 7.091-3.188 7.091-7.105v-5.942l-88.706-.011a2.477 2.477 0 0 1-2.473-2.48c0-1.37 1.108-2.48 2.474-2.48l88.705.012v-69.78c0-3.926-3.175-7.109-7.09-7.109H67.476c-3.914 0-7.087 3.182-7.087 7.106v19.295c0 1.37-1.108 2.481-2.474 2.481a2.477 2.477 0 0 1-2.474-2.48V12.064c0-6.667 5.39-12.07 12.039-12.07h116.254c6.646 0 12.034 5.401 12.034 12.065v80.684c0 6.652-5.4 12.064-12.039 12.064l-44.438-.007v4.842l81.234.01a2.48 2.48 0 0 1 0 4.96l-9.374-.001v93.344c0 4.26-3.444 7.712-7.692 7.712-4.247 0-7.69-3.453-7.69-7.712V114.61l-56.478-.006v.009H111.92v-.012zm32.225-9.745h-17.475v4.786l17.475.002zM87.68 21.233c-.66 0-1.28-.258-1.748-.725a2.467 2.467 0 0 1-.725-1.755c0-.663.256-1.285.724-1.753l2.842-2.855a2.453 2.453 0 0 1 1.75-.727c.66 0 1.281.259 1.748.727.468.468.725 1.091.725 1.754 0 .662-.257 1.286-.725 1.754l-2.84 2.853a2.457 2.457 0 0 1-1.75.727zm-21.27-.424a2.452 2.452 0 0 1-1.75-.725 2.465 2.465 0 0 1-.724-1.754c0-.662.257-1.286.724-1.754l7.51-7.526a2.456 2.456 0 0 1 1.751-.726c.66 0 1.281.257 1.748.725.966.967.966 2.54.001 3.508l-7.511 7.527a2.452 2.452 0 0 1-1.75.725zm1.834 8.53a2.456 2.456 0 0 1-1.75-.727 2.487 2.487 0 0 1 0-3.507L80.68 10.888a2.456 2.456 0 0 1 1.75-.727c.66 0 1.281.258 1.749.726.964.967.966 2.541 0 3.507L69.994 28.611a2.456 2.456 0 0 1-1.75.727zm2.25 9.111a2.456 2.456 0 0 1-1.749-.725 2.467 2.467 0 0 1-.726-1.754c0-.664.258-1.286.725-1.754L78.76 24.182a2.452 2.452 0 0 1 1.75-.727c.66 0 1.282.258 1.75.727.466.467.724 1.09.724 1.752 0 .663-.258 1.286-.726 1.755L72.244 37.724a2.456 2.456 0 0 1-1.75.726zM183.536 96.65a3.493 3.493 0 0 1 0-6.986 3.493 3.493 0 0 1 0 6.985zM73.702 43.853c8.938 0 16.21 7.29 16.21 16.251v83.69c0 3.38 1.004 5.777 6.306 8.752 1.43.628 30.2 1.533 33.965 1.918 1.309.135 2.437.25 3.237.343 1.243.143 3.557.411 3.468 2.783-.009.243-.164 2.378-2.778 2.449-.152.004-33.598.006-50.652.006.14.357.217.746.217 1.153a3.14 3.14 0 0 1-3.135 3.144H76.6v7.586a3.79 3.79 0 0 1-3.786 3.794H70.73v33.98H91.53a3.14 3.14 0 0 1 3.136 3.145 3.14 3.14 0 0 1-3.136 3.143H35.546a3.14 3.14 0 0 1-3.135-3.143 3.14 3.14 0 0 1 3.135-3.145h19.801v-33.98h-2.085a3.79 3.79 0 0 1-3.785-3.794v-7.586h-3.94a3.14 3.14 0 0 1-3.136-3.144c0-.407.077-.796.217-1.152H16.207c-8.938 0-16.209-7.29-16.209-16.252v-83.69c0-8.96 7.271-16.251 16.209-16.251zm11.214 16.251c0-6.2-5.03-11.243-11.214-11.243H16.207c-6.183 0-11.214 5.043-11.214 11.243v83.69c0 6.2 5.03 11.244 11.214 11.244h57.495l17.12-.002c-4.154-3.037-5.906-6.463-5.906-11.242zM71.604 165.067H54.472v5.647H71.604zm-5.87 10.655h-5.392v33.98h5.392zm140.422-61.061h-5.391v93.295c0 1.49 1.209 2.703 2.695 2.703a2.702 2.702 0 0 0 2.696-2.703z"/></g></g></svg>