<svg xmlns="http://www.w3.org/2000/svg" width="234" height="190" viewBox="0 0 234 190"><g><g><path fill="#1a2a42" d="M3 140h228v16l-1 7-8 7-17 1H19l-7-1-7-5-1-5-1-7z"/></g><g><path fill="#f03382" d="M207.5 120c14.636 0 26.5 11.864 26.5 26.5S222.136 173 207.5 173 181 161.136 181 146.5s11.864-26.5 26.5-26.5z"/></g><g><path fill="#a2acbb" d="M215.325 173.45H138.46v11.553h20.809a2.495 2.495 0 1 1 0 4.989H74.42a2.495 2.495 0 1 1 0-4.99h21.117V173.45H18.673c-10.298 0-18.676-8.374-18.676-18.667V18.654C-.003 8.361 8.375-.013 18.673-.013h196.651c10.299 0 18.677 8.374 18.677 18.667v136.129c0 10.293-8.378 18.667-18.676 18.667zM18.673 4.976c-7.546 0-13.685 6.135-13.685 13.678v119.429H229.01V18.654c0-7.543-6.14-13.678-13.685-13.678zM4.988 154.783c0 7.542 6.139 13.678 13.685 13.678h196.652c7.546 0 13.685-6.136 13.685-13.678V143.07H4.988zm214.21.696a4.204 4.204 0 0 1-4.205 4.202 4.204 4.204 0 1 1 0-8.405 4.204 4.204 0 0 1 4.206 4.203zM32.336 30.159a2.493 2.493 0 0 1 0 3.528L15.395 50.62a2.496 2.496 0 0 1-3.53-3.528l16.94-16.931a2.497 2.497 0 0 1 3.53 0zm4.94-19.048a2.493 2.493 0 0 1 0 3.528L13.277 38.626a2.496 2.496 0 0 1-3.53-3.528l24-23.987a2.498 2.498 0 0 1 3.528 0zM24.57 9.701a2.493 2.493 0 0 1 0 3.527L11.865 25.927a2.496 2.496 0 0 1-3.53-3.528L21.042 9.7a2.496 2.496 0 0 1 3.53 0zm24.705 3.527a2.493 2.493 0 0 1 0 3.527l-9.882 9.877a2.497 2.497 0 0 1-3.53 0 2.493 2.493 0 0 1 0-3.527l9.883-9.877a2.497 2.497 0 0 1 3.529 0zm84.194 160.301h-32.941v11.474h32.941z"/></g></g></svg>