<svg xmlns="http://www.w3.org/2000/svg" width="224" height="91" viewBox="0 0 224 91"><g><g clip-path="url(#clip-158)"><path fill="#d0d6e0" d="M222.818 115.607a15.337 15.337 0 0 0-.759-1.462c-3.886-7.01-11.313-15.616-22.276-25.818l-.232-.234-.116-.114-.117-.117h-.118c-4.975-4.751-8.126-7.946-9.445-9.58-2.414-3.116-2.955-6.27-1.636-9.465.932-2.414 4.434-7.511 10.497-15.301a842.09 842.09 0 0 0 7.58-9.93c13.453-17.912 19.285-29.359 17.496-34.343l-.695-1.166c-.467-.7-1.672-1.342-3.614-1.927-1.946-.584-4.434-.68-7.467-.292l-33.588.233c-.545-.193-1.322-.175-2.334.059l-1.517.35-.584.294-.464.351c-.389.232-.817.641-1.284 1.225a8.04 8.04 0 0 0-1.163 2.044C167.325 19.838 163.167 28.6 158.5 36.7c-2.877 4.828-5.52 9.014-7.932 12.558-2.41 3.542-4.432 6.152-6.063 7.825-1.635 1.675-3.11 3.017-4.434 4.03-1.322 1.014-2.331 1.442-3.03 1.285-.7-.156-1.36-.312-1.985-.468-1.088-.701-1.963-1.655-2.623-2.861-.662-1.207-1.108-2.726-1.342-4.557-.232-1.831-.369-3.407-.408-4.73-.037-1.323-.02-3.194.059-5.609.081-2.415.117-4.049.117-4.906 0-2.96.058-6.172.173-9.637.118-3.466.213-6.212.293-8.235.08-2.025.116-4.167.116-6.426 0-2.258-.137-4.03-.409-5.315a18.216 18.216 0 0 0-1.22-3.739c-.546-1.206-1.344-2.14-2.392-2.803-1.05-.662-2.354-1.188-3.907-1.578-4.121-.934-9.37-1.44-15.746-1.518-14.462-.156-23.754.78-27.875 2.805-1.633.855-3.11 2.024-4.431 3.503-1.4 1.714-1.596 2.65-.585 2.804 4.666.7 7.97 2.374 9.913 5.022l.7 1.403c.546 1.012 1.09 2.804 1.634 5.374.544 2.57.895 5.412 1.05 8.525.387 5.686.387 10.554 0 14.603-.39 4.05-.758 7.204-1.108 9.462-.351 2.259-.876 4.09-1.575 5.49-.7 1.402-1.167 2.258-1.4 2.57-.234.31-.428.507-.583.583a8.718 8.718 0 0 1-3.15.586c-1.089 0-2.41-.546-3.965-1.636-1.554-1.091-3.167-2.59-4.84-4.497-1.671-1.91-3.557-4.577-5.657-8.003-2.098-3.426-4.276-7.475-6.53-12.148L57.5 33.073c-1.167-2.182-2.76-5.355-4.781-9.521a183.885 183.885 0 0 1-5.366-12.092c-.621-1.635-1.555-2.881-2.798-3.737l-.584-.352c-.388-.31-1.011-.642-1.866-.993a12.254 12.254 0 0 0-2.682-.758l-31.957.232c-3.266 0-5.481.741-6.648 2.22l-.467.7C.118 9.163 0 9.785 0 10.642c0 .858.233 1.91.7 3.154A385.745 385.745 0 0 0 15.92 45.57C21.4 55.773 26.164 63.99 30.206 70.218c4.043 6.23 8.164 12.111 12.363 17.64 4.2 5.529 6.979 9.072 8.339 10.63 1.361 1.56 2.43 2.724 3.208 3.504l2.916 2.803c1.866 1.87 4.607 4.108 8.222 6.717 3.617 2.61 7.62 5.179 12.014 7.712 4.393 2.53 9.505 4.593 15.337 6.19 5.832 1.597 11.507 2.238 17.028 1.93h13.413c2.72-.236 4.781-1.093 6.182-2.571l.464-.586c.312-.465.604-1.187.874-2.159.273-.974.408-2.046.408-3.213-.08-3.348.175-6.366.757-9.051.581-2.686 1.244-4.71 1.985-6.075.74-1.362 1.576-2.512 2.506-3.444.933-.935 1.597-1.5 1.986-1.695.388-.197.697-.33.93-.409 1.866-.622 4.062-.02 6.592 1.812 2.527 1.83 4.898 4.09 7.115 6.776 2.216 2.688 4.879 5.704 7.988 9.052 3.112 3.35 5.833 5.839 8.164 7.477l2.332 1.401c1.557.936 3.579 1.793 6.068 2.571 2.484.779 4.66.973 6.53.585l29.855-.466c2.953 0 5.251-.49 6.881-1.463 1.633-.973 2.604-2.045 2.917-3.212.312-1.167.328-2.492.059-3.974-.277-1.476-.55-2.51-.82-3.093z"/></g></g></svg>