<svg xmlns="http://www.w3.org/2000/svg" width="277" height="116" viewBox="0 0 277 116"><g><g clip-path="url(#clip-1166)"><path fill="#d0d6e0" d="M61.377 142.08H33.831V34.687L.947 44.94V22.509L58.423 1.714h2.954zM173.372 39.165c0 6.804-1.686 12.84-5.05 18.1-3.372 5.264-8.009 9.47-13.917 12.612 6.732 3.273 12.07 7.782 16.013 13.524 3.939 5.745 5.908 12.504 5.908 20.268 0 12.453-4.192 22.285-12.58 29.51-8.387 7.216-19.794 10.828-34.22 10.828-14.424 0-25.861-3.624-34.31-10.878-8.453-7.252-12.68-17.072-12.68-29.46 0-7.764 1.97-14.538 5.909-20.314 3.939-5.777 9.246-10.267 15.92-13.478-5.912-3.143-10.533-7.348-13.87-12.612-3.334-5.26-5.005-11.296-5.005-18.1 0-11.938 3.94-21.454 11.821-28.547C105.19 3.527 115.896-.02 129.433-.02c13.469 0 24.16 3.512 32.072 10.543 7.912 7.025 11.867 16.575 11.867 28.64zm-24.688 62.482c0-6.096-1.747-10.976-5.242-14.634-3.495-3.658-8.196-5.488-14.105-5.488-5.847 0-10.518 1.815-14.012 5.442-3.495 3.624-5.242 8.518-5.242 14.68 0 5.968 1.716 10.782 5.146 14.441 3.433 3.659 8.196 5.487 14.296 5.487 5.974 0 10.66-1.763 14.063-5.294 3.398-3.528 5.096-8.407 5.096-14.634zm-2.859-61.134c0-5.453-1.429-9.836-4.288-13.144-2.862-3.304-6.897-4.955-12.104-4.955-5.15 0-9.15 1.605-12.013 4.813-2.858 3.212-4.287 7.64-4.287 13.286 0 5.584 1.429 10.078 4.287 13.478 2.863 3.404 6.897 5.102 12.105 5.102 5.211 0 9.23-1.698 12.058-5.102 2.828-3.4 4.242-7.894 4.242-13.478zm105.8 23.105h34.408v25.128h-34.409v39.28h-26.21v-39.28H190.91V63.617h34.505V25.975h26.21z"/></g></g></svg>