<svg xmlns="http://www.w3.org/2000/svg" width="159" height="95" viewBox="0 0 159 95"><g><g clip-path="url(#clip-158)"><path fill="#d0d6e0" d="M134.75 196h-73.5C27.428 196 0 168.573 0 134.75v-73.5C0 27.426 27.428 0 61.25 0h73.5C168.572 0 196 27.427 196 61.25v73.5c0 33.823-27.428 61.25-61.25 61.25zm42.875-134.75c0-23.642-19.233-42.875-42.875-42.875h-73.5c-23.642 0-42.875 19.233-42.875 42.874v73.501c0 23.642 19.233 42.875 42.875 42.875h73.5c23.642 0 42.875-19.233 42.875-42.875zm-26.95-9.396a6.53 6.53 0 1 1 0-13.058 6.53 6.53 0 0 1 0 13.058zM98 147c-27.06 0-49-21.94-49-49s21.94-49 49-49 49 21.94 49 49-21.94 49-49 49zm0-79.625c-16.88 0-30.625 13.733-30.625 30.625 0 16.881 13.744 30.625 30.625 30.625 16.88 0 30.625-13.744 30.625-30.625 0-16.892-13.745-30.625-30.625-30.625z"/></g></g></svg>