<svg xmlns="http://www.w3.org/2000/svg" width="26" height="21" viewBox="0 0 26 21"><g><g><path fill="#f03382" d="M20.453 21.117c-.452 0-.916-.186-1.38-.554l-3.944-3.206-2.738 2.515c-.415.413-.948.646-1.468.646-.832 0-1.549-.55-1.918-1.47l-2.44-6.785-4.414-1.226C1.03 10.694.795 10.14.795 9.734c0-.328.166-.948 1.278-1.41L23.133.337c.348-.117.699-.188.93-.188.558 0 .987.18 1.244.52.353.439.46.96.361 1.749L22.26 19.383c-.187 1.023-.93 1.734-1.807 1.734zM19.95 4.444c.193 0 .437.045.51.261.283.392.165.775-.051.99l-7.58 8.056 7.096 5.632c.107.11.355.243.527.243.25 0 .404-.313.404-.602l3.406-16.94c.123-.365-.012-.54-.057-.584l-.142-.142-.143.142s-.054.04-.158.04L2.659 9.562l4.474 1.29L19.64 4.523c.068-.053.121-.079.31-.079zM11.267 18.92l2.682-2.405-1.743-1.336zm-3.305-6.786l2.104 5.587.954-4.044c.006-.157.049-.204.146-.302l4.418-4.7-.24-.319z"/></g></g></svg>