<svg xmlns="http://www.w3.org/2000/svg" width="23" height="24" viewBox="0 0 23 24"><g><g><path fill="#f03382" d="M23.043 11.662a10.81 10.81 0 0 1-3.19 7.697 10.827 10.827 0 0 1-7.702 3.187c-1.735 0-3.46-.418-4.996-1.21l-5.23 1.828a1.002 1.002 0 0 1-1.046-.239A1 1 0 0 1 .64 21.88l1.83-5.227a10.907 10.907 0 0 1-1.21-4.99 10.81 10.81 0 0 1 3.189-7.697 10.846 10.846 0 0 1 3.533-2.36A10.847 10.847 0 0 1 12.15.778c2.91 0 5.645 1.132 7.702 3.188a10.81 10.81 0 0 1 3.19 7.696zm-1.318 0a9.5 9.5 0 0 0-2.804-6.765 9.513 9.513 0 0 0-6.77-2.803h-.001a9.516 9.516 0 0 0-6.77 2.803 9.5 9.5 0 0 0-2.804 6.765 9.59 9.59 0 0 0 1.12 4.491c.132.25.155.544.062.809L2.095 21.71l4.752-1.661c.265-.093.56-.07.81.063a9.611 9.611 0 0 0 4.494 1.117 9.511 9.511 0 0 0 6.77-2.802 9.5 9.5 0 0 0 2.804-6.765zm-4.05 2.448c.243.242.377.565.377.908 0 .343-.134.666-.377.908l-1.181 1.18c-.355.355-.845.533-1.437.533-.536 0-1.157-.145-1.839-.437-1.246-.535-2.617-1.511-3.858-2.752-1.24-1.24-2.219-2.609-2.753-3.854-.615-1.435-.581-2.598.095-3.274l1.181-1.18c.502-.501 1.317-.501 1.818 0l1.477 1.476c.5.5.5 1.315 0 1.815l-.548.548a7.976 7.976 0 0 0 3.203 3.201l.548-.548c.501-.5 1.317-.5 1.818 0zm-.954.908l-1.431-1.43-.686.685c-.31.31-.78.385-1.17.186a9.287 9.287 0 0 1-4.082-4.078c-.2-.39-.124-.86.186-1.17l.686-.686-1.432-1.43-1.158 1.158c-.193.193-.261.786.184 1.824.47 1.096 1.348 2.318 2.474 3.443 1.125 1.125 2.349 2.002 3.445 2.472 1.038.445 1.632.377 1.825.184z"/></g></g></svg>