<svg xmlns="http://www.w3.org/2000/svg" width="21" height="23" viewBox="0 0 21 23"><g><g><path fill="#f03382" d="M20.544 13.276c-.64 5.433-4.596 5.957-5.295 6.192-.302.1-2.96.789-6.423.488-2.07 2.476-2.372 2.9-3.038 2.683-.582-.183-.547-1.095-.547-1.095l.004-2.251h-.004C.18 17.819.252 12.385.31 9.483c.06-2.898.603-5.24 2.145-6.837C5.889-.616 15.578-.21 18.448 2.524h-.001c1.777 1.602 2.763 5.143 2.097 10.752zM9.167 18.372c2.936.197 5.274-.406 5.526-.489.59-.196 3.795-.484 4.34-5.02-.006-.226.936-6.859-1.71-9.207C15.158 1.62 6.663.99 3.652 3.815 2.346 5.15 1.904 7.133 1.857 9.555c-.046 2.42-.3 7.047 3.99 8.277 0 0-.017 3.436-.017 3.737-.004.458.24.48.464.248.681-.71 2.873-3.445 2.873-3.445zm1.212-14.027c3.106.022 5.603 2.243 5.633 6.072.005.375-.543.38-.543.004-.025-3.553-2.313-5.49-5.09-5.512-.358-.005-.358-.564 0-.564zm3.653 5.487c.043-1.849-1.074-3.296-3.193-3.457-.357-.026-.32-.59.038-.564 2.444.184 3.745 1.924 3.7 4.035-.005.375-.553.357-.545-.014zm-.586 2.402c.62.362 1.408.925 1.93 1.435.295.249.362.629.16 1.03v.006c-.454.83-1.306 1.745-2.182 1.453l-.008-.013c-.889-.258-2.983-1.375-4.306-2.464-2.815-2.304-3.698-5.354-4.179-6.31-.281-.908.599-1.79 1.403-2.26h.009c.386-.21.758-.14 1.006.17.235.33.697.758 1.385 2.003.257.476.097.96-.155 1.16l-.506.419c-.257.213-.222.61-.222.61s.749 2.936 3.551 3.678c0 0 .384.034.59-.232l.404-.524c.193-.26.661-.426 1.12-.161zM11.26 7.889c-.362-.022-.329-.585.03-.563 1.175.064 1.827.763 1.887 2.016.017.374-.527.4-.544.025-.047-.96-.48-1.426-1.373-1.478z"/></g></g></svg>