<?xml version="1.0" encoding="utf-8"?>
<!-- Generator: Adobe Illustrator 23.0.1, SVG Export Plug-In . SVG Version: 6.00 Build 0)  -->
<svg version="1.1" id="Слой_1" xmlns="http://www.w3.org/2000/svg" xmlns:xlink="http://www.w3.org/1999/xlink" x="0px" y="0px"
	 viewBox="0 0 680 655" style="enable-background:new 0 0 680 655;" xml:space="preserve">
<style type="text/css">
	.st0{fill-rule:evenodd;clip-rule:evenodd;fill:#19202B;}
	.st1{fill-rule:evenodd;clip-rule:evenodd;fill:#151B25;}
	.st2{fill-rule:evenodd;clip-rule:evenodd;fill:#1E2532;}
	.st3{fill:url(#SVGID_1_);}
	.st4{fill-rule:evenodd;clip-rule:evenodd;fill:#1A2A42;}
	.st5{fill:#A2ACBB;}
</style>
<g>
	<path class="st0" d="M335.9,85.3C544.8-129.8,679.5,105.1,679.5,328c0,222.9-85.1,406.3-275.9,290.7
		C163.6,473.4,189.2,665,59.5,400C-38.5,199.8,180.7,245,335.9,85.3z"/>
	<path class="st1" d="M332.4,131.2c331.5-143.1,297.1,41.9,297.1,211.5c0,169.6-78.1,165.6-245.5,194.3
		c-346,59.4-270.8,7.3-369.5-194.3C-60.1,190.3,176.5,198.5,332.4,131.2z"/>
	<g>
		<g>
			<path class="st2" d="M286.5,289h174v-1h-174V289z M286.5,269h174v-1h-174V269z M286.5,248v1h174v-1H286.5z"/>
		</g>
	</g>
	<g>
		<linearGradient id="SVGID_1_" gradientUnits="userSpaceOnUse" x1="292.9999" y1="262" x2="447" y2="262">
			<stop  offset="0" style="stop-color:#1A2A42"/>
			<stop  offset="1" style="stop-color:#F03382"/>
		</linearGradient>
		<path class="st3" d="M295.5,300.5c-0.7,0-1.5-0.3-2-1c-0.9-1.1-0.7-2.7,0.4-3.5l52-41c0.9-0.7,2.2-0.7,3.1,0l15.2,11.6l15.5-16.4
			c0.6-0.7,1.6-0.9,2.4-0.7l37.3,9.6l23-34.5c0.8-1.1,2.3-1.5,3.5-0.7c1.1,0.8,1.5,2.3,0.7,3.5l-24,36c-0.6,0.9-1.7,1.3-2.7,1
			l-37.6-9.6l-16,16.9c-0.9,0.9-2.3,1-3.3,0.3l-15.5-11.8L297,300C296.6,300.3,296,300.5,295.5,300.5z"/>
	</g>
	<path class="st4" d="M296,307l94-0.5v4v8l-3,5c0,0-8.6,3.3-9,3s-16-1-16-1l-21,1l-19-1h-15l-8-1l-3,0.5V307z"/>
	<path class="st4" d="M210,270l62-1c5.5,0,10,4.5,10,10v92c0,5.5,15.5,10,10,10l-82,1c-5.5,0-10-4.5-10-10v-92
		C200,274.5,204.5,270,210,270z"/>
	<g>
		<g>
			<path class="st5" d="M416.5,333.2l-118.4,0c-1.4,0-2.5,1.1-2.5,2.5c0,1.4,1.1,2.5,2.5,2.5l93.7,0v93.3c0,4.3,3.4,7.7,7.7,7.7
				c4.2,0,7.7-3.5,7.7-7.7v-93.3l9.4,0c1.4,0,2.5-1.1,2.5-2.5C419,334.3,417.9,333.2,416.5,333.2z M402.2,431.5
				c0,1.5-1.2,2.7-2.7,2.7c-1.5,0-2.7-1.2-2.7-2.7v-93.3h5.4V431.5z M253.9,257.3c1.4,0,2.5-1.1,2.5-2.5v-19.3
				c0-3.9,3.2-7.1,7.1-7.1h116.3c3.9,0,7.1,3.2,7.1,7.1v69.8l-88.7,0c-1.4,0-2.5,1.1-2.5,2.5c0,1.4,1.1,2.5,2.5,2.5l88.7,0v5.9
				c0,3.9-3.2,7.1-7.1,7.1l-81.6,0c-1.4,0-2.5,1.1-2.5,2.5s1.1,2.5,2.5,2.5l81.6,0c6.6,0,12-5.4,12-12.1v-80.7
				c0-6.7-5.4-12.1-12-12.1H263.5c-6.6,0-12,5.4-12,12.1v19.3C251.4,256.2,252.5,257.3,253.9,257.3z M329.4,378.3
				c-0.8-0.1-1.9-0.2-3.2-0.3c-3.8-0.4-32.5-1.3-34-1.9c-5.3-3-6.3-5.4-6.3-8.8v-83.7c0-9-7.3-16.3-16.2-16.3h-57.5
				c-8.9,0-16.2,7.3-16.2,16.3v83.7c0,9,7.3,16.3,16.2,16.3h57.5c0.4,0,60.2,0,60.4,0c2.6-0.1,2.8-2.2,2.8-2.4
				C333,378.7,330.7,378.5,329.4,378.3z M269.7,378.5h-57.5c-6.2,0-11.2-5-11.2-11.2v-83.7c0-6.2,5-11.2,11.2-11.2h57.5
				c6.2,0,11.2,5,11.2,11.2v83.7c0,4.8,1.8,8.2,5.9,11.2C277.9,378.5,269.9,378.5,269.7,378.5z M287.5,433.2h-20.8v-34h2.1
				c2.1,0,3.8-1.7,3.8-3.8v-8.1c0-2.1-1.7-3.8-3.8-3.8h-19.6c-2.1,0-3.8,1.7-3.8,3.8v8.1c0,2.1,1.7,3.8,3.8,3.8h2.1v34h-19.8
				c-1.7,0-3.1,1.4-3.1,3.1c0,1.7,1.4,3.1,3.1,3.1h56c1.7,0,3.1-1.4,3.1-3.1C290.7,434.6,289.3,433.2,287.5,433.2z M251.3,394.2
				h-0.9v-5.6h17.1v5.6h-0.9v0L251.3,394.2L251.3,394.2z M261.7,433.2h-5.4v-34h5.4V433.2z"/>
		</g>
	</g>
	<path class="st5" d="M276.5,386.8h-35c-1.7,0-3.1-1.4-3.1-3.1l0,0c0-1.7,1.4-3.1,3.1-3.1h35c1.7,0,3.1,1.4,3.1,3.1l0,0
		C279.7,385.4,278.3,386.8,276.5,386.8z"/>
	<g>
		<g>
			<path class="st5" d="M289.3,236.6c-0.5-0.5-1.1-0.7-1.7-0.7c-0.7,0-1.3,0.3-1.7,0.7l-2.8,2.9c-0.5,0.5-0.7,1.1-0.7,1.8
				c0,0.7,0.3,1.3,0.7,1.8c0.5,0.5,1.1,0.7,1.7,0.7c0.7,0,1.3-0.3,1.8-0.7l2.8-2.9c0.5-0.5,0.7-1.1,0.7-1.8
				C290,237.7,289.7,237.1,289.3,236.6z M265.2,242.6l7.5-7.5c1-1,1-2.5,0-3.5c-0.5-0.5-1.1-0.7-1.7-0.7c-0.7,0-1.3,0.3-1.8,0.7
				l-7.5,7.5c-0.5,0.5-0.7,1.1-0.7,1.8c0,0.7,0.3,1.3,0.7,1.8c0.5,0.5,1.1,0.7,1.7,0.7C264.1,243.3,264.7,243.1,265.2,242.6z
				 M279.4,232.7c-0.7,0-1.3,0.3-1.8,0.7l-14.2,14.2c-1,1-1,2.5,0,3.5c0.5,0.5,1.1,0.7,1.7,0.7c0.7,0,1.3-0.3,1.7-0.7l14.2-14.2
				c1-1,1-2.5,0-3.5C280.7,232.9,280.1,232.7,279.4,232.7z M277.5,246c-0.7,0-1.3,0.3-1.7,0.7l-10,10c-0.5,0.5-0.7,1.1-0.7,1.8
				c0,0.7,0.3,1.3,0.7,1.8c0.5,0.5,1.1,0.7,1.7,0.7c0.7,0,1.3-0.3,1.7-0.7l10-10c0.5-0.5,0.7-1.1,0.7-1.8c0-0.7-0.3-1.3-0.7-1.8
				C278.8,246.2,278.2,246,277.5,246z"/>
		</g>
	</g>
	<path class="st5" d="M379.5,320.1c-1.9,0-3.5-1.6-3.5-3.5c0-1.9,1.6-3.5,3.5-3.5s3.5,1.6,3.5,3.5
		C383,318.6,381.5,320.1,379.5,320.1z"/>
</g>
</svg>
