<svg xmlns="http://www.w3.org/2000/svg" width="167" height="325" viewBox="0 0 167 325"><g><g clip-path="url(#clip-1146)"><path fill="#f2f5f8" d="M99.848 116.609H41.732c-9.79 0-17.754-7.945-17.754-17.71V53.42c0-9.765 7.965-17.71 17.754-17.71h58.116c9.79 0 17.754 7.945 17.754 17.71v45.477c0 9.766-7.965 17.71-17.754 17.71zM41.732 43.234c-5.632 0-10.212 4.57-10.212 10.187v33.547l15.747-10.876 19.248 10.34 26.326-24.716 17.22 17.177V53.421c0-5.617-4.582-10.187-10.213-10.187zM31.52 98.898c0 5.618 4.58 10.188 10.212 10.188h58.116c5.631 0 10.212-4.57 10.212-10.188v-9.366L92.682 72.196 67.726 95.628 47.76 84.903l-16.24 11.215zM79.94 152.72H31.676a3.766 3.766 0 0 1-3.771-3.762 3.766 3.766 0 0 1 3.77-3.76h48.266a3.766 3.766 0 0 1 3.771 3.76 3.766 3.766 0 0 1-3.77 3.762zm117.648 22.57H31.676a3.766 3.766 0 0 1-3.771-3.762 3.766 3.766 0 0 1 3.77-3.762H197.59a3.766 3.766 0 0 1 3.77 3.762 3.766 3.766 0 0 1-3.77 3.762zm1.508 22.569H31.676a3.766 3.766 0 0 1-3.771-3.762 3.766 3.766 0 0 1 3.77-3.761h167.422a3.766 3.766 0 0 1 3.77 3.761 3.766 3.766 0 0 1-3.77 3.762zM23.952 325C10.745 325 0 314.227 0 300.985V24.015C0 10.774 10.745 0 23.952 0h156.64c.935 0 1.816.366 2.477 1.03l86.898 87.081A3.57 3.57 0 0 1 271 90.614v210.37C271 314.228 260.256 325 247.05 325zm0-317.935c-9.335 0-16.927 7.604-16.927 16.95v276.97c0 9.345 7.592 16.949 16.927 16.949H247.05c9.334 0 16.927-7.604 16.927-16.95V94.148h-62.946c-13.207 0-23.95-10.774-23.95-24.016V7.065zM184.105 70.13c0 9.347 7.593 16.95 16.926 16.95h57.956l-74.882-75.041zm14.992 151.676H31.676a3.766 3.766 0 0 1-3.771-3.762 3.766 3.766 0 0 1 3.77-3.76h167.422a3.766 3.766 0 0 1 3.77 3.76 3.766 3.766 0 0 1-3.77 3.762zm0 25.658H31.676a3.766 3.766 0 0 1-3.771-3.762 3.766 3.766 0 0 1 3.77-3.76h167.422a3.766 3.766 0 0 1 3.77 3.76 3.766 3.766 0 0 1-3.77 3.762zm-94.038 24.803H31.676a3.766 3.766 0 0 1-3.771-3.762 3.766 3.766 0 0 1 3.77-3.761h73.384a3.766 3.766 0 0 1 3.77 3.761 3.766 3.766 0 0 1-3.77 3.762z"/></g></g></svg>