<svg xmlns="http://www.w3.org/2000/svg" width="849" height="682" viewBox="0 0 849 682"><g><g><path fill="#1b2432" d="M848.982 324.36v57.82c0 19.916-14.907 36.809-35.403 40.105l-48.16 7.69c-4.873 15.383-11.467 30.352-19.35 44.773l28.38 38.183c12.04 16.205 10.033 38.319-4.587 52.326l-42.713 40.927c-8.027 7.693-18.633 11.949-29.957 11.949-8.886 0-17.486-2.608-24.653-7.554l-39.703-27.192c-14.906 7.552-30.53 13.732-46.727 18.54l-8.17 46.146c-3.44 19.64-21.07 33.923-41.853 33.923H475.6c-20.783 0-38.413-14.283-41.853-33.923l-8.027-46.146c-15.623-4.669-30.817-10.576-45.293-17.854l-40.277 27.466c-7.166 4.946-15.623 7.556-24.51 7.556-11.323 0-21.93-4.258-29.956-11.949l-42.714-40.928c-14.763-14.01-16.626-36.12-4.586-52.327l28.237-37.631c-8.027-14.284-14.62-29.253-19.637-44.637l-48.733-7.966c-20.497-3.295-35.404-20.188-35.404-40.102v-57.821c0-19.916 14.907-36.809 35.404-40.104l47.586-7.693c4.873-15.517 11.18-30.487 19.063-44.91l-28.666-38.591c-12.04-16.207-10.033-38.318 4.586-52.327l42.857-40.93c7.883-7.688 18.633-11.948 29.956-11.948 8.887 0 17.487 2.61 24.654 7.555l39.416 27.194a271.569 271.569 0 0 1 46.584-18.816l8.313-46.697c3.44-19.639 21.07-33.923 41.853-33.923h60.343c20.784 0 38.413 14.284 41.853 33.923l8.027 45.598c16.77 4.806 32.967 11.262 48.446 19.09l39.847-27.193c7.167-4.943 15.623-7.554 24.51-7.554 11.323 0 21.93 4.258 29.957 11.948l42.713 40.929c14.763 14.007 16.626 36.12 4.586 52.326l-28.38 38.043c7.884 14.285 14.334 29.255 19.35 44.774l48.16 7.829c20.497 3.296 35.403 20.19 35.117 40.103zm-38.27 57.82v-57.82c0-1.784-1.29-3.296-3.153-3.57l-60.2-9.751c-7.454-1.1-13.617-6.455-15.48-13.596-5.447-20.19-13.76-39.555-24.94-57.549-3.87-6.316-3.583-14.282.86-20.188l35.403-47.658c1.003-1.51.86-3.433-.43-4.669l-42.713-40.928a3.94 3.94 0 0 0-2.723-1.099c-.717 0-1.434.276-2.15.689l-49.45 34.059c-6.307 4.258-14.477 4.531-21.07.824-19.207-10.85-39.847-18.953-61.49-24.172-7.453-1.785-13.043-7.692-14.333-14.971L538.81 64.508c-.287-1.783-1.864-3.02-3.727-3.02H474.74c-1.864 0-3.44 1.237-3.727 3.02l-10.32 58.097c-1.29 7.143-6.88 12.912-14.19 14.834-21.07 5.219-41.28 13.46-59.913 24.172-6.593 3.709-14.907 3.433-21.213-.824l-49.45-33.786a3.625 3.625 0 0 0-2.15-.687c-.717 0-1.72.137-2.723 1.097l-42.714 40.93c-1.29 1.235-1.433 3.296-.43 4.67l35.69 48.068c4.444 5.906 4.874 13.735 1.004 20.053-11.037 17.992-19.207 37.493-24.51 57.682-1.864 7.141-8.027 12.499-15.624 13.734l-59.77 9.615c-1.863.273-3.153 1.784-3.153 3.57v57.822c0 1.785 1.29 3.295 3.154 3.57l60.63 9.889c7.453 1.236 13.473 6.59 15.48 13.596 5.446 20.19 14.046 39.555 25.226 57.41 3.87 6.316 3.583 14.282-.86 20.325l-35.26 47.382c-1.003 1.512-.86 3.434.43 4.67l42.713 40.93a3.934 3.934 0 0 0 2.724 1.096c.716 0 1.433-.274 2.15-.684L368.1 547.54c3.297-2.335 7.31-3.434 11.18-3.434 3.297 0 6.737.823 9.747 2.47 18.49 10.166 38.27 17.993 58.766 23.076 7.31 1.786 12.9 7.554 14.19 14.832l10.033 57.683c.287 1.787 1.864 3.024 3.727 3.024h60.343c1.863 0 3.44-1.237 3.727-3.024l10.176-57.683c1.147-7.14 6.737-13.046 14.19-14.832 21.07-5.218 41.28-13.185 60.057-23.897 6.593-3.708 14.906-3.434 21.07.822l49.736 33.926c.574.411 1.29.684 2.15.684.717 0 1.72-.135 2.724-1.097l42.713-40.929c1.29-1.236 1.433-3.296.43-4.668l-35.403-47.795c-4.444-6.044-4.73-13.871-.86-20.19 11.18-17.99 19.493-37.357 24.94-57.546 1.863-7.003 7.883-12.361 15.48-13.597l60.2-9.612c1.863-.276 3.153-1.786 3.153-3.573zm-156.663-28.977c0 78.283-66.363 141.872-148.063 141.872-81.7 0-148.063-63.59-148.063-141.872 0-78.287 66.364-141.874 148.063-141.874 81.7 0 148.063 63.587 148.063 141.874zm-38.7 0c0-57.821-49.02-104.792-109.363-104.792-60.343 0-109.363 46.97-109.363 104.792 0 57.819 49.02 104.79 109.363 104.79 60.343 0 109.363-46.971 109.363-104.79z"/></g><g><path fill="#1b2432" d="M230.541 100.738v19.426c0 6.693-5.008 12.367-11.895 13.477l-16.182 2.585c-1.637 5.167-3.853 10.196-6.501 15.043l9.535 12.827c4.046 5.446 3.372 12.876-1.54 17.584l-14.352 13.751c-2.697 2.584-6.261 4.014-10.066 4.014-2.986 0-5.875-.876-8.283-2.536l-13.34-9.138a93.795 93.795 0 0 1-15.7 6.23l-2.746 15.505c-1.156 6.597-7.08 11.398-14.063 11.398h-20.323c-6.983 0-12.907-4.8-14.063-11.398L88.325 194c-5.249-1.569-10.354-3.555-15.218-6l-13.533 9.229c-2.408 1.663-5.25 2.54-8.236 2.54-3.804 0-7.368-1.432-10.065-4.015l-14.351-13.753c-4.96-4.706-5.587-12.137-1.542-17.581l9.488-12.646a83.422 83.422 0 0 1-6.598-14.996L11.896 134.1C5.009 132.994 0 127.32 0 120.628v-19.43c0-6.691 5.009-12.366 11.896-13.473l15.989-2.585a83.542 83.542 0 0 1 6.405-15.09l-9.632-12.968c-4.045-5.444-3.371-12.875 1.541-17.58l14.4-13.753c2.649-2.583 6.26-4.014 10.065-4.014 2.986 0 5.876.876 8.284 2.538l13.244 9.138a91.112 91.112 0 0 1 15.652-6.32l2.793-15.693C91.793 4.798 97.717.001 104.7.001h20.275c6.983 0 12.907 4.797 14.063 11.397l2.697 15.321c5.634 1.615 11.076 3.785 16.278 6.413l13.388-9.135c2.408-1.661 5.25-2.539 8.235-2.539 3.805 0 7.369 1.43 10.066 4.014l14.351 13.753c4.96 4.706 5.587 12.136 1.542 17.58l-9.536 12.784a85.478 85.478 0 0 1 6.501 15.044l16.182 2.631c6.887 1.106 11.896 6.782 11.8 13.474zm-12.858 19.426v-19.426c0-.6-.434-1.107-1.06-1.2l-20.227-3.277c-2.504-.368-4.575-2.168-5.201-4.569a72.212 72.212 0 0 0-8.38-19.335c-1.3-2.122-1.204-4.8.289-6.782l11.895-16.014c.337-.507.29-1.154-.144-1.57l-14.352-13.75a1.328 1.328 0 0 0-.915-.37c-.24 0-.481.091-.722.233L162.25 45.545a6.748 6.748 0 0 1-7.08.279 80.16 80.16 0 0 0-20.66-8.124c-2.505-.597-4.383-2.583-4.816-5.028l-3.372-19.243c-.096-.6-.626-1.015-1.252-1.015h-20.275c-.626 0-1.156.414-1.252 1.015l-3.468 19.52c-.433 2.4-2.311 4.336-4.767 4.984-7.08 1.753-13.87 4.522-20.131 8.12-2.216 1.247-5.009 1.154-7.128-.276L51.435 34.425a1.206 1.206 0 0 0-.723-.23c-.24 0-.577.046-.914.369L35.446 48.315a1.217 1.217 0 0 0-.145 1.569l11.992 16.151c1.493 1.986 1.638 4.615.337 6.738-3.708 6.043-6.453 12.599-8.235 19.38-.626 2.402-2.697 4.201-5.25 4.617L14.064 100c-.626.093-1.06.6-1.06 1.199v19.429c0 .6.434 1.107 1.06 1.198l20.372 3.325c2.504.414 4.526 2.214 5.2 4.568 1.83 6.783 4.72 13.288 8.477 19.288a6.098 6.098 0 0 1-.289 6.83l-11.847 15.922c-.337.506-.29 1.153.144 1.567l14.352 13.754c.337.322.722.367.915.367.24 0 .481-.091.722-.23l16.856-11.492c1.108-.784 2.456-1.153 3.757-1.153 1.107 0 2.263.277 3.275.833 6.212 3.413 12.858 6.043 19.745 7.752 2.456.599 4.334 2.536 4.768 4.981l3.371 19.384c.096.598.626 1.015 1.252 1.015h20.275c.627 0 1.156-.417 1.253-1.015l3.419-19.384c.385-2.397 2.263-4.382 4.768-4.981 7.08-1.755 13.87-4.43 20.179-8.03 2.215-1.247 5.008-1.154 7.08.278l16.71 11.395c.193.14.434.232.723.232.24 0 .578-.046.915-.369l14.352-13.751a1.218 1.218 0 0 0 .144-1.57l-11.895-16.058a6.024 6.024 0 0 1-.29-6.784 72.225 72.225 0 0 0 8.38-19.336c.627-2.352 2.65-4.154 5.202-4.569l20.227-3.23c.626-.092 1.06-.6 1.06-1.2zm-52.639-9.735c0 26.305-22.298 47.67-49.75 47.67-27.45 0-49.748-21.365-49.748-47.67 0-26.304 22.298-47.67 49.749-47.67 27.45 0 49.749 21.366 49.749 47.67zm-13.003 0c0-19.428-16.47-35.211-36.746-35.211-20.275 0-36.746 15.783-36.746 35.21 0 19.429 16.47 35.212 36.746 35.212 20.275 0 36.746-15.783 36.746-35.211z"/></g></g></svg>