<?xml version="1.0" encoding="utf-8"?>
<!-- Generator: Adobe Illustrator 22.1.0, SVG Export Plug-In . SVG Version: 6.00 Build 0)  -->
<svg version="1.1" id="Слой_1" xmlns="http://www.w3.org/2000/svg" xmlns:xlink="http://www.w3.org/1999/xlink" x="0px" y="0px"
	 viewBox="0 0 170 116" style="enable-background:new 0 0 170 116;" xml:space="preserve">
<style type="text/css">
	.st0{fill:#FFFFFF;}
	.st1{fill:#DAE0E8;}
	.st2{fill:#A1ABBB;}
</style>
<path class="st0" d="M167.8,116l-0.2-55.5h-45c0,0-5.3-0.5-9-4c-2.1-2-2.9-5.7-4-9v-45h-81c0,0-14,1-14,18s0,95.5,0,95.5H167.8z"/>
<path class="st1" d="M14.8,17.9c0,0-15.1,1.6-13.1,21.6V116h13L14.8,17.9z"/>
<path class="st1" d="M109.7,2.5l58,58h-47.5c0,0-9.5-5-10.5-13S109.7,2.5,109.7,2.5z"/>
<path class="st2" d="M169.3,58.6L111.7,0.7c-0.4-0.4-1-0.7-1.6-0.7H28.9C20.1,0,13,7.2,13,16v0.3C5.6,17.7,0,24.2,0,32V116h4.7V32
	c0-5.2,3.5-9.6,8.3-10.9v95h4.7V16c0-6.2,5-11.3,11.2-11.3h78.9v41.9c0,8.8,7.1,16,15.9,16h41.7V116h4.7V60.2
	C170,59.6,169.8,59,169.3,58.6z M123.6,57.9c-6.2,0-11.2-5.1-11.2-11.3V8L162,57.9H123.6z"/>
<g>
	<path class="st2" d="M77.4,16.7H38.8c-6.5,0-11.8,5.3-11.8,11.8v30.2c0,6.5,5.3,11.8,11.8,11.8h38.5c6.5,0,11.8-5.3,11.8-11.8V28.5
		C89.1,22,83.9,16.7,77.4,16.7z M38.8,21.7h38.5c3.7,0,6.8,3,6.8,6.8v16.9L72.7,34L55.3,50.4l-12.8-6.9l-10.4,7.2V28.5
		C32.1,24.8,35.1,21.7,38.8,21.7z M77.4,65.5H38.8c-3.7,0-6.8-3-6.8-6.8v-1.8l10.8-7.5l13.2,7.1L72.6,41l11.5,11.5v6.2
		C84.1,62.5,81.1,65.5,77.4,65.5z"/>
</g>
<path class="st2" d="M27.7,93L27.7,93c0-1.4,1.1-2.5,2.5-2.5h27c1.4,0,2.5,1.1,2.5,2.5l0,0c0,1.4-1.1,2.5-2.5,2.5h-27
	C28.8,95.5,27.7,94.4,27.7,93z"/>
<path class="st2" d="M27.7,104L27.7,104c0-1.4,1.1-2.5,2.5-2.5h88c1.4,0,2.5,1.1,2.5,2.5l0,0c0,1.4-1.1,2.5-2.5,2.5h-88
	C28.8,106.5,27.7,105.4,27.7,104z"/>
</svg>
