<?xml version="1.0" encoding="utf-8"?>
<!-- Generator: Adobe Illustrator 23.0.1, SVG Export Plug-In . SVG Version: 6.00 Build 0)  -->
<svg version="1.1" id="Слой_2" xmlns="http://www.w3.org/2000/svg" xmlns:xlink="http://www.w3.org/1999/xlink" x="0px" y="0px"
	 viewBox="0 0 342.2 269.9" style="enable-background:new 0 0 342.2 269.9;" xml:space="preserve">
<style type="text/css">
	.st0{fill-rule:evenodd;clip-rule:evenodd;fill:#DBE1E9;}
	.st1{fill-rule:evenodd;clip-rule:evenodd;fill:#F03382;}
	.st2{fill:#5F6875;}
	.st3{fill:#8B929D;}
	.st4{fill:#B1B8C3;}
	.st5{fill:#DBE1E9;}
	.st6{fill:#F2F4F7;}
	.st7{fill:#A2ACBB;}
</style>
<path class="st0" d="M25.2,143.9c0,0-9.2-138.1,75-132c118.9,8.6,129-37.9,193,11c65.7,50.3,47.8,87.2,43,114c-8.6,48.3-58,64-94,67
	c-56,4.6-73.4-26.1-118,16s-57.5,72.5-102,27S25.2,143.9,25.2,143.9z"/>
<path class="st1" d="M25.2,108.9c13.8,0,25,11.2,25,25c0,13.8-11.2,25-25,25s-25-11.2-25-25C0.2,120.1,11.4,108.9,25.2,108.9z"/>
<path class="st1" d="M321.7,4.9c5.2,0,9.5,4.3,9.5,9.5s-4.3,9.5-9.5,9.5s-9.5-4.3-9.5-9.5S316.5,4.9,321.7,4.9z"/>
<path class="st0" d="M165.7,204.9c5.2,0,9.5,4.3,9.5,9.5c0,5.2-4.3,9.5-9.5,9.5s-9.5-4.3-9.5-9.5
	C156.2,209.1,160.5,204.9,165.7,204.9z"/>
<g>
	<g>
		<g>
			<path class="st2" d="M202,82.1l-31.5-31.6c-0.4-0.4-1-0.7-1.7-0.7h-44.4c-5.4,0-9.8,4.4-9.8,9.8v100.5c0,5.4,4.4,9.8,9.8,9.8
				h68.5c5.4,0,9.8-4.4,9.8-9.8V83.8C202.7,83.2,202.5,82.6,202,82.1z M171.7,58.5l23.4,23.4h-18.4c-2.8,0-5-2.3-5-5L171.7,58.5
				L171.7,58.5z M197.7,159.8c0,2.8-2.3,5-5,5h-67.9c-2.8,0-5-2.3-5-5V59.9c0-2.8,2.3-5,5-5h42v21.2c0,5.4,4.4,9.8,9.8,9.8h21.2
				V159.8z"/>
		</g>
	</g>
	<g>
		<g>
			<path class="st3" d="M204,80.1l-31.5-31.6c-0.4-0.4-1-0.7-1.7-0.7h-44.4c-5.4,0-9.8,4.4-9.8,9.8v100.5c0,5.4,4.4,9.8,9.8,9.8
				h68.5c5.4,0,9.8-4.4,9.8-9.8V81.8C204.7,81.2,204.5,80.6,204,80.1z M173.7,56.5l23.4,23.4h-18.4c-2.8,0-5-2.3-5-5L173.7,56.5
				L173.7,56.5z M199.7,157.8c0,2.8-2.3,5-5,5h-67.9c-2.8,0-5-2.3-5-5V57.9c0-2.8,2.3-5,5-5h42v21.2c0,5.4,4.4,9.8,9.8,9.8h21.2
				V157.8z"/>
		</g>
	</g>
	<g>
		<g>
			<path class="st4" d="M207,77.1l-31.5-31.6c-0.4-0.4-1-0.7-1.7-0.7h-44.4c-5.4,0-9.8,4.4-9.8,9.8v100.5c0,5.4,4.4,9.8,9.8,9.8
				h68.5c5.4,0,9.8-4.4,9.8-9.8V78.8C207.7,78.2,207.5,77.6,207,77.1z M176.7,53.5l23.4,23.4h-18.4c-2.8,0-5-2.3-5-5L176.7,53.5
				L176.7,53.5z M202.7,154.8c0,2.8-2.3,5-5,5h-67.9c-2.8,0-5-2.3-5-5V54.9c0-2.8,2.3-5,5-5h42v21.2c0,5.4,4.4,9.8,9.8,9.8h21.2
				V154.8z"/>
		</g>
	</g>
	<path class="st5" d="M208.7,80.9l-2-5h-14l-13-1c0,0-3-4-3-5s0-11,0-11l-1-13l-4-1h-42l-3,2l-2,5v101l5,7h15h60l2-5l2-6V80.9z"/>
	<polygon class="st6" points="177.7,47.9 177.7,62.9 178.7,71.9 185.7,74.9 206.5,75.3 203.7,68.9 178.7,46.9 177.7,45.9 	"/>
	<g>
		<g>
			<path class="st7" d="M210,74.1l-31.5-31.6c-0.4-0.4-1-0.7-1.7-0.7h-44.4c-5.4,0-9.8,4.4-9.8,9.8v100.5c0,5.4,4.4,9.8,9.8,9.8
				h68.5c5.4,0,9.8-4.4,9.8-9.8V75.8C210.7,75.2,210.5,74.6,210,74.1z M179.7,50.5l23.4,23.4h-18.4c-2.8,0-5-2.3-5-5L179.7,50.5
				L179.7,50.5z M205.7,151.8c0,2.8-2.3,5-5,5h-67.9c-2.8,0-5-2.3-5-5V51.9c0-2.8,2.3-5,5-5h42v21.2c0,5.4,4.4,9.8,9.8,9.8h21.2
				V151.8z"/>
		</g>
	</g>
	<g>
		<g>
			<path class="st7" d="M186.7,101.9h-40c-1,0-1.9,0.6-2.3,1.5c-0.7,1.8,0.6,3.5,2.3,3.5h40c1,0,1.9-0.6,2.3-1.5
				C189.7,103.6,188.4,101.9,186.7,101.9z"/>
		</g>
	</g>
	<g>
		<g>
			<path class="st7" d="M186.7,112.9h-40c-1,0-1.9,0.6-2.3,1.5c-0.7,1.8,0.6,3.5,2.3,3.5h40c1,0,1.9-0.6,2.3-1.5
				C189.7,114.6,188.4,112.9,186.7,112.9z"/>
		</g>
	</g>
	<g>
		<g>
			<path class="st7" d="M186.7,122.9h-40c-1,0-1.9,0.6-2.3,1.5c-0.7,1.8,0.6,3.5,2.3,3.5h40c1,0,1.9-0.6,2.3-1.5
				C189.7,124.6,188.4,122.9,186.7,122.9z"/>
		</g>
	</g>
	<g>
		<g>
			<path class="st7" d="M174.1,133.9h-27c-1,0-1.9,0.6-2.3,1.5c-0.7,1.8,0.6,3.5,2.3,3.5h27c1,0,1.9-0.6,2.3-1.5
				C177.1,135.6,175.8,133.9,174.1,133.9z"/>
		</g>
	</g>
	<path class="st7" d="M154.9,85.1c-3.2,0-6.2-0.7-9.2-2.1c-0.3-0.1-0.5-0.4-0.5-0.8c0-1.2,0.5-2.7,1.2-4c1-1.7,2.2-2.6,3.3-2.6h1.5
		v-1.4c-0.4-0.5-0.7-1-0.9-1.5c-0.1,0-0.2-0.1-0.3-0.1c-0.5-0.3-1-0.9-1.3-1.6c-0.3-0.9-0.3-1.8,0.1-2.3c-0.3-2,0.1-3.8,1.1-5
		c0.7-0.9,1.7-1.4,2.9-1.7c1.2-1.8,3.5-2.3,4.2-2.3c2,0,6.6,0.7,6.6,7.6c0,5.4,0,6.4,1.1,7.5c0.2,0.2,0.3,0.6,0.2,0.9
		c-0.1,0.3-0.4,0.5-0.8,0.5c-0.3,0-2.9-0.1-5.5-2.4c-0.1,0.1-0.2,0.3-0.3,0.4v0.1l0,0v1.4h1.4c1.2,0,2.4,0.9,3.3,2.6
		c0.8,1.3,1.2,2.9,1.2,4.1c0,0.3-0.2,0.6-0.4,0.7c-0.1,0-2.2,1.2-5.5,1.8C157.4,85,156.2,85.1,154.9,85.1z M147,81.7
		c2.5,1.1,5.2,1.7,7.9,1.7c1.1,0,2.3-0.1,3.4-0.3c2.2-0.4,3.8-1,4.5-1.4c-0.1-0.4-0.2-0.9-0.4-1.5c-1.1,0.1-4.9,0.4-6.9,2.4
		c-0.2,0.2-0.4,0.2-0.6,0.2c-0.2,0-0.4-0.1-0.6-0.2c-2-2-5.8-2.3-6.9-2.4C147.2,80.8,147.1,81.3,147,81.7z M148.2,78.6
		c1.5,0.1,4.6,0.6,6.7,2.3c2.1-1.7,5.2-2.1,6.7-2.3c-0.6-0.9-1.2-1.3-1.6-1.3h-2.2c-0.4,0-0.9-0.3-0.9-0.8v-0.8
		c-0.7,0.4-1.3,0.6-2,0.6c-0.6,0-1.3-0.2-1.8-0.5v0.7c0,0.5-0.3,0.8-0.8,0.8h-2.3C149.4,77.3,148.8,77.8,148.2,78.6z M151,71
		c0.1,0,0.2,0,0.3,0c0.2,0.1,0.4,0.2,0.5,0.5c0.6,1.4,1.8,3.1,3.2,3.1c1.3,0,2.5-1.7,3.2-3.1c0.1-0.2,0.3-0.4,0.5-0.5
		c0.1,0,0.2,0,0.3,0c0,0,0.1,0,0.1,0c0.1-0.1,0.2-0.3,0.4-0.6c0.1-0.2,0.1-0.4,0.1-0.5c-3.1,0-5.4-0.6-6.9-1.7
		c-0.2-0.1-0.3-0.3-0.5-0.4c-0.5,0.8-1.3,1.5-1.7,1.9c0,0.2,0,0.4,0.1,0.7c0.1,0.3,0.3,0.5,0.4,0.6C150.9,71,150.9,71,151,71z
		 M160,72.4c1,0.9,1.9,1.4,2.6,1.6c-0.4-1.3-0.4-3.2-0.4-6.8c0-4.9-2.7-5.9-5-5.9c-0.2,0-0.8,0.1-1.5,0.4c1.4,0.1,2.6,0.7,3.4,1.7
		c1.5,1.7,1.7,4.2,1.6,5.3c0.4,0.5,0.5,1.4,0.1,2.3C160.7,71.6,160.4,72.1,160,72.4z M151.8,65.1c0.4,0,0.8,0.3,0.8,0.7
		c0,0.1,0.7,2.3,6.5,2.4c0-1-0.2-2.7-1.2-3.8c-0.7-0.8-1.7-1.1-3-1.1c-1.6,0-2.8,0.5-3.5,1.4c-0.5,0.6-0.8,1.4-0.8,2.3
		c0.3-0.4,0.4-0.8,0.4-1.1C151,65.5,151.3,65.2,151.8,65.1L151.8,65.1z"/>
</g>
<path class="st1" d="M231.5,71.6c-0.9-0.9-2.5-0.9-3.4,0l-28.8,28.5l-11.1-11c-0.9-0.9-2.5-0.9-3.4,0c-0.9,0.9-0.9,2.4,0,3.4
	l12.7,12.7c0.9,0.9,2.5,0.9,3.4,0l30.5-30.2C232.4,74,232.4,72.5,231.5,71.6z"/>
</svg>
