<?xml version="1.0" encoding="utf-8"?>
<!-- Generator: Adobe Illustrator 23.0.2, SVG Export Plug-In . SVG Version: 6.00 Build 0)  -->
<svg version="1.1" id="Слой_1" xmlns="http://www.w3.org/2000/svg" xmlns:xlink="http://www.w3.org/1999/xlink" x="0px" y="0px"
	 viewBox="0 0 391.1 303.3" style="enable-background:new 0 0 391.1 303.3;" xml:space="preserve">
<style type="text/css">
	.st0{fill-rule:evenodd;clip-rule:evenodd;fill:#E73681;}
	.st1{fill:#DAE0E8;}
	.st2{fill:#FFFFFF;}
	.st3{fill:#A1ABBB;}
	.st4{fill:#E73681;}
	.st5{fill-rule:evenodd;clip-rule:evenodd;fill:#DEE0E7;}
</style>
<g>
	<path class="st0" d="M28,6.5c14.4,0,26.1,11.7,26.1,26.1s-11.7,26-26.1,26S2,46.9,2,32.5S13.6,6.5,28,6.5z"/>
	<path class="st0" d="M322.2,211.7c21.2,0,38.3,17.2,38.3,38.3c0,21.2-17.2,38.3-38.3,38.3c-21.2,0-38.3-17.2-38.3-38.3
		C283.8,228.8,301,211.7,322.2,211.7z"/>
	<path class="st0" d="M385,0c3.4,0,6.1,2.7,6.1,6.1s-2.7,6.1-6.1,6.1s-6.1-2.7-6.1-6.1S381.6,0,385,0z"/>
</g>
<polygon class="st1" points="325.5,86 345.5,88 354.5,92 358.5,95 362.5,105 362.5,207 360.5,217 353.5,224 346.5,226 334.5,226 
	325.4,226 "/>
<polyline class="st1" points="76.2,87.2 63.5,87 52.5,89 44.5,93 39.6,96.7 37.5,105 39.5,113 37.5,134 37.5,156 39.5,188 39.5,203 
	39.5,215 44.5,220 50.5,225 56.5,226 66.5,226 76.5,226 76.2,87.2 "/>
<polygon class="st2" points="324.5,67 324.5,50 319.5,40 312.5,36 296.5,34 198.5,34 96.5,34 89.5,37 81.5,40 77.1,45.5 74.5,53 
	76.5,65 76.5,124 76.5,227 76.6,235.6 80.5,241 87.5,245 93.5,248 104.1,248 302.5,248 313.5,247 317.5,243 321.5,240 324,235.6 
	325.5,229 324.5,222 "/>
<g>
	<path class="st3" d="M226.9,197.5h-114c-4.8,0-8.8-3.9-8.8-8.8v-64.2c0-4.8,3.9-8.8,8.8-8.8h114c4.8,0,8.8,3.9,8.8,8.8v64.2
		C235.7,193.5,231.8,197.5,226.9,197.5z M112.9,120.7c-2.1,0-3.8,1.7-3.8,3.8v64.2c0,2.1,1.7,3.8,3.8,3.8h114c2.1,0,3.8-1.7,3.8-3.8
		v-64.2c0-2.1-1.7-3.8-3.8-3.8H112.9z"/>
	<path class="st3" d="M68.9,185.5c-2.1,0-3.8-1.7-3.8-3.8v-35.4c0-2.1,1.7-3.8,3.8-3.8h4.8v-5h-4.8c-4.8,0-8.8,3.9-8.8,8.8v35.4
		c0,4.8,3.9,8.8,8.8,8.8h4.8v-5L68.9,185.5L68.9,185.5z"/>
	<path class="st3" d="M73.7,228.1c0,0.8,0.1,1.7,0.1,2.5h5.1c-0.1-0.8-0.2-1.7-0.2-2.5v-37.7h-5V228.1z"/>
	<path class="st3" d="M73.7,185.5h5v-103h-5V185.5z"/>
	<path class="st3" d="M73.7,185.5v5h5v-5H73.7z"/>
	<path class="st3" d="M58.4,223.6c-9.6,0-17.4-7.8-17.4-17.3V107c0-9.6,7.8-17.3,17.4-17.3h15.3v-5H58.4C46.1,84.7,36,94.7,36,107
		v99.3c0,12.3,10,22.3,22.4,22.3H75c-0.6-1.6-1-3.3-1.2-5H58.4z"/>
	<path class="st3" d="M78.9,230.6h-5.1c0.2,1.7,0.6,3.4,1.2,5h5.4C79.7,234.1,79.1,232.4,78.9,230.6z"/>
	<path class="st3" d="M328,89.7v-5V54.8c0-12.3-10-22.3-22.4-22.3H96c-12.3,0-22.4,10-22.4,22.3v36.9h5V54.8
		c0-9.6,7.8-17.3,17.4-17.3h209.6c9.6,0,17.4,7.8,17.4,17.3v41.9h5V89.7z"/>
	<path class="st3" d="M328.2,223.6h-0.3L328,95.7h-5l-0.1,132.4c0,0.9-0.1,1.7-0.2,2.5h5.1c0.1-0.7,0.1-1.3,0.1-2l0.2,0
		C328.8,227,328.1,225.4,328.2,223.6z"/>
	<path class="st3" d="M166.7,245.5v5h5.2v-5H166.7z"/>
	<path class="st3" d="M176.9,250.5h54.5v-5h-54.5V250.5z"/>
	<path class="st3" d="M109.1,250.5h52.5v-5h-52.5C109.1,245.5,109.1,250.5,109.1,250.5z"/>
	<path class="st3" d="M96,245.5c-6.9,0-12.8-4-15.6-9.8H75c3.1,8.6,11.3,14.8,21.1,14.8h8.1v-5H96z"/>
	<path class="st3" d="M305.6,245.5h-69.3v5h69.3c9.7,0,18-6.2,21.1-14.8h-5.4C318.5,241.4,312.5,245.5,305.6,245.5z"/>
	<path class="st3" d="M109.1,245.5h-5v5h5V245.5z"/>
	<path class="st3" d="M161.7,245.5v5h5v-5H161.7z"/>
	<path class="st3" d="M231.4,245.5v5h5v-5H231.4z"/>
	<path class="st3" d="M176.9,245.5h-5v5h5V245.5z"/>
	<path class="st3" d="M343.7,84.7H328v5h15.7c9.6,0,17.4,7.8,17.4,17.3v99.3c0,9.6-7.8,17.3-17.4,17.3H328v4.5c0,0.2,0,0.3,0,0.5
		h15.7c12.3,0,22.4-10,22.4-22.3V107C366,94.7,356,84.7,343.7,84.7z"/>
	<path class="st3" d="M321.2,235.8h5.4c0.6-1.6,1-3.7,1.2-5.4h-5.1C322.4,232.3,321.9,234.3,321.2,235.8z"/>
	<path class="st3" d="M325,72.5H74.7v-5H325V72.5z"/>
	<path class="st3" d="M76.7,120.5h-37v-5h37V120.5z"/>
	<path class="st3" d="M363,120.5h-37v-5h37V120.5z"/>
	<path class="st3" d="M302.5,132.5h-52.1c-1.4,0-2.5-1.1-2.5-2.5l0,0c0-1.4,1.1-2.5,2.5-2.5h52.1c1.4,0,2.5,1.1,2.5,2.5l0,0
		C305,131.4,303.8,132.5,302.5,132.5z"/>
	<path class="st3" d="M272.4,142.5h-22c-1.4,0-2.5-1.1-2.5-2.5l0,0c0-1.4,1.1-2.5,2.5-2.5h22c1.4,0,2.5,1.1,2.5,2.5l0,0
		C274.9,141.4,273.8,142.5,272.4,142.5z"/>
	<path class="st3" d="M302.5,142.5h-22c-1.4,0-2.5-1.1-2.5-2.5l0,0c0-1.4,1.1-2.5,2.5-2.5h22c1.4,0,2.5,1.1,2.5,2.5l0,0
		C305,141.4,303.8,142.5,302.5,142.5z"/>
	<path class="st3" d="M254.4,152.5h-4c-1.4,0-2.5-1.1-2.5-2.5l0,0c0-1.4,1.1-2.5,2.5-2.5h4c1.4,0,2.5,1.1,2.5,2.5l0,0
		C256.9,151.4,255.8,152.5,254.4,152.5z"/>
	<path class="st3" d="M302.5,152.5h-40.1c-1.4,0-2.5-1.1-2.5-2.5l0,0c0-1.4,1.1-2.5,2.5-2.5h40.1c1.4,0,2.5,1.1,2.5,2.5l0,0
		C305,151.4,303.8,152.5,302.5,152.5z"/>
	<path class="st3" d="M302.5,162.5h-52.1c-1.4,0-2.5-1.1-2.5-2.5l0,0c0-1.4,1.1-2.5,2.5-2.5h52.1c1.4,0,2.5,1.1,2.5,2.5l0,0
		C305,161.4,303.8,162.5,302.5,162.5z"/>
	<path class="st3" d="M302.5,172.5h-52.1c-1.4,0-2.5-1.1-2.5-2.5l0,0c0-1.4,1.1-2.5,2.5-2.5h52.1c1.4,0,2.5,1.1,2.5,2.5l0,0
		C305,171.4,303.8,172.5,302.5,172.5z"/>
	<path class="st3" d="M282.4,182.5h-32c-1.4,0-2.5-1.1-2.5-2.5l0,0c0-1.4,1.1-2.5,2.5-2.5h32c1.4,0,2.5,1.1,2.5,2.5l0,0
		C284.9,181.3,283.8,182.5,282.4,182.5z"/>
	<path class="st3" d="M343.5,146.5h-16c-1.4,0-2.5-1.1-2.5-2.5l0,0c0-1.4,1.1-2.5,2.5-2.5h16c1.4,0,2.5,1.1,2.5,2.5l0,0
		C346,145.3,344.9,146.5,343.5,146.5z"/>
	<path class="st3" d="M343.5,156.5h-17c-1.4,0-2.5-1.1-2.5-2.5l0,0c0-1.4,1.1-2.5,2.5-2.5h17c1.4,0,2.5,1.1,2.5,2.5l0,0
		C346,155.3,344.9,156.5,343.5,156.5z"/>
	<path class="st3" d="M343.5,166.5h-16c-1.4,0-2.5-1.1-2.5-2.5l0,0c0-1.4,1.1-2.5,2.5-2.5h16c1.4,0,2.5,1.1,2.5,2.5l0,0
		C346,165.3,344.9,166.5,343.5,166.5z"/>
	<path class="st3" d="M343.5,176.5h-17c-1.4,0-2.5-1.1-2.5-2.5l0,0c0-1.4,1.1-2.5,2.5-2.5h17c1.4,0,2.5,1.1,2.5,2.5l0,0
		C346,175.3,344.9,176.5,343.5,176.5z"/>
	<path class="st3" d="M333.5,186.5h-7c-1.4,0-2.5-1.1-2.5-2.5l0,0c0-1.4,1.1-2.5,2.5-2.5h7c1.4,0,2.5,1.1,2.5,2.5l0,0
		C336,185.3,334.9,186.5,333.5,186.5z"/>
	<path class="st3" d="M297.4,61.3L297.4,61.3c-0.6-0.6-0.6-1.5,0-2l6.1-6.3l-6.5-6.3c-0.6-0.6-0.6-1.5,0-2l0,0c0.6-0.6,1.5-0.6,2,0
		l8.6,8.3l-8.1,8.3C298.9,61.8,298,61.9,297.4,61.3z"/>
	<path class="st3" d="M285.5,51.5H304v3h-18.4c-0.8,0-1.4-0.6-1.4-1.4V53C284.1,52.1,284.7,51.5,285.5,51.5z"/>
	<path class="st3" d="M333.5,111.3L333.5,111.3c-0.6-0.6-0.6-1.5,0-2l6.1-6.3l-6.5-6.3c-0.6-0.6-0.6-1.5,0-2l0,0
		c0.6-0.6,1.5-0.6,2,0l8.6,8.3l-8.1,8.3C334.9,111.8,334,111.9,333.5,111.3z"/>
	<path class="st3" d="M327.6,101.5H340v3h-12.4c-0.8,0-1.4-0.6-1.4-1.4V103C326.2,102.1,326.8,101.5,327.6,101.5z"/>
	<path class="st3" d="M203.9,46.5l1.3,5.8c0.3,1.4,0.6,2.8,0.8,4.2h0.1c0.3-1.4,0.7-2.8,1.1-4.1l1.7-5.9h2.8l1.6,5.7
		c0.4,1.5,0.7,2.9,1,4.3h0.1c0.2-1.4,0.5-2.8,0.8-4.3l1.4-5.7h3.3l-4.1,13h-3l-1.6-5.6c-0.4-1.4-0.7-2.7-1-4.4h-0.1
		c-0.3,1.7-0.6,3.1-1,4.4l-1.7,5.6h-3l-3.8-13H203.9z"/>
	<path class="st3" d="M224.6,46.5l1.3,5.8c0.3,1.4,0.6,2.8,0.8,4.2h0.1c0.3-1.4,0.7-2.8,1.1-4.1l1.7-5.9h2.8l1.6,5.7
		c0.4,1.5,0.7,2.9,1,4.3h0.1c0.2-1.4,0.5-2.8,0.8-4.3l1.4-5.7h3.3l-4.1,13h-3l-1.6-5.6c-0.4-1.4-0.7-2.7-1-4.4h-0.1
		c-0.3,1.7-0.6,3.1-1,4.4l-1.7,5.6h-3l-3.9-13H224.6z"/>
	<path class="st3" d="M245.3,46.5l1.3,5.8c0.3,1.4,0.6,2.8,0.8,4.2h0.1c0.3-1.4,0.7-2.8,1.1-4.1l1.7-5.9h2.8l1.6,5.7
		c0.4,1.5,0.7,2.9,1,4.3h0.1c0.2-1.4,0.5-2.8,0.8-4.3l1.4-5.7h3.3l-4.1,13h-3l-1.6-5.6c-0.4-1.4-0.7-2.7-1-4.4h-0.1
		c-0.3,1.7-0.6,3.1-1,4.4l-1.7,5.6h-3l-3.9-13H245.3z"/>
	<path class="st3" d="M261.9,57.3c0-1.2,0.9-2.1,2.1-2.1s2.1,0.9,2.1,2.1c0,1.2-0.8,2.1-2.1,2.1C262.7,59.5,261.9,58.6,261.9,57.3z"
		/>
	<path class="st3" d="M92.5,53.8c0-2.3,1.6-3.9,3.8-3.9c2.2,0,3.8,1.6,3.8,3.9c0,2.2-1.5,3.9-3.8,3.9S92.5,56,92.5,53.8z"/>
	<path class="st3" d="M104.1,53.8c0-2.3,1.6-3.9,3.8-3.9c2.2,0,3.8,1.6,3.8,3.9c0,2.2-1.5,3.9-3.8,3.9S104.1,56,104.1,53.8z"/>
	<path class="st3" d="M115.7,53.8c0-2.3,1.6-3.9,3.8-3.9c2.2,0,3.8,1.6,3.8,3.9c0,2.2-1.5,3.9-3.8,3.9S115.7,56,115.7,53.8z"/>
	<path class="st3" d="M57.4,104.8c0-2.3,1.6-3.9,3.8-3.9s3.8,1.6,3.8,3.9c0,2.2-1.5,3.9-3.8,3.9C59,108.7,57.4,107,57.4,104.8z"/>
	<path class="st3" d="M69,104.8c0-2.3,1.6-3.9,3.8-3.9c2.2,0,3.8,1.6,3.8,3.9c0,2.2-1.5,3.9-3.8,3.9C70.6,108.7,69,107,69,104.8z"/>
</g>
<g>
	<path class="st4" d="M159.5,144v23.9c0,0.9,1,1.5,1.8,1.1l22.3-11.1c0.9-0.4,0.9-1.7,0.1-2.2l-22.3-12.8
		C160.6,142.4,159.5,143,159.5,144z"/>
</g>
<g>
	<path class="st5" d="M122,263.4c11,0,19.9,8.9,19.9,19.9s-8.9,19.9-19.9,19.9s-19.9-8.9-19.9-19.9C102,272.3,111,263.4,122,263.4z"
		/>
</g>
</svg>
